<svg class="img-fluid" id="outputsvg" xmlns="http://www.w3.org/2000/svg" style="transform: none; transform-origin: 50% 50% 0px; cursor: move; transition: none 0s ease 0s;" width="253" height="368" viewBox="0 0 2530 3680">
    <g id="l6PJQKDtC9jlf9H9WDtavfM" fill="rgb(0,0,0)" style="transform: none;">
        <g>
            <path id="pes8VrTG9" d="M991 3566 c-287 -324 -495 -629 -576 -841 -52 -138 -115 -386 -115 -454 0 -28 58 -64 152 -95 90 -29 134 -50 140 -68 3 -7 2 -75 -3 -150 -12 -215 -39 -258 -264 -420 -140 -100 -202 -154 -276 -239 -51 -59 -52 -61 -33 -79 10 -10 82 -50 159 -89 174 -87 264 -147 382 -253 151 -137 261 -282 334 -443 17 -39 58 -149 90 -245 56 -171 58 -175 89 -181 34 -7 30 -13 83 126 110 289 89 463 -108 928 l-66 155 25 50 c79 157 134 337 158 527 21 163 10 1791 -13 1851 -4 12 -19 24 -34 26 -23 5 -38 -8 -124 -106z m74 -742 c22 -984 5 -1143 -152 -1473 -41 -85 -54 -122 -50 -145 2 -17 37 -105 77 -196 87 -197 148 -376 165 -482 12 -78 9 -130 -15 -219 l-12 -44 -34 94 c-83 233 -166 364 -349 547 -137 139 -240 214 -423 312 l-93 49 58 52 c32 29 94 78 138 109 200 139 268 213 298 322 9 33 18 124 22 226 9 232 3 242 -175 299 -47 14 -89 30 -94 35 -17 17 57 288 117 421 38 86 129 236 220 363 83 116 279 358 284 352 2 -2 10 -282 18 -622z"></path>
            <path id="p71pLMprE" d="M1412 3672 c-13 -2 -27 -13 -31 -25 -23 -61 -34 -1688 -13 -1852 24 -190 79 -370 158 -527 l25 -50 -66 -155 c-197 -465 -218 -639 -108 -928 53 -139 49 -133 83 -126 31 6 33 10 89 181 32 96 73 206 90 245 73 161 183 306 334 443 118 106 208 166 382 253 77 39 149 79 159 89 19 18 18 20 -33 79 -74 85 -136 139 -276 239 -225 162 -252 205 -264 420 -5 75 -6 143 -3 150 6 18 50 39 140 68 94 31 152 67 152 95 0 29 -38 212 -61 294 -82 290 -252 564 -595 961 -129 149 -131 151 -162 146z m190 -364 c162 -195 322 -434 385 -577 60 -133 134 -404 117 -421 -5 -5 -47 -21 -94 -35 -178 -57 -184 -67 -175 -299 4 -102 13 -193 22 -226 30 -109 98 -183 298 -322 44 -31 106 -80 138 -109 l58 -52 -93 -49 c-183 -98 -286 -173 -423 -312 -183 -183 -266 -314 -349 -547 l-34 -94 -12 44 c-24 89 -27 141 -15 219 17 106 78 285 165 482 40 91 75 179 77 196 4 23 -9 60 -50 145 -157 329 -174 493 -152 1465 8 335 15 616 15 624 0 11 5 9 18 -6 9 -12 56 -69 104 -126z"></path>
        </g>
    </g>
    <g id="lFVcmjYiaHtjfbZMxQ7jOW" fill="rgb(225,121,113)" style="transform: none;">
        <g>
            <path id="przmeiMt5" d="M1010 3472 c-237 -274 -417 -532 -500 -717 -55 -124 -144 -454 -127 -471 3 -3 50 -21 105 -39 179 -59 185 -68 176 -267 -3 -79 -13 -168 -21 -198 -30 -109 -99 -184 -300 -324 -46 -31 -117 -90 -159 -130 l-77 -72 105 -52 c188 -93 309 -181 453 -326 193 -194 271 -320 366 -595 l47 -136 26 83 c56 179 55 277 -5 477 -31 102 -109 299 -171 436 l-35 75 48 100 c49 100 100 240 119 326 45 210 52 437 34 1223 -8 373 -16 680 -17 681 -1 0 -31 -33 -67 -74z"></path>
            <path id="pmdqG3ZHa" d="M1450 3513 c0 -21 -7 -326 -15 -677 -17 -746 -10 -986 35 -1194 19 -86 70 -226 119 -326 l48 -100 -35 -75 c-62 -137 -140 -334 -171 -436 -60 -200 -61 -298 -5 -477 l26 -83 47 136 c95 275 173 401 366 595 144 145 265 233 453 326 l105 52 -77 72 c-42 40 -113 99 -159 130 -201 140 -270 215 -300 324 -8 30 -18 119 -21 198 -9 199 -3 208 176 267 55 18 102 36 105 39 17 17 -72 347 -127 471 -83 184 -267 449 -493 708 l-77 88 0 -38z"></path>
        </g>
    </g>
</svg>