<svg class="img-fluid" id="outputsvg" xmlns="http://www.w3.org/2000/svg" style="transform: none; transform-origin: 50% 50% 0px; cursor: move; transition: none 0s ease 0s;" width="445" height="164" viewBox="0 0 4450 1640">
    <g id="l3Eb8gRZ2AAB5lf1RbH90Tj" fill="rgb(0,0,0)" style="transform: none;">
        <g style="transform: none;">
            <path id="ptGxffRId" d="M138 1633 c-32 -8 -111 -289 -129 -463 -21 -205 24 -481 108 -662 52 -109 214 -348 272 -400 46 -41 171 -108 202 -108 25 0 46 31 52 75 8 67 45 150 87 198 43 48 132 99 284 162 123 50 169 84 200 147 31 62 32 70 6 100 -11 12 -74 97 -141 187 -135 181 -246 298 -335 351 -32 19 -115 54 -184 78 -72 24 -147 58 -178 79 -48 33 -117 114 -187 221 -15 23 -30 41 -34 41 -3 -1 -14 -3 -23 -6z m196 -368 c23 -13 95 -43 161 -65 66 -23 138 -52 160 -65 109 -63 207 -167 369 -389 78 -107 85 -120 72 -135 -15 -17 -82 -50 -236 -117 -118 -51 -182 -94 -229 -153 -34 -44 -81 -142 -81 -171 0 -28 -77 12 -106 55 -11 15 -33 43 -50 63 -37 45 -134 192 -162 247 -32 64 -78 203 -98 295 -13 60 -18 127 -18 225 0 120 4 156 28 252 l28 112 60 -65 c34 -36 80 -76 102 -89z"></path>
            <path id="p1E4QE2kyC" d="M4255 1598 c-70 -107 -139 -188 -187 -221 -31 -21 -106 -55 -178 -79 -69 -24 -152 -59 -184 -78 -89 -53 -200 -170 -335 -351 -67 -90 -130 -175 -141 -187 -26 -30 -25 -38 6 -100 31 -63 77 -97 200 -147 152 -63 241 -114 284 -162 42 -48 79 -131 87 -198 6 -44 27 -75 52 -75 31 0 156 67 202 108 58 52 220 291 272 400 84 181 129 457 108 662 -16 148 -97 460 -121 460 -5 0 -15 2 -23 5 -9 4 -24 -10 -42 -37z m51 -290 c24 -97 28 -133 28 -253 0 -98 -5 -165 -18 -225 -20 -92 -66 -231 -98 -295 -28 -55 -125 -202 -162 -247 -17 -20 -39 -48 -50 -63 -29 -43 -106 -83 -106 -55 0 29 -47 127 -81 171 -47 59 -111 102 -229 153 -154 67 -221 100 -236 117 -13 15 -6 28 72 135 162 222 260 326 369 389 22 13 94 42 160 65 151 51 187 73 261 154 32 35 60 65 61 65 1 1 14 -50 29 -111z"></path>
        </g>
    </g>
    <g id="l2yRI8SMCWHFbhJITky7ojK" fill="rgb(225,121,113)" style="transform: none;">
        <g style="transform: none;">
            <path id="pobgUwYiA" d="M158 1494 c-3 -5 -21 -67 -39 -139 -32 -123 -34 -139 -34 -300 0 -128 5 -191 19 -255 20 -92 66 -231 98 -295 28 -54 124 -202 162 -247 17 -20 42 -51 54 -68 26 -33 69 -59 119 -70 32 -8 32 -8 53 55 26 77 69 144 122 189 40 35 165 100 261 136 136 52 194 104 168 153 -29 54 -233 318 -297 384 -95 97 -162 138 -311 190 -70 24 -146 55 -168 68 -40 23 -127 110 -176 174 -14 19 -28 30 -31 25z"></path>
            <path id="p1EOCd0iuX" d="M4247 1453 c-45 -61 -133 -145 -175 -167 -17 -9 -88 -36 -158 -60 -146 -51 -213 -92 -308 -189 -64 -66 -268 -330 -297 -384 -26 -49 32 -101 168 -153 96 -36 221 -101 261 -136 53 -45 96 -112 122 -189 21 -63 21 -63 53 -55 50 11 93 37 119 70 12 17 37 48 54 68 38 45 134 193 162 247 32 64 78 203 98 295 14 64 19 127 19 255 0 160 -2 177 -33 300 -19 72 -37 134 -42 138 -4 5 -23 -14 -43 -40z"></path>
        </g>
    </g>
</svg>