<svg class="img-fluid" id="outputsvg" xmlns="http://www.w3.org/2000/svg" style="transform: matrix(1, 0, 0, 1, 0, -1); transform-origin: 50% 50% 0px; cursor: move; transition: none 0s ease 0s;" width="321" height="59" viewBox="0 0 3210 590">
    <g id="l4GYHvT1P1qc0H8UtXGoSPu" fill="rgb(0,0,0)" style="transform: none;">
        <g>
            <path id="paLePolL9" d="M580 573 c-314 -55 -507 -198 -564 -420 -25 -95 -23 -100 39 -130 l54 -27 98 39 c288 113 377 184 499 395 27 47 53 88 57 91 5 4 6 21 2 38 -6 29 -9 31 -53 30 -26 0 -85 -8 -132 -16z m-21 -159 c-50 -74 -87 -111 -148 -152 -63 -42 -270 -136 -279 -127 -3 3 5 28 18 56 48 101 181 197 340 245 103 31 106 31 69 -22z"></path>
            <path id="p1FLAhLqP5" d="M2445 559 c-4 -17 -3 -34 2 -38 4 -3 30 -44 57 -91 122 -211 211 -282 499 -395 l98 -39 54 27 c62 30 64 35 39 130 -47 181 -177 305 -394 377 -89 30 -247 60 -311 60 -34 0 -38 -3 -44 -31z m263 -119 c160 -44 303 -146 352 -249 13 -28 21 -53 18 -56 -9 -9 -216 85 -279 127 -31 21 -71 54 -87 72 -42 48 -95 126 -85 126 5 0 41 -9 81 -20z"></path>
        </g>
    </g>
    <g id="l5QH703yfYWo0VzICOf1jZr" fill="rgb(225,121,113)" style="transform: none;">
        <g>
            <path id="p1CR9SNeoo" d="M558 490 c-48 -10 -104 -24 -125 -30 -124 -41 -264 -143 -304 -223 -19 -36 -49 -121 -49 -139 0 -22 48 -14 135 23 209 86 285 138 358 241 49 69 92 148 80 147 -5 0 -47 -9 -95 -19z"></path>
            <path id="p1H7iqAwR5" d="M2571 467 c38 -75 109 -167 162 -208 115 -92 398 -206 397 -161 0 18 -30 103 -49 139 -28 56 -121 138 -204 180 -65 32 -199 72 -289 86 l-38 6 21 -42z"></path>
        </g>
    </g>
</svg>