<svg class="img-fluid" id="outputsvg" xmlns="http://www.w3.org/2000/svg" style="transform: none; transform-origin: 50% 50% 0px; cursor: move; transition: none 0s ease 0s;" width="348" height="220" viewBox="0 0 3480 2200">
    <g id="l17KGqBzgF3vm1VAztZVhiq" fill="rgb(0,0,0)" style="transform: none;">
        <g>
            <path id="p16xX7iHnA" d="M604 2042 c-308 -529 -456 -851 -514 -1111 -31 -142 -41 -235 -50 -476 -5 -148 -14 -257 -25 -305 -22 -98 -13 -122 49 -140 70 -19 93 -5 141 87 109 213 343 325 732 349 59 4 117 10 129 14 11 5 120 146 242 314 l222 306 0 61 c0 94 -28 206 -71 290 -50 96 -133 186 -352 382 -161 145 -275 262 -340 350 -49 65 -60 57 -163 -121z m193 -97 c32 -36 131 -131 221 -212 278 -250 350 -339 387 -478 28 -110 35 -96 -191 -407 l-205 -283 -57 -6 c-31 -4 -106 -12 -165 -18 -285 -31 -519 -138 -625 -286 l-21 -30 0 70 c0 137 18 395 35 492 34 200 100 384 233 653 101 201 308 570 321 570 5 0 35 -29 67 -65z"></path>
            <path id="p138KK8Ly4" d="M2713 2163 c-65 -88 -179 -205 -340 -350 -219 -196 -302 -286 -352 -382 -43 -84 -71 -196 -71 -290 l0 -61 222 -306 c122 -168 231 -309 242 -314 12 -4 70 -10 129 -14 389 -24 623 -136 732 -349 48 -92 71 -106 141 -87 62 18 71 42 49 140 -11 48 -20 157 -25 305 -9 241 -19 334 -50 476 -58 260 -206 582 -514 1111 -103 178 -114 186 -163 121z m158 -350 c264 -465 388 -757 433 -1026 17 -97 35 -355 35 -492 l0 -70 -21 30 c-106 148 -340 255 -625 286 -59 6 -134 14 -165 18 l-57 6 -205 283 c-226 311 -219 297 -191 407 37 139 109 228 387 478 90 81 189 176 221 212 32 36 62 65 67 65 5 0 59 -89 121 -197z"></path>
        </g>
    </g>
    <g id="l6a4iCW3uF1vQhMsypAIca2" fill="rgb(225,121,113)" style="transform: none;">
        <g>
            <path id="pJag35Xte" d="M642 1952 c-142 -246 -174 -305 -263 -482 -98 -198 -145 -313 -189 -462 -46 -159 -60 -261 -75 -558 -8 -151 -19 -293 -24 -315 -13 -52 -13 -55 2 -55 6 0 25 24 41 53 77 138 153 209 298 277 137 64 318 104 521 114 43 2 80 6 82 8 3 3 100 135 215 294 l210 289 -6 55 c-16 151 -62 253 -162 361 -36 39 -149 146 -253 240 -103 93 -189 173 -191 178 -2 5 -31 38 -65 75 l-62 65 -79 -137z"></path>
            <path id="p37Sll5I8" d="M2680 2004 c-41 -46 -152 -154 -247 -239 -329 -298 -384 -378 -407 -595 l-6 -55 210 -289 c115 -159 212 -291 215 -294 2 -2 39 -6 82 -8 203 -10 384 -50 521 -114 145 -68 221 -139 298 -277 16 -29 35 -53 42 -53 14 0 14 3 1 55 -5 22 -16 164 -24 315 -15 297 -29 399 -75 558 -44 151 -91 265 -195 472 -79 160 -314 582 -333 602 -4 3 -41 -32 -82 -78z"></path>
        </g>
    </g>
</svg>