<svg class="img-fluid" id="outputsvg" xmlns="http://www.w3.org/2000/svg" style="transform: matrix(1, 0, 0, 1, 0, -1); transform-origin: 50% 50% 0px; cursor: move; transition: none 0s ease 0s;" width="304" height="134" viewBox="0 0 3040 1340">
    <g id="l7RyTfrlvKsJMxlhfHqHAj2" fill="rgb(0,0,0)" style="transform: none;">
        <g>
            <path id="p10gJEnykp" d="M146 1333 c-21 -6 -20 -11 10 -168 12 -62 18 -138 18 -245 0 -144 -2 -163 -32 -270 -18 -63 -43 -155 -57 -205 -28 -102 -85 -376 -85 -411 0 -17 7 -24 30 -29 34 -7 50 -1 50 21 0 24 150 314 251 484 190 322 310 599 271 624 -5 3 -35 8 -66 11 -67 6 -100 21 -176 79 -30 23 -76 55 -102 72 -27 16 -48 32 -48 37 0 8 -33 8 -64 0z m281 -283 l42 -13 -19 -48 c-37 -92 -200 -400 -200 -377 0 4 8 37 17 75 18 72 25 370 10 426 l-8 28 58 -40 c32 -21 77 -45 100 -51z"></path>
            <path id="pp49A0LrP" d="M2830 1334 c0 -5 -21 -22 -48 -38 -26 -17 -72 -49 -102 -72 -76 -58 -109 -73 -176 -79 -31 -3 -61 -8 -66 -11 -39 -25 81 -302 271 -624 101 -170 251 -460 251 -484 0 -22 16 -28 50 -21 23 5 30 12 30 29 0 35 -57 309 -85 411 -81 291 -87 322 -92 426 -6 107 4 204 34 361 9 49 14 90 11 93 -10 10 -78 18 -78 9z m-72 -279 c-12 -99 -3 -290 16 -370 9 -33 15 -64 16 -70 1 -27 -161 276 -200 374 l-19 49 42 11 c23 7 67 29 97 50 30 21 56 38 56 37 1 0 -3 -37 -8 -81z"></path>
        </g>
    </g>
    <g id="lksA2uW1084ZYys1Xh50pf" fill="rgb(225,121,113)" style="transform: none;">
        <g>
            <path id="p1Eqgdg9Zq" d="M237 1143 c8 -43 15 -141 16 -218 1 -151 -5 -183 -78 -437 -41 -143 -44 -168 -12 -113 13 22 64 110 114 195 104 177 170 307 213 415 17 42 30 77 30 79 0 2 -17 6 -37 10 -48 7 -99 35 -180 97 -35 27 -68 49 -72 49 -5 0 -2 -35 6 -77z"></path>
            <path id="ph8wUDq9s" d="M2737 1171 c-81 -62 -132 -90 -179 -97 -21 -4 -38 -8 -38 -10 0 -2 13 -37 30 -79 43 -108 109 -238 213 -415 50 -85 101 -173 114 -195 32 -55 29 -30 -12 113 -73 254 -79 286 -78 437 1 77 8 175 16 218 8 42 11 77 6 77 -4 0 -37 -22 -72 -49z"></path>
        </g>
    </g>
</svg>