<svg class="img-fluid" id="outputsvg" xmlns="http://www.w3.org/2000/svg" style="transform: none; transform-origin: 50% 50% 0px; cursor: move; transition: none 0s ease 0s;" width="454" height="173" viewBox="0 0 4540 1730">
    <g id="l3GpGIkjlk5MeLw3pUaHSiw" fill="rgb(0,0,0)" style="transform: none;">
        <g>
            <path id="prmamwYsa" d="M125 1720 c-15 -24 -95 -367 -111 -471 -22 -151 -15 -396 15 -518 76 -302 210 -530 375 -635 109 -71 255 -101 454 -94 115 3 118 4 218 51 55 26 123 53 151 59 45 11 52 16 61 45 l10 32 -72 27 c-39 14 -110 43 -158 64 -271 117 -430 310 -621 750 -96 223 -247 619 -247 650 0 37 -58 68 -75 40z m93 -435 c119 -312 247 -582 343 -729 102 -155 246 -282 408 -360 l70 -34 -58 -26 c-52 -23 -71 -26 -167 -26 -229 1 -352 54 -471 205 -161 204 -261 555 -233 817 13 121 46 295 55 287 2 -2 26 -62 53 -134z"></path>
            <path id="phMTt1dJI" d="M4356 1714 c-9 -8 -16 -24 -16 -34 0 -31 -151 -427 -247 -650 -191 -440 -350 -633 -621 -750 -48 -21 -119 -50 -158 -64 l-72 -27 10 -32 c9 -29 16 -34 61 -45 28 -6 96 -33 151 -59 100 -47 103 -48 218 -51 199 -7 345 23 454 94 165 105 299 333 375 635 30 122 37 367 15 518 -16 104 -96 447 -111 471 -9 15 -42 12 -59 -6z m44 -391 c53 -258 45 -439 -30 -673 -53 -163 -174 -363 -262 -431 -97 -76 -212 -109 -382 -109 -96 0 -115 3 -167 26 l-58 26 70 34 c162 78 306 205 408 360 96 146 244 462 356 761 21 57 40 101 43 98 2 -2 13 -44 22 -92z"></path>
        </g>
    </g>
    <g id="l7R99TX12Qo4FIX9DG40iFA" fill="rgb(225,121,113)" style="transform: none;">
        <g>
            <path id="p3eKkWzsl" d="M131 1453 c-79 -341 -77 -565 9 -833 53 -163 174 -363 262 -431 103 -80 211 -109 413 -109 l140 0 92 44 93 43 -48 18 c-204 77 -380 217 -501 401 -101 154 -226 422 -358 769 -36 94 -68 174 -73 178 -4 5 -17 -31 -29 -80z"></path>
            <path id="ps5AHHLS9" d="M4378 1534 c-3 -5 -35 -85 -71 -179 -133 -348 -257 -615 -358 -769 -121 -184 -297 -324 -501 -401 l-48 -18 93 -43 92 -44 140 0 c202 0 310 29 413 109 88 68 209 268 262 431 80 249 87 465 24 762 -28 132 -38 166 -46 152z"></path>
        </g>
    </g>
</svg>