<svg class="img-fluid" id="outputsvg" xmlns="http://www.w3.org/2000/svg" style="transform: none; transform-origin: 50% 50% 0px; cursor: move; transition: none 0s ease 0s;" width="372" height="90" viewBox="0 0 3720 900">
    <g id="l5a0Y6Dyabyl3U5tNWUFbS2" fill="rgb(0,0,0)" style="transform: none;">
        <g>
            <path id="ptDXsFNX0" d="M33 883 c-18 -9 -33 -21 -33 -26 0 -19 151 -301 207 -386 107 -164 201 -241 440 -362 196 -99 226 -107 353 -97 133 10 298 41 415 79 139 44 228 109 300 217 40 61 29 74 -88 110 -133 41 -196 50 -407 57 -463 16 -620 70 -1025 349 -60 42 -114 76 -120 75 -5 0 -25 -8 -42 -16z m483 -389 c182 -83 319 -109 659 -124 162 -7 253 -15 308 -29 43 -10 80 -21 83 -24 12 -12 -87 -80 -158 -107 -94 -36 -266 -75 -401 -89 l-98 -11 -157 78 c-240 119 -328 183 -411 297 -37 50 -101 152 -101 160 0 2 46 -24 103 -57 56 -34 134 -76 173 -94z"></path>
            <path id="pZh7GoxgG" d="M3525 824 c-405 -279 -562 -333 -1025 -349 -211 -7 -274 -16 -407 -57 -117 -36 -128 -49 -88 -110 72 -108 161 -173 300 -217 117 -38 282 -69 415 -79 127 -10 157 -2 353 97 239 121 333 198 440 362 56 85 207 367 207 386 0 9 -62 43 -78 43 -4 0 -57 -34 -117 -76z m-76 -235 c-118 -194 -196 -259 -481 -401 l-157 -78 -98 11 c-135 14 -307 53 -401 89 -71 27 -170 95 -158 107 3 3 40 14 83 24 55 14 146 22 308 29 127 6 273 17 325 25 172 25 343 91 525 203 44 27 81 48 83 47 2 -2 -11 -27 -29 -56z"></path>
        </g>
    </g>
    <g id="l70mItf5VKI9X9fWy3yNYCP" fill="rgb(225,121,113)" style="transform: none;">
        <g>
            <path id="p6o5b9gEw" d="M130 763 c0 -5 32 -63 70 -131 150 -264 212 -320 525 -475 l160 -80 122 11 c153 15 328 52 435 93 65 25 94 44 142 90 33 32 57 61 54 64 -3 3 -50 17 -104 31 -82 21 -138 27 -329 35 -126 5 -273 16 -325 24 -211 31 -411 119 -663 291 -82 56 -87 59 -87 47z"></path>
            <path id="pbfkOkFRx" d="M3520 728 c-79 -57 -263 -166 -346 -204 -183 -83 -319 -109 -659 -123 -191 -8 -247 -14 -329 -35 -54 -14 -101 -28 -104 -31 -3 -3 21 -32 54 -64 48 -46 77 -65 142 -90 107 -41 282 -78 435 -93 l122 -11 160 80 c313 155 375 211 525 475 91 159 91 162 0 96z"></path>
        </g>
    </g>
</svg>