<svg class="img-fluid" id="outputsvg" xmlns="http://www.w3.org/2000/svg" style="transform: none; transform-origin: 50% 50% 0px; cursor: move; transition: none 0s ease 0s;" width="370" height="160" viewBox="0 0 3700 1600">
    <g id="l4S9GmjFAJgiQM849iGTVzU" fill="rgb(0,0,0)" style="transform: none;">
        <g>
            <path id="pNYUTW8NK" d="M1138 1517 c-159 -111 -306 -239 -608 -529 -363 -348 -442 -415 -480 -403 -11 4 -21 -6 -33 -30 -9 -20 -17 -37 -17 -40 0 -2 15 -7 32 -10 18 -4 87 -40 153 -80 351 -211 452 -248 839 -305 177 -26 585 -100 637 -116 33 -9 40 50 46 381 6 327 0 416 -33 517 -20 62 -83 131 -139 154 -25 11 -45 22 -45 25 0 3 16 28 35 55 19 27 35 52 35 56 0 4 -39 34 -87 67 -103 70 -128 90 -122 93 2 2 18 10 34 18 24 13 31 23 33 55 3 36 0 42 -70 107 -40 37 -77 68 -83 68 -5 0 -63 -38 -127 -83z m102 -87 c-26 -26 -27 -94 -2 -135 11 -16 51 -52 90 -80 51 -36 69 -54 65 -65 -13 -29 -15 -118 -3 -140 6 -12 35 -32 65 -45 59 -27 107 -78 124 -134 30 -100 38 -458 15 -652 l-5 -46 -92 19 c-51 10 -175 32 -277 48 -102 17 -243 39 -313 51 -117 18 -286 68 -362 106 -75 38 -315 177 -315 183 0 3 30 32 67 64 37 32 183 169 323 304 140 135 298 282 350 327 142 123 342 267 270 195z"></path>
            <path id="p1EvyG6msO" d="M2352 1532 c-70 -65 -73 -71 -70 -107 2 -32 9 -42 33 -55 17 -8 32 -16 34 -18 6 -3 -19 -23 -121 -93 -49 -33 -88 -63 -88 -67 0 -4 16 -29 35 -56 19 -27 35 -52 35 -55 0 -3 -20 -14 -45 -25 -56 -23 -119 -92 -139 -154 -33 -101 -39 -190 -33 -517 6 -331 13 -390 46 -381 52 16 460 90 637 116 387 57 488 94 839 305 66 40 135 76 153 80 17 3 32 8 32 10 0 3 -8 20 -17 40 -12 24 -22 34 -33 30 -38 -12 -117 55 -480 403 -140 134 -308 290 -373 346 -114 98 -342 265 -362 266 -5 0 -43 -31 -83 -68z m193 -149 c135 -99 254 -205 535 -475 140 -135 286 -272 323 -304 37 -32 67 -61 67 -64 0 -6 -240 -145 -315 -183 -76 -38 -245 -88 -362 -106 -70 -12 -211 -34 -313 -51 -102 -16 -226 -38 -277 -48 l-92 -19 -5 46 c-23 194 -15 552 15 652 17 56 65 107 124 134 30 13 59 33 65 45 12 22 10 111 -3 140 -4 11 14 29 65 65 39 28 79 64 90 80 25 41 24 109 -2 135 -38 38 -5 20 85 -47z"></path>
        </g>
    </g>
    <g id="l3ofb73tBNUGC50G1JzvWJd" fill="rgb(225,121,113)" style="transform: none;">
        <g>
            <path id="ploSnpsRU" d="M1160 1439 c-169 -122 -254 -197 -626 -554 -132 -127 -272 -257 -312 -289 l-72 -59 69 -43 c145 -90 330 -184 428 -218 56 -19 159 -44 230 -55 70 -12 211 -34 313 -51 102 -16 239 -40 305 -54 66 -13 122 -23 124 -20 2 2 8 108 14 236 11 241 1 450 -25 531 -17 54 -64 104 -128 135 -73 36 -84 65 -50 130 l25 47 -85 61 c-129 93 -150 147 -69 184 l40 17 -36 32 c-20 17 -41 31 -48 31 -7 0 -50 -28 -97 -61z"></path>
            <path id="p5uyVwUMY" d="M2395 1469 l-36 -32 40 -17 c81 -37 60 -91 -69 -184 l-85 -61 25 -47 c34 -65 23 -94 -50 -130 -64 -31 -111 -81 -128 -135 -26 -81 -36 -290 -25 -531 6 -128 12 -234 14 -236 2 -3 58 7 124 20 66 14 203 38 305 54 102 17 243 39 313 51 71 11 174 36 230 55 98 34 283 128 428 218 l69 43 -72 59 c-40 32 -180 162 -312 289 -274 263 -384 364 -476 440 -93 75 -233 175 -247 175 -7 0 -28 -14 -48 -31z"></path>
        </g>
    </g>
</svg>