<svg class="img-fluid" id="outputsvg" xmlns="http://www.w3.org/2000/svg" style="transform: none; transform-origin: 50% 50% 0px; cursor: move; transition: none 0s ease 0s;" width="290" height="97" viewBox="0 0 2900 970">
    <g id="l15bvodJXVpMHFeZDErQsNv" fill="rgb(0,0,0)" style="transform: none;">
        <g>
            <path id="p9WuxApvT" d="M725 961 c-32 -9 -49 -23 -85 -71 -19 -25 -93 -106 -165 -180 -262 -272 -393 -448 -460 -618 l-17 -43 27 -25 c26 -24 28 -24 52 -9 61 40 249 199 363 306 135 128 227 200 361 285 l87 54 -3 58 c-4 70 -37 163 -76 207 -31 35 -53 45 -84 36z m45 -221 c0 -8 -21 -28 -48 -44 -92 -57 -217 -151 -287 -215 -61 -56 -64 -58 -25 -16 25 28 110 116 190 198 l145 148 12 -28 c7 -16 12 -35 13 -43z"></path>
            <path id="pVOdGAHnQ" d="M2133 959 c-54 -20 -113 -141 -118 -241 l-3 -58 87 -54 c134 -85 226 -157 361 -285 114 -107 302 -266 363 -306 24 -15 26 -15 52 9 l27 25 -17 43 c-67 170 -199 348 -460 618 -72 74 -143 152 -159 173 -53 72 -89 93 -133 76z m320 -454 l82 -90 -70 65 c-69 64 -194 158 -287 216 -52 31 -54 35 -37 84 l12 32 109 -108 c60 -60 146 -149 191 -199z"></path>
        </g>
    </g>
    <g id="l2SNbmPkK5aWEjOzHN6R32T" fill="rgb(225,121,113)" style="transform: none;">
        <g>
            <path id="pbz9ohKDz" d="M559 682 c-101 -103 -219 -230 -261 -283 -83 -102 -171 -230 -163 -237 6 -7 93 67 252 215 144 134 235 207 357 283 67 42 68 44 63 80 -6 44 -42 130 -55 130 -5 0 -92 -84 -193 -188z"></path>
            <path id="ppQixyZ2d" d="M2118 823 c-11 -25 -23 -63 -25 -83 -5 -36 -4 -38 63 -80 122 -76 213 -149 357 -283 159 -148 246 -222 252 -215 8 7 -80 135 -163 237 -81 101 -438 471 -454 471 -5 0 -18 -21 -30 -47z"></path>
        </g>
    </g>
</svg>