<svg class="img-fluid" id="outputsvg" xmlns="http://www.w3.org/2000/svg" style="transform: none; transform-origin: 50% 50% 0px; cursor: move; transition: none 0s ease 0s;" width="300" height="106" viewBox="0 0 3000 1060">
    <g id="l6i8eUxshkTSohsxvwM2LVk" fill="rgb(0,0,0)" style="transform: none;">
        <g>
            <path id="pqQMMRCPu" d="M141 1035 c-41 -13 -81 -31 -90 -40 -14 -14 -17 -65 -22 -398 -4 -219 -12 -422 -19 -476 -12 -89 -12 -95 6 -108 35 -25 55 -11 96 67 22 41 95 167 161 280 168 285 167 282 157 455 -9 155 -23 201 -70 229 -40 23 -130 19 -219 -9z m165 -110 c4 -14 5 -27 3 -29 -2 -2 -41 -22 -87 -45 l-83 -42 3 52 3 52 50 18 c75 26 103 24 111 -6z m14 -219 c-11 -54 -12 -55 -88 -100 -100 -60 -106 -60 -100 6 4 42 11 56 34 75 43 34 159 93 162 83 2 -5 -2 -34 -8 -64z m-159 -302 l-31 -49 0 42 c0 36 3 42 28 51 15 5 28 8 30 7 2 -2 -10 -25 -27 -51z"></path>
            <path id="p9FiZphwK" d="M2639 1043 c-46 -28 -60 -74 -69 -228 -10 -173 -11 -170 157 -455 66 -113 139 -239 161 -280 41 -78 61 -92 96 -67 18 13 18 19 6 108 -7 54 -15 257 -19 475 -5 302 -9 384 -20 398 -20 24 -168 66 -232 66 -32 0 -65 -7 -80 -17z m166 -112 l50 -18 3 -52 3 -52 -83 42 c-46 23 -85 43 -87 45 -2 2 -1 15 3 29 8 30 36 32 111 6z m29 -244 c23 -19 30 -33 34 -75 6 -66 0 -66 -100 -6 -74 44 -77 47 -87 95 -18 84 -18 84 57 45 37 -20 80 -46 96 -59z m36 -290 l0 -42 -30 47 c-17 27 -30 50 -30 52 0 3 14 0 30 -5 27 -10 30 -15 30 -52z"></path>
        </g>
    </g>
    <g id="l60X3pa60pohdxc5Me0F4NA" fill="rgb(216,124,117)" style="transform: none;">
        <g>
            <path id="pQYKefHAU" d="M215 975 c-112 -30 -105 -21 -105 -136 l0 -101 33 21 c17 12 71 42 120 67 94 48 100 58 76 121 -18 47 -38 52 -124 28z"></path>
            <path id="pbnSz9EgE" d="M2683 983 c-15 -11 -33 -58 -33 -89 0 -20 14 -31 88 -68 48 -25 102 -55 120 -67 l33 -21 -3 102 -3 103 -52 18 c-66 22 -134 32 -150 22z"></path>
            <path id="pgEVs7OJp" d="M250 785 c-47 -25 -98 -56 -115 -69 -29 -23 -30 -28 -33 -115 -4 -104 -6 -103 78 -68 82 35 152 83 165 114 18 41 20 183 3 183 -7 -1 -51 -21 -98 -45z"></path>
            <path id="p2qOpPn6u" d="M2641 753 c1 -43 7 -90 14 -106 13 -31 83 -79 165 -114 84 -35 82 -36 78 68 -3 87 -4 92 -33 115 -34 27 -197 114 -215 114 -7 0 -10 -25 -9 -77z"></path>
            <path id="pKsaSSnBG" d="M250 530 c-19 -10 -61 -29 -92 -41 l-58 -21 0 -121 c0 -67 4 -117 8 -112 16 20 184 307 180 310 -1 2 -19 -5 -38 -15z"></path>
            <path id="pdy3cshwL" d="M2710 544 c0 -6 169 -294 182 -309 4 -5 8 45 8 112 l0 120 -47 18 c-27 10 -69 29 -95 42 -27 13 -48 21 -48 17z"></path>
        </g>
    </g>
</svg>