<svg class="img-fluid" id="outputsvg" xmlns="http://www.w3.org/2000/svg" style="transform: none; transform-origin: 50% 50% 0px; cursor: move; transition: none 0s ease 0s;" width="296" height="261" viewBox="0 0 2960 2610">
    <g id="l1ZF8zSoXww5x52cPj5LVeA" fill="rgb(0,0,0)" style="transform: none;">
        <g>
            <path id="p19nADjOdX" d="M215 2591 c-82 -37 -138 -136 -186 -330 l-31 -121 27 -268 c36 -353 43 -637 20 -837 -19 -170 -31 -623 -17 -644 8 -11 30 -11 123 -3 132 12 195 4 221 -28 15 -19 18 -42 18 -149 0 -78 -4 -131 -11 -138 -12 -12 14 -73 32 -73 20 0 221 109 294 158 79 54 140 127 156 187 20 72 8 124 -89 405 -62 178 -76 277 -75 530 1 143 8 288 23 435 41 407 38 507 -17 624 -88 186 -343 318 -488 252z m182 -121 c68 -32 152 -104 189 -161 59 -93 65 -183 33 -489 -11 -114 -22 -310 -26 -470 -8 -380 7 -469 132 -819 41 -115 41 -143 0 -197 -28 -36 -126 -110 -190 -142 l-40 -20 0 107 c-1 123 -16 161 -75 196 -29 17 -56 21 -162 24 l-128 3 0 152 c0 83 7 210 15 281 34 297 30 549 -16 988 l-20 198 26 102 c34 131 69 210 112 247 43 38 71 38 150 0z"></path>
            <path id="pY68AsUgC" d="M2549 2591 c-114 -36 -242 -147 -292 -252 -55 -117 -58 -217 -17 -624 15 -147 22 -292 23 -435 1 -253 -13 -352 -75 -530 -97 -281 -109 -333 -89 -405 16 -60 77 -133 156 -187 73 -49 274 -158 294 -158 18 0 44 61 32 73 -7 7 -11 60 -11 138 0 107 3 130 18 149 26 32 89 40 221 28 93 -8 115 -8 123 3 14 21 2 474 -17 644 -23 200 -16 484 20 837 l27 268 -31 121 c-33 132 -72 225 -116 278 -59 69 -155 88 -266 52z m164 -121 c43 -37 78 -116 112 -247 l26 -102 -20 -198 c-46 -439 -50 -691 -16 -988 8 -71 15 -198 15 -281 l0 -152 -127 -3 c-107 -3 -134 -7 -163 -24 -59 -35 -74 -73 -75 -196 l0 -107 -40 20 c-64 32 -162 106 -190 142 -41 54 -41 82 0 197 125 350 140 439 132 819 -4 160 -15 356 -26 470 -39 372 -24 450 108 573 56 52 160 107 203 107 16 0 41 -12 61 -30z"></path>
        </g>
    </g>
    <g id="l65vs50XxXSUsJxX9jDtdLo" fill="rgb(216,124,117)" style="transform: none;">
        <g>
            <path id="pjoj8y9qG" d="M266 2529 c-68 -19 -116 -100 -160 -273 -31 -118 -31 -130 -6 -366 44 -424 48 -630 15 -925 -8 -71 -15 -213 -15 -315 l0 -185 127 0 c145 0 181 -12 217 -75 18 -30 20 -50 18 -157 -1 -68 1 -123 4 -123 16 0 184 101 232 140 104 84 115 150 56 315 -123 341 -139 440 -130 795 4 140 15 329 25 420 35 320 26 465 -33 559 -76 119 -256 217 -350 190z"></path>
            <path id="pFObJQN73" d="M2614 2530 c-92 -19 -216 -106 -270 -191 -59 -94 -68 -239 -33 -559 10 -91 21 -280 25 -420 9 -355 -7 -454 -130 -795 -59 -165 -48 -231 56 -315 48 -39 216 -140 232 -140 3 0 5 55 4 123 -2 107 0 127 18 157 36 63 72 75 217 75 l127 0 0 185 c0 102 -7 244 -15 315 -33 295 -29 501 15 925 11 102 20 204 20 226 0 54 -44 223 -77 297 -26 57 -81 117 -108 117 -7 0 -19 2 -27 4 -7 2 -32 0 -54 -4z"></path>
        </g>
    </g>
</svg>