<svg class="img-fluid" id="outputsvg" xmlns="http://www.w3.org/2000/svg" style="transform: none; transform-origin: 50% 50% 0px; cursor: move; transition: none 0s ease 0s;" width="131" height="397" viewBox="0 0 1310 3970">
    <g id="liyhxPkrfSzkags055Wk3b" fill="rgb(0,0,0)" style="transform: none;">
        <g>
            <path id="plk5FzrkU" d="M534 3865 c-198 -203 -309 -407 -389 -720 -106 -413 -163 -1107 -137 -1662 32 -678 131 -1007 381 -1267 88 -91 245 -216 271 -216 26 0 183 125 271 216 200 209 298 456 356 899 15 120 18 214 18 665 0 572 -10 720 -71 1080 -81 481 -202 753 -448 1005 -74 76 -108 105 -126 105 -18 0 -52 -29 -126 -105z m291 -225 c97 -126 164 -267 229 -483 34 -112 42 -147 32 -147 -3 0 -50 11 -106 25 -56 13 -139 27 -186 31 l-84 7 0 351 1 351 35 -40 c20 -22 55 -65 79 -95z m-225 -224 l0 -343 -80 -7 c-45 -4 -126 -18 -181 -32 -55 -13 -102 -24 -105 -24 -10 0 -2 35 32 147 70 233 138 369 259 521 37 45 68 82 71 82 2 0 4 -155 4 -344z m-5 -1065 c-3 -3 -108 -21 -233 -41 l-227 -36 -3 29 c-6 53 59 571 73 585 9 9 270 72 327 79 l63 8 3 -309 c1 -170 0 -312 -3 -315z m265 603 c70 -14 249 -60 256 -66 12 -12 74 -497 74 -579 l0 -36 -207 33 c-115 18 -223 36 -240 39 l-33 6 0 314 0 314 38 -5 c20 -3 71 -12 112 -20z m114 -749 c120 -19 221 -37 224 -40 3 -3 8 -138 10 -299 l5 -294 -69 -21 c-209 -61 -308 -75 -396 -58 l-38 8 0 373 0 373 23 -4 c12 -2 120 -19 241 -38z m-374 -334 l0 -370 -22 -7 c-68 -22 -195 -3 -402 57 l-69 21 5 294 c2 161 7 296 10 299 7 7 401 72 446 74 l32 1 0 -369z m-356 -448 c83 -22 124 -27 228 -27 l128 -1 0 -332 0 -333 -25 -16 c-38 -25 -80 -13 -241 65 l-142 69 -16 74 c-21 98 -43 271 -51 393 -3 55 -8 111 -11 124 -4 19 -2 22 12 17 9 -3 62 -18 118 -33z m962 15 c-3 -13 -8 -68 -11 -123 -8 -122 -30 -295 -51 -393 l-16 -74 -143 -70 c-171 -83 -212 -92 -249 -55 l-26 26 0 323 0 323 138 1 c120 1 150 5 242 32 58 16 108 30 113 31 4 0 5 -9 3 -21z m-787 -819 c31 -11 82 -19 118 -19 l63 0 0 -205 c0 -185 -2 -205 -16 -197 -37 21 -175 167 -219 233 -46 68 -125 230 -125 257 0 8 22 1 62 -19 35 -18 87 -40 117 -50z m623 -27 c-21 -49 -61 -122 -87 -161 -45 -66 -171 -200 -222 -236 l-23 -16 0 210 0 211 68 0 c75 0 141 19 237 68 33 16 61 26 63 21 2 -5 -14 -49 -36 -97z"></path>
        </g>
    </g>
    <g id="l6nwr1lSDtWrNXI2b5NGCjO" fill="rgb(216,124,117)" style="transform: none;">
        <g>
            <path id="p131MsTIMN" d="M680 3453 l0 -410 85 -7 c47 -4 149 -23 227 -42 77 -19 143 -33 145 -31 14 15 -88 356 -142 471 -61 134 -167 286 -269 386 l-46 44 0 -411z"></path>
            <path id="p1AUC8C8Nm" d="M567 3790 c-154 -166 -237 -310 -311 -540 -38 -115 -79 -280 -73 -287 2 -2 67 12 144 31 77 19 177 38 222 41 l81 8 0 403 c0 222 -2 404 -4 404 -2 0 -29 -27 -59 -60z"></path>
            <path id="p9jQYYDMg" d="M502 2999 c-59 -9 -319 -73 -327 -81 -12 -12 -60 -386 -79 -616 -6 -71 -6 -72 16 -67 13 3 124 21 248 40 124 19 235 37 248 40 l22 5 0 345 0 345 -32 -1 c-18 -1 -61 -6 -96 -10z"></path>
            <path id="p17hNrAh8f" d="M680 2666 l0 -344 28 -6 c15 -3 128 -22 252 -41 124 -19 235 -37 248 -40 22 -5 22 -4 16 67 -19 230 -67 604 -79 616 -2 3 -61 19 -132 37 -120 31 -254 55 -309 55 l-24 0 0 -344z"></path>
            <path id="pzTQgs3lu" d="M680 1880 l0 -409 38 -8 c20 -4 78 -8 127 -7 87 1 157 15 329 65 l68 21 -4 323 c-2 179 -7 327 -10 330 -3 3 -120 24 -259 45 -140 22 -262 42 -271 44 -17 4 -18 -20 -18 -404z"></path>
            <path id="pgqELAm7s" d="M336 2240 c-131 -22 -241 -42 -244 -45 -3 -3 -8 -151 -10 -330 l-4 -323 68 -21 c179 -52 241 -64 334 -65 52 0 107 3 123 7 l27 7 0 405 0 405 -27 -1 c-16 0 -135 -18 -267 -39z"></path>
            <path id="pYI5Gcv9z" d="M80 1486 c0 -114 40 -473 66 -594 l16 -74 141 -69 c77 -37 164 -74 193 -80 45 -10 57 -9 90 7 l39 19 3 368 2 367 -93 -6 c-102 -7 -174 4 -355 54 l-102 29 0 -21z"></path>
            <path id="p3o3gnbca" d="M1115 1473 c-169 -47 -255 -59 -354 -47 l-81 9 0 -358 0 -358 24 -24 c54 -54 127 -40 336 65 l119 59 15 73 c28 132 78 602 65 612 -2 1 -58 -13 -124 -31z"></path>
            <path id="p1cu6d5ut" d="M199 688 c55 -162 123 -286 208 -381 41 -46 153 -149 194 -178 l29 -20 0 276 0 276 -30 -16 c-60 -31 -133 -14 -307 74 -57 28 -107 51 -112 51 -5 0 3 -37 18 -82z"></path>
            <path id="phX1GUZjN" d="M1025 718 c-177 -90 -251 -106 -312 -68 l-33 20 0 -286 0 -286 53 42 c149 117 266 258 329 397 47 104 89 233 75 232 -7 0 -57 -23 -112 -51z"></path>
        </g>
    </g>
</svg>