<svg class="img-fluid" id="outputsvg" xmlns="http://www.w3.org/2000/svg" style="transform: none; transform-origin: 50% 50% 0px; cursor: move; transition: none 0s ease 0s;" width="249" height="259" viewBox="0 0 2490 2590">
    <g id="l5DcwEQKxO3VBiUp1nzdvHr" fill="rgb(0,0,0)" style="transform: none;">
        <g>
            <path id="p19X36kjI1" d="M1665 2527 c-65 -71 -117 -170 -146 -277 -17 -61 -22 -116 -26 -290 -7 -293 11 -493 128 -1380 17 -129 32 -289 34 -355 4 -152 3 -145 18 -145 6 0 25 -18 40 -40 28 -39 50 -50 62 -30 3 5 12 7 19 4 17 -6 65 101 120 267 l41 125 18 -87 c21 -107 70 -235 89 -230 7 1 23 4 35 5 20 1 33 27 99 186 212 512 268 709 289 1010 13 191 -39 879 -70 926 -8 13 -26 31 -39 39 -13 9 -42 42 -65 74 -61 87 -103 121 -152 121 -35 0 -47 -7 -99 -58 l-59 -57 -140 127 -140 127 -56 -62z m184 -217 l84 -75 -6 -615 c-8 -829 -26 -1019 -125 -1315 l-37 -110 -7 115 c-4 63 -29 291 -57 505 -113 870 -130 1135 -86 1344 19 90 40 146 77 208 37 61 17 68 157 -57z m427 -120 l53 -55 21 -230 c61 -666 40 -823 -192 -1410 -80 -201 -77 -200 -97 -37 -16 125 -14 253 10 674 17 303 20 434 15 698 -3 179 -9 341 -12 360 -5 32 -1 41 41 88 l47 53 31 -43 c17 -24 54 -68 83 -98z"></path>
            <path id="pcGGYID7m" d="M616 2451 l-129 -118 -35 39 c-19 21 -48 48 -64 59 l-29 21 -97 -73 c-53 -40 -120 -96 -148 -124 -58 -57 -54 -40 -79 -305 -71 -749 -41 -946 259 -1670 66 -159 79 -185 99 -186 12 -1 28 -4 35 -5 19 -5 68 123 89 230 l18 87 41 -125 c55 -166 103 -273 120 -267 7 3 16 1 19 -4 12 -20 34 -9 62 30 15 22 34 40 41 40 14 0 13 -7 17 145 2 66 17 226 34 355 117 887 135 1087 128 1380 -7 312 -38 412 -166 535 -40 39 -76 71 -79 72 -4 1 -65 -51 -136 -116z m225 -170 c86 -229 77 -472 -52 -1466 -28 -214 -53 -442 -57 -505 l-7 -115 -37 110 c-99 297 -117 486 -125 1316 l-6 615 104 92 103 92 28 -43 c15 -23 37 -66 49 -96z m-425 -90 c-3 -20 -9 -182 -12 -361 -5 -264 -2 -395 15 -698 24 -421 26 -549 10 -674 -20 -163 -17 -164 -97 37 -232 587 -254 746 -192 1410 l22 230 56 60 c32 33 68 77 82 98 l25 38 48 -52 c44 -47 48 -56 43 -88z"></path>
        </g>
    </g>
    <g id="l1ofD82L3NHahO0PKnMY4XD" fill="rgb(225,121,113)" style="transform: none;">
        <g>
            <path id="prx9JEpdN" d="M646 2373 l-118 -107 5 -645 c6 -656 15 -848 52 -1060 26 -148 72 -304 124 -422 l19 -41 15 23 c10 17 16 65 20 154 4 72 29 301 56 510 121 921 136 1214 76 1450 -19 74 -65 169 -102 212 l-28 33 -119 -107z"></path>
            <path id="p8cQffJED" d="M1690 2439 c-66 -89 -102 -196 -120 -349 -25 -219 -2 -521 101 -1305 27 -209 52 -438 56 -510 4 -89 10 -137 20 -154 l15 -23 19 41 c52 118 98 274 124 422 37 212 46 404 52 1059 l5 645 -88 80 c-49 43 -103 92 -121 108 l-31 29 -32 -43z"></path>
            <path id="ptFqY6X3h" d="M309 2367 c-8 -7 -28 -30 -44 -52 -16 -22 -52 -65 -81 -95 l-53 -55 -21 -225 c-11 -124 -24 -318 -27 -431 -12 -398 23 -554 245 -1107 l77 -193 14 33 c53 131 61 364 31 908 -22 398 -24 793 -4 1030 l6 75 -47 53 c-57 63 -75 74 -96 59z"></path>
            <path id="p12aVuPd0f" d="M2098 2320 l-61 -62 7 -76 c19 -240 18 -634 -4 -1032 -30 -544 -22 -777 31 -908 l14 -33 77 193 c164 409 216 580 239 787 16 147 7 451 -21 751 l-22 225 -56 60 c-32 33 -68 76 -81 96 -46 69 -56 69 -123 -1z"></path>
        </g>
    </g>
</svg>