<svg class="img-fluid" id="outputsvg" xmlns="http://www.w3.org/2000/svg" style="transform: none; transform-origin: 50% 50% 0px; cursor: move; transition: none 0s ease 0s;" width="288" height="107" viewBox="0 0 2880 1070">
    <g id="l2ioFHLCFvBKL4FOr5Q8ftN" fill="rgb(0,0,0)" style="transform: none;">
        <g>
            <path id="p16lYndnIS" d="M85 1054 c-11 -8 -19 -20 -17 -25 1 -5 -2 -9 -7 -9 -32 0 -67 -223 -56 -354 7 -78 10 -85 73 -181 87 -133 255 -300 374 -373 223 -137 357 -135 492 7 58 61 58 63 52 108 -3 24 -14 64 -25 88 -35 80 -86 118 -289 216 -103 50 -215 110 -248 135 -78 55 -153 141 -238 269 -96 146 -87 137 -111 119z m67 -236 c52 -79 163 -194 230 -240 33 -22 142 -80 243 -129 152 -74 190 -96 223 -134 59 -67 61 -90 15 -137 -51 -52 -114 -82 -157 -74 -56 11 -187 80 -273 145 -99 75 -182 163 -263 282 -48 70 -62 99 -67 139 -6 50 -27 69 -36 33 -3 -10 -5 5 -5 32 0 28 2 42 5 33 2 -10 11 -18 19 -18 10 0 14 14 14 53 0 45 5 67 15 67 1 0 18 -24 37 -52z m158 -123 c30 -30 52 -55 49 -55 -2 0 -29 25 -59 55 -30 30 -52 55 -49 55 2 0 29 -25 59 -55z m150 -122 c0 -7 -61 31 -73 46 -7 8 7 2 31 -14 23 -15 42 -30 42 -32z m176 -91 c-5 -4 -166 76 -166 83 0 3 38 -14 85 -37 46 -23 83 -44 81 -46z m124 -52 c33 -17 60 -33 60 -35 0 -5 -119 52 -129 61 -13 12 16 1 69 -26z m110 -75 c19 -19 32 -35 29 -35 -3 0 -20 16 -39 35 -19 19 -32 35 -29 35 3 0 20 -16 39 -35z m-575 -35 c33 -33 57 -60 54 -60 -2 0 -31 27 -64 60 -33 33 -57 60 -54 60 2 0 31 -27 64 -60z m635 -133 c0 -2 -19 -21 -42 -42 l-43 -40 40 43 c36 39 45 47 45 39z"></path>
            <path id="p14WxDCtRC" d="M2753 1043 c-122 -199 -213 -311 -306 -377 -34 -24 -146 -85 -249 -135 -203 -98 -254 -136 -289 -216 -11 -24 -22 -64 -25 -88 -6 -45 -6 -47 52 -108 135 -142 269 -144 492 -7 119 73 287 240 374 373 63 96 66 103 73 181 11 132 -24 354 -57 354 -5 0 -7 4 -4 9 3 5 -5 16 -19 25 -24 16 -25 15 -42 -11z m27 -239 c0 -40 4 -54 14 -54 8 0 17 8 19 18 3 9 5 -5 5 -33 0 -27 -2 -42 -5 -32 -9 36 -30 17 -36 -33 -11 -95 -176 -305 -330 -421 -86 -65 -217 -134 -273 -145 -43 -8 -106 22 -157 74 -46 47 -44 70 15 137 33 38 71 60 223 134 101 49 210 107 243 129 67 46 178 161 230 239 19 29 38 50 43 47 5 -3 9 -30 9 -60z m-150 -57 c0 -1 -26 -27 -57 -57 l-58 -55 55 58 c50 53 60 62 60 54z m-138 -129 c-6 -7 -25 -22 -44 -32 -39 -23 -32 -13 14 20 38 26 45 29 30 12z m-82 -53 c0 -6 -157 -85 -167 -84 -6 0 154 86 165 88 1 1 2 -1 2 -4z m-221 -109 c-10 -9 -129 -66 -129 -61 0 6 111 64 124 65 5 0 7 -2 5 -4z m-139 -69 c0 -2 -17 -19 -37 -38 l-38 -34 34 38 c33 34 41 42 41 34z m600 -10 c0 -1 -28 -29 -62 -62 l-63 -60 60 63 c55 58 65 67 65 59z m-655 -227 c21 -22 37 -40 34 -40 -3 0 -23 18 -44 40 -21 22 -37 40 -34 40 3 0 23 -18 44 -40z"></path>
        </g>
    </g>
    <g id="l7jWsMxOIe1NKV5ZYwXECyW" fill="rgb(225,121,113)" style="transform: none;">
        <g>
            <path id="pMkqk9mZ5" d="M86 923 c-14 -65 -19 -242 -7 -289 15 -62 101 -191 192 -288 118 -127 276 -230 398 -262 86 -22 134 -8 207 59 59 54 65 72 38 135 -29 70 -70 100 -279 202 -262 129 -351 202 -480 398 -26 39 -51 72 -55 72 -4 0 -10 -12 -14 -27z"></path>
            <path id="pkn2lyzi1" d="M2725 878 c-129 -196 -218 -269 -480 -398 -209 -102 -250 -132 -279 -202 -27 -63 -21 -81 38 -135 73 -67 121 -81 207 -59 122 32 280 135 398 262 91 97 177 226 192 288 17 70 1 316 -21 316 -4 0 -29 -33 -55 -72z"></path>
        </g>
    </g>
</svg>