<svg class="img-fluid" id="outputsvg" xmlns="http://www.w3.org/2000/svg" style="transform: none; transform-origin: 50% 50% 0px; cursor: move; transition: none 0s ease 0s;" width="277" height="215" viewBox="0 0 2770 2150">
    <g id="l2BAWH0eZFIQqWjWsUROGWq" fill="rgb(0,0,0)" style="transform: none;">
        <g>
            <path id="p1m5Ofkr8" d="M256 2139 c-3 -8 -57 -293 -121 -634 -63 -341 -120 -628 -125 -637 -13 -24 -6 -39 72 -155 114 -169 177 -220 543 -443 124 -76 190 -135 233 -210 28 -49 35 -54 67 -56 33 -1 38 3 84 75 122 191 167 313 211 566 32 191 61 297 116 434 25 62 34 100 34 142 l0 58 -76 64 c-90 78 -166 119 -334 182 -263 99 -374 182 -494 365 -48 72 -135 224 -142 247 0 2 -15 6 -32 9 -22 5 -33 2 -36 -7z m253 -489 c100 -99 169 -139 392 -225 165 -64 244 -106 313 -168 l49 -43 -45 -119 c-50 -132 -79 -245 -103 -405 -26 -169 -52 -258 -110 -375 -30 -60 -59 -116 -64 -124 -8 -12 -24 -1 -83 55 -54 51 -126 100 -268 184 -177 104 -204 124 -295 215 -55 55 -115 126 -134 158 l-34 59 92 491 c51 271 95 502 98 515 5 20 12 13 55 -55 28 -43 89 -116 137 -163z"></path>
            <path id="pRudXysva" d="M2460 2143 c-8 -2 -31 -36 -50 -75 -62 -125 -164 -269 -241 -343 -85 -81 -173 -130 -359 -200 -69 -26 -155 -63 -192 -82 -74 -39 -213 -153 -223 -183 -9 -30 4 -86 45 -195 57 -151 76 -223 110 -420 44 -254 89 -375 211 -566 46 -72 51 -76 84 -75 32 2 39 7 67 56 43 75 109 134 233 210 366 223 429 274 543 443 75 112 86 133 75 150 -5 7 -62 298 -128 647 -110 577 -123 635 -140 637 -11 0 -27 -1 -35 -4z m91 -790 l92 -491 -34 -59 c-19 -32 -79 -103 -134 -158 -91 -91 -118 -111 -295 -215 -142 -84 -214 -133 -268 -184 -59 -56 -75 -67 -83 -55 -5 8 -34 64 -64 124 -58 117 -84 206 -110 375 -24 160 -53 273 -103 405 l-45 119 49 43 c69 62 148 104 313 168 228 88 292 125 397 230 49 49 110 122 135 162 38 63 45 70 51 50 3 -12 48 -243 99 -514z"></path>
        </g>
    </g>
    <g id="l1r5DYdcZ6KNdwuvNuCWI5G" fill="rgb(225,121,113)" style="transform: none;">
        <g>
            <path id="paexwmNhn" d="M196 1416 l-109 -575 56 -84 c92 -137 192 -223 417 -357 192 -114 285 -186 341 -263 l28 -39 37 58 c95 148 146 293 179 504 29 193 72 339 159 551 5 12 -11 32 -56 71 -82 72 -143 105 -317 173 -233 90 -292 124 -401 235 -70 70 -111 123 -155 198 -33 56 -62 102 -65 102 -3 0 -55 -258 -114 -574z"></path>
            <path id="ptWLSeof8" d="M2395 1888 c-44 -75 -85 -128 -155 -198 -109 -111 -168 -145 -401 -235 -174 -68 -235 -101 -317 -173 -45 -39 -61 -59 -56 -71 87 -212 130 -358 159 -551 33 -211 84 -356 179 -504 l37 -58 28 39 c56 77 149 149 341 263 225 134 325 220 417 357 l56 84 -109 575 c-59 316 -111 574 -114 574 -3 0 -32 -46 -65 -102z"></path>
        </g>
    </g>
</svg>