<svg class="img-fluid" id="outputsvg" xmlns="http://www.w3.org/2000/svg" style="transform: none; transform-origin: 50% 50% 0px; cursor: move; transition: none 0s ease 0s;" width="87" height="119" viewBox="0 0 870 1190">
    <g id="l67GJCMg6nESMUJ54gDF6nB" fill="rgb(0,0,0)" style="transform: none;">
        <g>
            <path id="p1Jm3BcrB" d="M169 1183 c-12 -3 -18 -21 -22 -71 -11 -140 -26 -332 -37 -473 -10 -140 -36 -277 -78 -425 -40 -139 -43 -128 49 -174 50 -25 88 -39 99 -35 22 7 84 104 117 184 27 66 28 107 8 221 -15 85 -58 483 -70 655 -9 130 -11 133 -66 118z m40 -879 c1 -30 -53 -154 -68 -154 -4 0 6 55 23 122 31 123 41 130 45 32z"></path>
            <path id="poeZPcvym" d="M646 1173 c-2 -10 -7 -58 -11 -108 -12 -172 -55 -570 -70 -655 -20 -114 -19 -155 8 -221 33 -80 95 -177 117 -184 11 -4 49 10 99 35 92 46 89 35 49 174 -42 148 -68 285 -78 425 -11 141 -26 334 -37 473 -5 57 -9 67 -27 72 -34 9 -44 7 -50 -11z m62 -910 c16 -62 25 -113 21 -113 -4 0 -22 29 -40 65 -29 59 -31 69 -24 122 4 32 9 54 11 48 2 -5 16 -61 32 -122z"></path>
        </g>
    </g>
    <g id="l2cF08ZIGZ8bHqFZIzYj3Uf" fill="rgb(225,121,113)" style="transform: none;">
        <g>
            <path id="pyT3zvSwe" d="M178 540 c-14 -111 -43 -243 -84 -387 -5 -17 0 -25 25 -37 16 -9 34 -16 39 -16 5 0 26 33 46 73 41 81 46 121 26 223 -6 32 -17 109 -24 169 l-12 110 -16 -135z"></path>
            <path id="p3Uhx00mr" d="M667 592 c-4 -45 -14 -121 -23 -170 -24 -134 -21 -165 22 -249 20 -40 41 -73 46 -73 5 0 23 7 39 16 25 12 30 20 25 37 -40 138 -69 270 -81 370 -9 67 -17 129 -18 137 -2 8 -6 -22 -10 -68z"></path>
        </g>
    </g>
</svg>