<svg class="img-fluid" id="outputsvg" xmlns="http://www.w3.org/2000/svg" style="transform: none; transform-origin: 50% 50% 0px; cursor: move; transition: none 0s ease 0s;" width="73" height="275" viewBox="0 0 730 2750">
    <g id="l6GlK4UkY2Tf7me0SB9D0Pr" fill="rgb(0,0,0)" style="transform: none;">
        <g>
            <path id="pYr8f3y8p" d="M12 2743 c-6 -2 -9 -10 -5 -15 3 -6 12 -117 19 -247 31 -554 182 -2414 199 -2441 4 -6 14 -9 23 -5 8 3 25 -4 38 -16 19 -18 26 -20 38 -10 8 7 13 18 11 24 -6 16 -50 380 -69 572 -22 214 -34 393 -51 775 -28 611 -52 821 -143 1239 -26 121 -33 135 -60 124z"></path>
            <path id="pIHMSBfbO" d="M687 2743 c-3 -5 -21 -84 -40 -178 -85 -409 -105 -587 -132 -1185 -17 -382 -29 -561 -51 -775 -19 -192 -63 -556 -69 -572 -2 -6 3 -17 11 -24 12 -10 19 -8 38 10 13 12 30 19 38 16 9 -4 19 -1 23 5 17 27 168 1887 199 2441 7 130 16 241 19 246 4 6 0 14 -9 17 -20 8 -22 8 -27 -1z"></path>
        </g>
    </g>
    <g id="l3Jh0cvzQwnm4gtVc5Bgl3z" fill="rgb(225,121,113)" style="transform: none;">
        <g>
            <path id="p1GBntOVP7" d="M65 2400 c3 -41 15 -203 25 -360 22 -311 71 -921 125 -1538 28 -328 37 -397 51 -413 9 -11 19 -17 21 -15 2 2 -5 75 -16 162 -50 397 -64 567 -91 1134 -22 450 -31 575 -56 760 -17 129 -53 332 -60 340 -3 2 -3 -29 1 -70z"></path>
            <path id="pIouhB2es" d="M642 2358 c-50 -271 -65 -431 -92 -988 -27 -567 -41 -737 -91 -1134 -11 -87 -18 -160 -16 -162 2 -2 12 4 21 15 19 21 21 40 100 996 66 790 109 1375 102 1382 -2 2 -13 -47 -24 -109z"></path>
        </g>
    </g>
</svg>