<svg class="img-fluid" id="outputsvg" xmlns="http://www.w3.org/2000/svg" style="transform: none; transform-origin: 50% 50% 0px; cursor: move; transition: none 0s ease 0s;" width="149" height="223" viewBox="0 0 1490 2230">
    <g id="l1aRM4L3afAGiY4Kw95VWre" fill="rgb(0,0,0)" style="transform: none;">
        <g>
            <path id="pUZINjZ5w" d="M188 2208 c-44 -70 -72 -189 -112 -478 -24 -172 -28 -264 -31 -715 -2 -295 -7 -480 -18 -590 -9 -88 -17 -186 -19 -218 l-3 -58 148 -76 149 -76 23 29 c15 19 34 73 54 154 85 352 99 635 50 1032 -26 210 -44 311 -181 966 -12 58 -35 69 -60 30z m72 -643 c112 -587 118 -898 23 -1302 l-26 -112 -69 35 -68 34 1 43 c0 23 5 78 10 122 6 44 14 319 19 610 7 449 11 553 29 680 11 83 21 155 22 160 2 15 25 -90 59 -270z"></path>
            <path id="pDZzHSTXb" d="M1242 2178 c-137 -655 -155 -756 -181 -966 -49 -397 -35 -680 50 -1032 20 -81 39 -135 54 -154 l23 -29 149 76 148 76 -3 58 c-2 32 -10 130 -19 218 -11 110 -16 295 -18 590 -4 534 -8 597 -66 940 -38 233 -111 350 -137 223z m69 -499 c18 -131 22 -232 29 -684 5 -291 13 -566 19 -610 5 -44 10 -99 10 -122 l1 -43 -68 -34 -69 -35 -26 112 c-52 223 -61 297 -61 542 -1 229 6 304 44 540 25 150 93 496 97 492 1 -2 12 -73 24 -158z"></path>
        </g>
    </g>
    <g id="l4OiZRlYocnuJmE75vMfIpm" fill="rgb(225,121,113)" style="transform: none;">
        <g>
            <path id="pGaGiVj7Q" d="M196 1999 c-3 -8 -12 -59 -21 -114 -43 -272 -47 -327 -55 -850 -5 -345 -13 -574 -24 -679 -9 -88 -15 -161 -13 -162 13 -11 190 -94 194 -90 9 9 53 193 75 316 19 108 22 160 23 385 0 268 -5 329 -51 600 -26 156 -113 597 -120 604 -2 2 -6 -2 -8 -10z"></path>
            <path id="pLq25xPVz" d="M1256 1878 c-82 -402 -119 -624 -137 -828 -16 -183 -7 -480 20 -633 21 -116 65 -304 74 -313 4 -4 181 79 194 90 2 1 -4 74 -13 162 -11 105 -19 334 -24 679 -6 376 -13 552 -24 635 -25 188 -48 324 -56 333 -4 4 -19 -52 -34 -125z"></path>
        </g>
    </g>
</svg>