<svg class="img-fluid" id="outputsvg" xmlns="http://www.w3.org/2000/svg" style="transform: matrix(1, 0, 0, 1, 2, -1); transform-origin: 50% 50% 0px; cursor: move; transition: none 0s ease 0s;" width="230" height="308" viewBox="0 0 2300 3080">
    <g id="l6hJ5JSLVrD38mQEy5fleLn" fill="rgb(0,0,0)" style="transform: none;">
        <g>
            <path id="p15NMtsw6J" d="M133 3073 c-18 -7 -16 -68 7 -258 58 -491 55 -424 30 -643 -12 -108 -41 -334 -65 -502 -93 -649 -99 -708 -99 -935 l0 -210 64 -97 c36 -54 87 -136 115 -184 55 -96 198 -250 218 -237 7 5 23 8 37 8 l25 0 24 220 c20 187 24 276 25 590 1 249 -3 404 -12 475 -34 278 -84 569 -153 888 -22 103 -42 203 -45 222 -10 82 -141 664 -150 666 -5 1 -15 0 -21 -3z m186 -1306 c85 -463 112 -787 93 -1113 -13 -208 -29 -399 -38 -442 -4 -22 -7 -20 -43 25 -21 26 -58 84 -83 128 -24 44 -66 114 -92 156 l-47 76 0 130 c0 150 20 331 96 864 30 212 55 401 56 420 l1 34 8 -28 c5 -15 27 -128 49 -250z"></path>
            <path id="pY3FvBd3t" d="M2185 3058 c-17 -46 -138 -451 -159 -533 -56 -218 -156 -721 -195 -985 -43 -289 -46 -337 -45 -715 1 -314 5 -403 25 -590 l24 -220 25 0 c14 0 30 -3 37 -8 20 -13 163 141 218 237 28 48 79 130 114 184 l65 97 0 205 c1 224 -1 243 -89 870 -30 212 -64 469 -75 572 -24 210 -23 220 40 538 24 123 38 208 54 327 2 12 -3 24 -11 27 -20 8 -23 8 -28 -6z m-90 -1468 c76 -536 96 -714 96 -863 l0 -130 -47 -76 c-26 -42 -68 -112 -92 -156 -25 -44 -62 -102 -83 -128 -45 -57 -42 -62 -58 108 -38 403 -38 633 0 960 31 277 121 774 127 705 2 -19 27 -208 57 -420z"></path>
        </g>
    </g>
    <g id="l2tpNIQyw4SCH7HXb3FGL3Z" fill="rgb(225,121,113)" style="transform: none;">
        <g>
            <path id="p14GJYC8iW" d="M241 2124 c-6 -66 -39 -308 -71 -539 -79 -566 -92 -684 -92 -863 l-1 -152 48 -78 c27 -42 70 -115 96 -162 49 -86 151 -220 169 -220 6 0 10 6 10 14 0 8 6 76 14 152 64 615 41 1003 -105 1729 -22 110 -43 208 -47 219 -5 11 -13 -26 -21 -100z"></path>
            <path id="pzkI3Beo6" d="M2037 2225 c-3 -11 -24 -110 -46 -220 -146 -722 -169 -1114 -105 -1729 8 -76 14 -144 14 -152 0 -8 4 -14 10 -14 18 0 120 134 169 220 26 47 69 120 96 162 l48 78 -1 152 c0 176 -14 307 -83 798 -28 195 -61 438 -73 540 -12 102 -25 176 -29 165z"></path>
        </g>
    </g>
</svg>