<svg class="img-fluid" id="outputsvg" xmlns="http://www.w3.org/2000/svg" style="transform: none; transform-origin: 50% 50% 0px; cursor: move; transition: none 0s ease 0s;" width="225" height="159" viewBox="0 0 2250 1590">
    <g id="l774qC2b0ofono2LixuZm1G" fill="rgb(0,0,0)" style="transform: none;">
        <g>
            <path id="pDl580VCf" d="M46 1558 c-3 -16 -10 -260 -16 -541 -6 -282 -15 -607 -20 -722 -13 -284 -13 -295 5 -295 9 0 18 6 20 13 7 17 80 556 109 792 21 183 22 206 10 270 -8 39 -27 169 -42 289 -23 181 -30 220 -44 222 -11 1 -18 -8 -22 -28z"></path>
            <path id="pE1ardM70" d="M2166 1578 c-3 -7 -16 -111 -31 -232 -15 -120 -33 -246 -40 -280 -11 -53 -10 -86 11 -261 29 -237 102 -775 109 -792 2 -7 11 -13 20 -13 18 0 18 11 5 295 -5 115 -14 442 -20 725 -6 283 -14 526 -18 540 -8 27 -30 38 -36 18z"></path>
            <path id="pMiaBtpYd" d="M667 1538 c-108 -173 -225 -404 -262 -518 -24 -73 -29 -106 -33 -230 -3 -124 0 -167 22 -300 38 -224 39 -225 61 -225 17 0 22 17 41 150 26 175 48 264 114 470 53 166 73 266 90 455 18 189 6 260 -33 198z m-56 -358 c-12 -69 -44 -193 -75 -288 -30 -92 -61 -195 -67 -230 -19 -91 -33 -54 -33 88 0 91 5 133 23 198 23 81 157 369 167 359 3 -3 -4 -60 -15 -127z"></path>
            <path id="pu1BEJftM" d="M1547 1554 c-16 -17 0 -255 29 -429 9 -49 37 -157 64 -240 66 -206 88 -295 114 -470 19 -133 24 -150 41 -150 22 0 23 1 61 225 22 133 25 176 22 300 -4 124 -9 157 -33 230 -30 93 -121 279 -212 434 -56 96 -72 114 -86 100z m158 -397 c86 -175 109 -260 109 -407 0 -142 -14 -179 -33 -88 -6 35 -37 138 -67 230 -44 135 -95 357 -94 411 0 19 18 -11 85 -146z"></path>
        </g>
    </g>
    <g id="l1RvDBiWJPMH77uroKLtWix" fill="rgb(225,121,113)" style="transform: none;">
        <g>
            <path id="piK1MyS0E" d="M601 1353 c-192 -342 -226 -492 -181 -792 21 -142 39 -209 40 -147 0 64 54 291 105 448 30 91 64 217 74 280 20 117 38 318 28 318 -3 0 -32 -48 -66 -107z"></path>
            <path id="pyxmR11GO" d="M1584 1358 c12 -167 42 -319 101 -496 51 -157 105 -384 105 -448 1 -62 19 5 40 147 37 243 17 391 -76 589 -50 106 -163 310 -171 310 -3 0 -3 -46 1 -102z"></path>
            <path id="pb56Een3L" d="M67 1160 c-4 -113 -8 -331 -10 -485 -3 -315 -4 -316 48 113 l25 203 -20 127 c-11 70 -24 154 -28 187 -7 50 -10 24 -15 -145z"></path>
            <path id="pg5gDMuIe" d="M2167 1300 c-4 -36 -17 -120 -27 -187 l-20 -121 25 -204 c52 -431 51 -429 47 -47 -2 189 -7 407 -11 484 -6 132 -7 136 -14 75z"></path>
        </g>
    </g>
</svg>