<svg class="img-fluid" id="outputsvg" xmlns="http://www.w3.org/2000/svg" style="transform: none; transform-origin: 50% 50% 0px; cursor: move; transition: none 0s ease 0s;" width="186" height="44" viewBox="0 0 1860 440">
    <g id="l3XMeFSUc3puT0pQ9F4OuBD" fill="rgb(0,0,0)" style="transform: none;">
        <g>
            <path id="pwzd5fG6N" d="M168 410 c-26 -75 -88 -189 -125 -228 l-40 -43 15 -62 c8 -34 18 -66 22 -71 11 -12 107 42 135 76 14 16 29 45 35 66 14 53 13 265 -2 280 -19 19 -28 14 -40 -18z"></path>
            <path id="pETirEqDw" d="M1652 428 c-15 -15 -16 -227 -2 -280 6 -21 21 -50 35 -66 28 -34 124 -88 135 -76 4 5 14 37 22 71 l15 62 -40 43 c-37 39 -99 153 -125 228 -12 32 -21 37 -40 18z"></path>
        </g>
    </g>
    <g id="l3WCqkFRYVvmeZ28ftlCLaG" fill="rgb(225,121,113)" style="transform: none;">
        <g>
            <path id="px9MSiI7D" d="M153 282 c-17 -37 -49 -88 -71 -112 -37 -42 -38 -46 -29 -82 5 -21 12 -38 16 -38 18 0 83 54 96 80 14 27 35 220 24 220 -2 0 -19 -31 -36 -68z"></path>
            <path id="plIoBPJsE" d="M1674 258 c3 -59 12 -110 21 -128 13 -26 78 -80 96 -80 4 0 11 17 16 38 9 36 8 40 -29 82 -21 24 -54 75 -74 114 l-35 71 5 -97z"></path>
        </g>
    </g>
</svg>