<svg class="img-fluid" id="outputsvg" xmlns="http://www.w3.org/2000/svg" style="transform: none; transform-origin: 50% 50% 0px; cursor: move; transition: none 0s ease 0s;" width="130" height="73" viewBox="0 0 1300 730">
    <g id="l47vFdZ5CsjbrfIEyx688lV" fill="rgb(0,0,0)" style="transform: none;">
        <g>
            <path id="p6tR9YKsK" d="M27 703 l-25 -25 20 -72 c18 -61 20 -91 16 -206 -3 -74 -2 -161 1 -194 l6 -58 142 -74 c140 -73 144 -74 217 -74 116 0 116 0 164 137 41 117 69 250 58 279 -4 10 -22 14 -58 14 -83 1 -171 23 -233 61 -31 19 -108 80 -170 136 l-112 101 -26 -25z m180 -270 c74 -56 165 -95 239 -101 35 -2 64 -8 64 -12 0 -20 -73 -206 -83 -212 -19 -12 -56 1 -169 61 -63 33 -110 64 -114 75 -6 19 5 226 12 226 2 0 25 -16 51 -37z"></path>
            <path id="ppbKtiTr7" d="M1134 626 c-62 -55 -138 -116 -169 -135 -62 -38 -150 -60 -233 -61 -36 0 -54 -4 -58 -14 -11 -29 17 -162 58 -279 48 -137 48 -137 164 -137 73 0 77 1 217 74 l142 74 6 58 c3 33 4 120 1 194 -4 116 -2 145 16 207 l20 71 -27 25 -26 24 -111 -101z m21 -260 c4 -57 4 -112 1 -122 -4 -11 -51 -42 -114 -75 -113 -60 -150 -73 -169 -61 -10 6 -83 192 -83 212 0 4 30 10 66 13 73 5 182 53 244 106 19 17 38 30 42 31 3 0 9 -47 13 -104z"></path>
        </g>
    </g>
    <g id="l1iYcsM3XtamfDLcbFOVb6p" fill="rgb(225,121,113)" style="transform: none;">
        <g>
            <path id="p10pjYcYqz" d="M112 391 c-1 -97 1 -181 5 -187 15 -21 219 -123 260 -130 79 -12 86 -6 126 108 19 57 38 120 42 141 l6 37 -49 0 c-99 0 -215 55 -329 156 l-58 51 -3 -176z"></path>
            <path id="pQ6c0rlVc" d="M1127 516 c-109 -99 -226 -155 -325 -156 l-53 0 6 -37 c4 -21 23 -84 42 -141 40 -114 47 -120 126 -108 41 7 245 109 260 130 4 6 6 91 5 188 -2 98 -3 178 -3 177 0 0 -26 -24 -58 -53z"></path>
        </g>
    </g>
</svg>