<svg class="img-fluid" id="outputsvg" xmlns="http://www.w3.org/2000/svg" style="transform: none; transform-origin: 50% 50% 0px; cursor: move; transition: none 0s ease 0s;" width="122" height="97" viewBox="0 0 1220 970">
    <g id="l2ni9CQV4CnQZU8UISKayuc" fill="rgb(0,0,0)" style="transform: none;">
        <g>
            <path id="ptjjvbf7w" d="M8 912 c-1 -31 -2 -250 -2 -485 l-1 -428 38 3 c38 3 40 5 69 73 55 130 60 167 65 477 5 277 4 288 -15 320 -31 51 -74 84 -115 91 l-37 6 -2 -57z"></path>
            <path id="p13oJZP2xE" d="M1167 963 c-34 -5 -79 -43 -109 -91 -19 -32 -20 -43 -15 -320 5 -310 10 -347 65 -477 29 -68 31 -70 69 -73 l38 -3 -1 428 c-1 499 -1 544 -11 542 -5 -1 -21 -4 -36 -6z"></path>
        </g>
    </g>
    <g id="l1DD24dtPNUA4WIQkv9ssaO" fill="rgb(225,121,113)" style="transform: none;">
        <g>
            <path id="p11sGplEAD" d="M77 777 c-3 -39 -2 -121 3 -182 5 -60 10 -150 11 -200 l2 -90 7 70 c14 130 11 438 -4 457 -11 16 -14 8 -19 -55z"></path>
            <path id="pZXcxY6OK" d="M1123 830 c-14 -22 -16 -329 -3 -455 l7 -70 1 80 c1 44 6 139 11 210 5 72 7 158 3 193 -6 55 -8 60 -19 42z"></path>
        </g>
    </g>
</svg>