<svg class="img-fluid" id="outputsvg" xmlns="http://www.w3.org/2000/svg" style="transform: none; transform-origin: 50% 50% 0px; cursor: move; transition: none 0s ease 0s;" width="96" height="91" viewBox="0 0 960 910">
    <g id="l3HFE1nHyjn6i9GYfgNUMpr" fill="rgb(0,0,0)" style="transform: none;">
        <g>
            <path id="pXmQIFn7X" d="M39 895 c-25 -14 -27 -18 -33 -132 -9 -154 4 -237 60 -398 25 -72 61 -175 78 -230 46 -139 43 -135 82 -135 l34 0 0 223 c0 236 -7 302 -41 409 -22 70 -127 269 -144 274 -6 2 -22 -3 -36 -11z"></path>
            <path id="pvGLbBI2l" d="M839 839 c-54 -92 -93 -180 -114 -254 -14 -48 -19 -115 -22 -322 l-5 -263 35 0 c40 0 37 -4 83 135 17 55 53 158 78 230 56 161 69 244 60 398 -7 116 -7 118 -35 132 -15 8 -30 15 -33 15 -3 0 -24 -32 -47 -71z"></path>
        </g>
    </g>
    <g id="laCVNH1Zogn2d0J8bCasFd" fill="rgb(225,121,113)" style="transform: none;">
        <g>
            <path id="pkBbridwO" d="M81 669 c-1 -99 20 -191 73 -324 l36 -90 -5 110 c-7 143 -25 225 -68 316 l-35 74 -1 -86z"></path>
            <path id="p1Bw6WVLqo" d="M841 680 c-42 -94 -59 -175 -66 -315 l-5 -110 36 90 c55 137 75 229 72 326 l-3 84 -34 -75z"></path>
        </g>
    </g>
</svg>