<svg class="img-fluid" id="outputsvg" xmlns="http://www.w3.org/2000/svg" style="transform: matrix(1, 0, 0, 1, 0, -1); transform-origin: 50% 50% 0px; cursor: move; transition: none 0s ease 0s;" width="340" height="414" viewBox="0 0 3400 4140">
    <g id="l3lx7LUzfeiDK4j1kMtimbd" fill="rgb(0,0,0)" style="transform: none;">
        <g>
            <path id="pPqWHlygv" d="M465 4129 c-11 -33 -101 -372 -151 -574 -122 -490 -174 -820 -174 -1104 0 -65 -15 -209 -40 -390 -152 -1102 -138 -1403 91 -1919 45 -102 67 -141 77 -137 7 3 25 5 38 5 l24 0 0 133 c0 181 16 347 48 507 23 118 27 159 26 320 0 208 -14 305 -98 673 -63 274 -80 439 -80 772 0 293 8 381 65 675 44 223 71 340 156 660 94 354 97 369 91 375 -2 3 -19 8 -36 11 -22 5 -33 2 -37 -7z m-247 -2611 c94 -433 103 -555 58 -798 -15 -80 -32 -194 -39 -254 l-12 -110 -33 99 c-57 166 -73 267 -79 491 -3 118 -1 257 6 335 18 211 44 429 51 429 4 0 25 -87 48 -192z"></path>
            <path id="pJLAUeZ6k" d="M2878 4133 c-21 -5 -22 -23 -8 -73 26 -87 161 -606 184 -705 97 -428 120 -610 120 -940 0 -333 -17 -498 -80 -772 -84 -368 -98 -465 -98 -673 -1 -161 3 -202 26 -320 32 -160 48 -326 48 -507 l0 -133 24 0 c13 0 31 -2 38 -5 10 -4 32 35 77 137 229 516 243 817 91 1919 -25 181 -40 325 -40 390 0 205 -30 451 -91 749 -28 134 -157 651 -212 850 -24 88 -32 96 -79 83z m375 -2570 c33 -290 39 -415 34 -617 -6 -224 -22 -325 -79 -491 l-33 -99 -12 110 c-7 60 -24 174 -39 254 -45 243 -36 365 58 798 23 105 44 192 48 192 4 0 14 -66 23 -147z"></path>
        </g>
    </g>
    <g id="l3JYnS2H11Pz1CDALmOKSwN" fill="rgb(216,124,117)" style="transform: none;">
        <g>
            <path id="psw1Fceoh" d="M161 1955 c-1 -11 -12 -108 -26 -215 -46 -366 -58 -536 -52 -790 6 -253 19 -348 72 -505 41 -124 87 -235 96 -235 5 0 9 39 9 88 0 107 13 213 47 397 49 258 35 443 -67 891 -42 181 -52 234 -69 334 -4 30 -9 46 -10 35z"></path>
            <path id="pBhyjVvQ5" d="M3226 1915 c-7 -69 -13 -95 -67 -334 -101 -444 -115 -629 -66 -886 34 -184 47 -290 47 -397 0 -49 4 -88 9 -88 19 0 114 270 143 410 29 137 36 512 14 750 -16 168 -63 574 -70 595 -2 6 -6 -17 -10 -50z"></path>
        </g>
    </g>
</svg>