<svg class="img-fluid" id="outputsvg" xmlns="http://www.w3.org/2000/svg" style="transform: none; transform-origin: 50% 50% 0px; cursor: move; transition: none 0s ease 0s;" width="253" height="145" viewBox="0 0 2530 1450">
    <g id="l3NstOWsMredV8oyDHObvBv" fill="rgb(0,0,0)" style="transform: none;">
        <g>
            <path id="p8A5scO3m" d="M525 1428 c-4 -13 -85 -183 -180 -378 -200 -410 -244 -515 -285 -674 -29 -114 -69 -351 -60 -359 3 -2 17 -7 32 -11 25 -6 29 -2 58 56 80 164 342 455 553 618 l98 75 -5 72 c-8 99 -28 194 -86 395 -27 94 -47 174 -44 179 7 13 -33 49 -55 49 -12 0 -22 -9 -26 -22z m64 -413 c16 -60 31 -129 35 -151 l6 -42 -98 -78 c-53 -42 -152 -132 -219 -200 l-121 -122 19 55 c29 85 121 287 232 508 94 188 101 198 109 170 5 -16 21 -79 37 -140z"></path>
            <path id="pTkLqSPjd" d="M1940 1430 c-12 -12 -18 -24 -16 -29 3 -5 -17 -85 -44 -179 -58 -201 -78 -296 -86 -395 l-5 -72 98 -75 c211 -163 473 -454 553 -618 29 -58 33 -62 58 -56 15 4 29 9 32 11 9 8 -31 245 -60 359 -41 159 -85 264 -285 674 -95 195 -176 365 -180 378 -8 28 -38 29 -65 2z m149 -447 c109 -220 201 -422 230 -506 l19 -55 -121 122 c-67 68 -166 158 -219 200 l-98 78 6 42 c4 22 20 93 36 156 17 63 33 125 35 138 3 12 7 22 9 22 2 0 48 -89 103 -197z"></path>
        </g>
    </g>
    <g id="l5XXewCs6PgQZOKbWlA4oQ1" fill="rgb(216,124,117)" style="transform: none;">
        <g>
            <path id="phIwjmX6M" d="M456 1105 c-146 -294 -244 -510 -281 -617 -35 -100 -69 -228 -62 -234 2 -2 32 33 67 78 82 107 259 283 383 382 112 90 110 85 78 241 -19 92 -78 302 -89 320 -4 6 -47 -71 -96 -170z"></path>
            <path id="pUFP3aa7e" d="M1960 1222 c-41 -131 -80 -294 -86 -361 l-6 -67 98 -79 c125 -100 301 -276 384 -383 35 -45 65 -80 67 -78 6 6 -15 90 -49 196 -39 121 -125 313 -271 607 l-116 233 -21 -68z"></path>
        </g>
    </g>
</svg>