<svg class="img-fluid" id="outputsvg" xmlns="http://www.w3.org/2000/svg" style="transform: matrix(1, 0, 0, 1, 0, -1); transform-origin: 50% 50% 0px; cursor: move; transition: none 0s ease 0s;" width="143" height="74" viewBox="0 0 1430 740">
    <g id="l2owjrRe1otBJ3DLfSTgmN6" fill="rgb(0,0,0)" style="transform: none;">
        <g>
            <path id="pim9pY0Tw" d="M10 720 c-8 -15 -4 -43 19 -122 48 -165 89 -334 112 -463 11 -66 23 -123 26 -128 8 -13 57 5 211 81 85 42 152 81 152 89 0 15 -36 57 -203 232 -65 68 -147 167 -183 221 -36 54 -72 101 -80 104 -27 11 -43 6 -54 -14z m340 -510 c0 -9 -92 -52 -97 -46 -3 2 -13 46 -22 96 l-18 92 68 -68 c38 -38 69 -71 69 -74z"></path>
            <path id="p1Hzcw8Jn" d="M1363 734 c-6 -3 -41 -49 -77 -103 -36 -55 -118 -153 -183 -222 -167 -175 -203 -217 -203 -232 0 -8 67 -47 153 -89 153 -76 202 -94 210 -81 3 5 15 62 26 128 23 129 64 298 112 463 23 79 27 107 19 122 -10 19 -31 24 -57 14z m-164 -475 c-9 -50 -19 -93 -22 -95 -4 -5 -83 31 -96 43 -4 3 128 143 135 143 0 0 -7 -41 -17 -91z"></path>
        </g>
    </g>
    <g id="l74j2NEhJNrRNENTs7Tl3KD" fill="rgb(216,124,117)" style="transform: none;">
        <g>
            <path id="ptIdQxqBU" d="M144 475 c18 -64 56 -234 66 -299 7 -42 16 -76 19 -75 3 0 48 22 100 48 l94 48 -113 119 c-170 179 -173 182 -166 159z"></path>
            <path id="p1028CH9c8" d="M1146 343 l-138 -147 93 -47 c52 -27 97 -48 100 -48 3 -1 12 34 19 76 7 42 25 129 40 192 16 64 27 117 26 118 -1 1 -64 -64 -140 -144z"></path>
        </g>
    </g>
</svg>