<svg class="img-fluid" id="outputsvg" xmlns="http://www.w3.org/2000/svg" style="transform: matrix(1, 0, 0, 1, 0, -2); transform-origin: 50% 50% 0px; cursor: move; transition: none 0s ease 0s;" width="283" height="408" viewBox="0 0 2830 4080">
    <g id="l29lKHJgaoADk874Jk1R3zZ" fill="rgb(0,0,0)" style="transform: none;">
        <g>
            <path id="pnU7aA0H2" d="M1124 3891 c-96 -268 -180 -475 -369 -911 -459 -1057 -602 -1491 -684 -2071 -46 -321 -82 -841 -63 -884 12 -25 44 -33 68 -17 14 8 83 120 120 193 14 29 32 58 39 65 6 7 15 52 18 101 13 180 56 366 124 538 20 50 98 221 173 380 150 316 214 463 283 656 155 428 265 933 402 1839 48 317 48 284 -2 290 l-42 6 -67 -185z m-94 -687 c-111 -636 -225 -1053 -397 -1459 -31 -71 -117 -261 -193 -421 -222 -469 -255 -574 -295 -946 -10 -90 -28 -72 -20 20 71 862 195 1292 717 2492 85 195 168 387 184 427 16 39 30 70 32 68 2 -2 -11 -83 -28 -181z"></path>
            <path id="pINx8SsWx" d="M1595 4070 c-48 -6 -48 26 0 -290 137 -906 247 -1411 402 -1839 69 -193 133 -340 283 -656 75 -159 153 -330 173 -380 68 -172 111 -358 124 -538 3 -49 12 -94 18 -101 7 -7 25 -36 39 -65 37 -73 106 -185 120 -193 24 -16 56 -8 68 17 19 43 -17 563 -63 884 -82 580 -225 1015 -684 2071 -194 447 -259 608 -362 890 -40 112 -75 204 -76 205 -1 0 -20 -2 -42 -5z m410 -1220 c508 -1170 629 -1595 700 -2452 8 -92 -10 -110 -20 -20 -27 256 -55 383 -120 556 -20 54 -99 230 -175 390 -251 530 -346 783 -450 1195 -45 177 -171 821 -170 865 1 6 17 -27 36 -74 20 -47 109 -254 199 -460z"></path>
        </g>
    </g>
    <g id="l6IGcTOQyd5e0Q07btyXyZX" fill="rgb(216,124,117)" style="transform: none;">
        <g>
            <path id="p1FvlNpjV8" d="M1053 3488 c-46 -113 -153 -367 -239 -564 -486 -1115 -623 -1562 -698 -2269 -19 -183 -40 -485 -33 -491 3 -3 20 24 37 60 18 36 36 66 41 66 4 0 10 26 14 58 27 256 55 383 120 556 20 54 99 230 175 390 303 640 399 921 524 1531 52 256 148 821 144 849 -2 10 -40 -73 -85 -186z"></path>
            <path id="pYJNhR6bX" d="M1690 3672 c0 -40 101 -628 146 -847 125 -610 221 -891 524 -1531 222 -469 255 -574 295 -946 4 -32 10 -58 14 -58 5 0 23 -30 41 -66 17 -36 34 -63 37 -60 7 6 -14 308 -33 491 -75 706 -212 1154 -697 2266 -85 196 -192 448 -237 560 -45 112 -84 206 -86 208 -2 2 -4 -5 -4 -17z"></path>
        </g>
    </g>
</svg>