<svg class="img-fluid" id="outputsvg" xmlns="http://www.w3.org/2000/svg" style="transform: none; transform-origin: 50% 50% 0px; cursor: move; transition: none 0s ease 0s;" width="138" height="180" viewBox="0 0 1380 1800">
    <g id="l3lenqsPI8fNgJSuwiVsLkk" fill="rgb(0,0,0)" style="transform: none;">
        <g>
            <path id="pqah72gum" d="M363 1789 c-38 -11 -34 4 -68 -238 -50 -362 -108 -603 -219 -924 -35 -100 -66 -189 -70 -197 -4 -10 48 -83 154 -216 135 -170 164 -202 191 -208 18 -3 36 -3 39 1 12 14 90 496 91 553 0 83 -52 1192 -57 1218 -5 24 -12 25 -61 11z m1 -959 l13 -275 -28 -165 c-16 -90 -30 -168 -31 -172 -2 -4 -44 44 -94 107 l-91 114 59 173 c54 156 145 490 150 542 3 37 8 -43 22 -324z"></path>
            <path id="p1Eqhayjkl" d="M966 1778 c-5 -26 -57 -1135 -57 -1218 1 -57 79 -539 91 -553 3 -4 21 -4 38 -1 27 6 57 37 184 197 83 105 153 198 155 208 3 9 -25 103 -61 208 -115 334 -171 570 -221 932 -34 244 -29 226 -73 238 -50 14 -51 14 -56 -11z m163 -949 c16 -57 52 -168 79 -247 l49 -143 -91 -114 c-50 -63 -91 -113 -92 -112 -2 1 -16 81 -32 177 l-29 175 13 245 c7 135 13 272 14 305 l1 60 29 -121 c16 -67 42 -168 59 -225z"></path>
        </g>
    </g>
    <g id="l2E7Qp5XSPgvzhxsdtF6Eqf" fill="rgb(216,124,117)" style="transform: none;">
        <g>
            <path id="pSGhsle81" d="M356 1425 c-46 -252 -63 -331 -96 -460 -21 -82 -68 -237 -105 -343 -56 -164 -64 -195 -53 -211 30 -42 232 -291 234 -288 1 1 18 96 38 212 l36 210 -23 460 c-15 294 -26 446 -31 420z"></path>
            <path id="pUtoeE1HM" d="M1003 999 l-22 -464 35 -200 c19 -110 36 -204 37 -208 2 -7 186 216 235 284 11 16 3 47 -53 211 -74 216 -142 471 -174 658 -12 69 -25 138 -29 154 -4 17 -17 -178 -29 -435z"></path>
        </g>
    </g>
</svg>