<svg class="img-fluid" id="outputsvg" xmlns="http://www.w3.org/2000/svg" style="transform: none; transform-origin: 50% 50% 0px; cursor: move; transition: none 0s ease 0s;" width="61" height="234" viewBox="0 0 610 2340">
    <g id="l5y5qu1oZ31KBdnYLJaGJTF" fill="rgb(0,0,0)" style="transform: none;">
        <g>
            <path id="pWAMVRBbb" d="M95 2329 c-22 -62 -68 -288 -81 -403 -20 -171 -15 -471 16 -871 11 -143 25 -435 31 -650 7 -214 14 -392 16 -395 10 -11 91 -1 130 16 34 15 43 24 48 52 17 90 6 858 -19 1337 -14 270 -28 577 -32 683 -6 161 -10 196 -24 212 -22 26 -78 38 -85 19z m39 -1008 c10 -194 15 -356 12 -359 -3 -3 -6 9 -6 27 0 18 -6 133 -14 255 -22 334 -27 451 -17 440 4 -5 16 -168 25 -363z"></path>
            <path id="p1BVY5KLem" d="M460 2333 c-42 -17 -47 -36 -54 -235 -4 -106 -18 -413 -32 -683 -25 -479 -36 -1247 -19 -1337 5 -28 14 -37 48 -52 39 -17 120 -27 130 -16 2 3 9 181 16 395 6 215 20 507 31 650 45 588 37 858 -33 1146 -28 113 -36 134 -52 136 -11 1 -27 -1 -35 -4z m40 -833 c-12 -251 -33 -541 -37 -536 -5 5 27 696 33 715 11 36 12 -8 4 -179z"></path>
        </g>
    </g>
    <g id="l4oOrywywn1aL0apagykwUM" fill="rgb(216,124,117)" style="transform: none;">
        <g>
            <path id="p6d30kKRL" d="M112 2070 c-49 -268 -48 -478 9 -1220 5 -69 12 -270 16 -446 6 -299 7 -321 24 -317 15 4 18 25 24 161 11 216 0 700 -25 1177 -11 220 -24 470 -28 555 l-8 155 -12 -65z"></path>
            <path id="psNKsYxYV" d="M476 1960 c-4 -96 -16 -341 -27 -545 -24 -449 -34 -955 -24 -1167 6 -136 9 -157 24 -161 17 -4 18 18 24 317 4 176 11 377 16 446 50 653 56 914 26 1113 -27 187 -31 186 -39 -3z"></path>
        </g>
    </g>
</svg>