<svg class="img-fluid" id="outputsvg" xmlns="http://www.w3.org/2000/svg" style="transform: none; transform-origin: 50% 50% 0px; cursor: move; transition: none 0s ease 0s;" width="305" height="302" viewBox="0 0 3050 3020">
    <g id="l5kN9LeUhjE1ACl8UU0YYej" fill="rgb(0,0,0)" style="transform: none;">
        <g>
            <path id="p70blQ3Nk" d="M435 3013 c-34 -9 -115 -74 -120 -96 -3 -12 -34 -146 -69 -297 -159 -680 -214 -995 -237 -1364 -18 -296 7 -567 98 -1023 l46 -233 37 0 38 0 6 73 c3 39 8 137 11 217 18 504 46 1026 66 1235 28 304 92 602 184 859 63 176 169 438 194 481 35 57 35 81 0 106 -58 41 -178 61 -254 42z m123 -111 c9 -7 -5 -53 -62 -193 -233 -578 -290 -877 -326 -1719 -15 -339 -21 -374 -41 -220 -20 164 -18 519 4 690 40 305 97 599 198 1028 93 400 87 379 123 402 32 20 81 26 104 12z"></path>
            <path id="p9afu2wfg" d="M2433 3006 c-22 -7 -55 -23 -72 -35 -35 -25 -35 -49 0 -106 25 -43 131 -305 194 -481 92 -257 156 -555 184 -859 20 -209 48 -731 66 -1235 3 -80 8 -178 11 -218 l6 -72 38 0 37 0 46 233 c163 825 142 1186 -139 2387 -35 151 -66 285 -69 297 -3 12 -28 38 -56 59 -47 34 -58 38 -128 41 -46 2 -93 -3 -118 -11z m162 -116 c37 -23 30 0 124 -402 101 -429 158 -723 198 -1028 22 -171 24 -526 4 -690 -20 -154 -26 -119 -41 220 -36 842 -93 1141 -326 1719 -57 140 -71 186 -62 193 23 14 70 9 103 -12z"></path>
        </g>
    </g>
    <g id="l6Kq6a0XvmEEmZsex7GT6bD" fill="rgb(216,124,117)" style="transform: none;">
        <g>
            <path id="p1DUlNnGtx" d="M442 2929 c-24 -12 -47 -31 -52 -43 -13 -35 -146 -608 -184 -792 -95 -463 -121 -678 -121 -1004 0 -238 3 -284 28 -450 15 -102 34 -214 41 -250 l12 -65 7 115 c4 63 14 261 22 440 45 967 98 1241 365 1883 33 79 60 148 60 154 0 9 -91 33 -124 33 -6 0 -30 -10 -54 -21z"></path>
            <path id="puxIea2p" d="M2478 2938 c-27 -6 -48 -15 -48 -21 0 -6 27 -75 60 -154 267 -642 320 -916 365 -1883 8 -179 18 -377 22 -440 l7 -115 12 65 c7 36 26 148 41 250 25 166 28 212 28 450 0 326 -26 541 -121 1004 -38 184 -171 757 -185 792 -8 24 -84 65 -115 63 -10 -1 -40 -6 -66 -11z"></path>
        </g>
    </g>
</svg>