<svg class="img-fluid" id="outputsvg" xmlns="http://www.w3.org/2000/svg" style="transform: matrix(1, 0, 0, 1, 0, 1); transform-origin: 50% 50% 0px; cursor: move; transition: none 0s ease 0s;" width="270" height="285" viewBox="0 0 2700 2850">
    <g id="l74yR9g3zVuKLfyHogqaA7W" fill="rgb(0,0,0)" style="transform: none;">
        <g>
            <path id="peHHs49OE" d="M643 2843 c-13 -2 -23 -10 -23 -18 0 -21 -29 -27 -122 -26 -55 1 -88 -2 -88 -9 0 -5 -7 -10 -15 -10 -9 0 -20 -12 -26 -27 -29 -76 -146 -468 -184 -618 -86 -337 -104 -500 -141 -1302 -21 -451 -25 -586 -16 -592 9 -6 7 -33 -10 -114 -12 -58 -19 -109 -16 -113 4 -3 21 -7 38 -7 l32 -2 43 191 c101 453 191 707 490 1389 109 249 134 314 126 330 -6 11 -15 216 -21 455 -6 239 -13 445 -16 458 -4 22 -9 23 -51 15z m-52 -155 c0 -2 7 -178 14 -392 l13 -389 -124 -285 c-142 -327 -226 -531 -295 -717 -57 -154 -55 -169 -34 237 31 593 65 781 242 1353 31 99 58 183 60 188 4 6 122 11 124 5z"></path>
            <path id="p7PwdkEca" d="M2006 2829 c-3 -13 -10 -220 -16 -459 -6 -239 -15 -444 -21 -455 -8 -16 17 -81 126 -330 299 -682 389 -936 490 -1389 l43 -191 32 2 c17 0 34 4 38 7 3 4 -4 55 -16 113 -17 81 -19 108 -10 114 9 6 5 141 -16 592 -37 802 -55 965 -141 1302 -38 150 -155 542 -184 618 -6 15 -17 27 -26 27 -8 0 -15 5 -15 10 0 7 -33 10 -87 9 -95 -1 -123 5 -123 27 0 8 -6 14 -12 14 -7 0 -23 3 -35 6 -18 5 -23 1 -27 -17z m251 -219 c218 -707 246 -851 278 -1470 21 -404 23 -389 -34 -235 -69 186 -153 390 -295 717 l-124 285 13 389 c7 214 14 390 14 392 1 2 29 2 63 0 l62 -3 23 -75z"></path>
        </g>
    </g>
    <g id="l6VgWldblY0qmWBEVXbtvhK" fill="rgb(216,124,117)" style="transform: none;">
        <g>
            <path id="pbg4Tk1bh" d="M446 2716 c-8 -6 -44 -108 -80 -226 -182 -598 -206 -750 -241 -1535 -8 -187 -17 -367 -19 -400 -6 -74 -1 -64 59 130 57 183 192 523 359 909 l126 288 -10 352 c-6 193 -13 383 -16 421 l-5 70 -79 1 c-46 1 -85 -3 -94 -10z"></path>
            <path id="pF3KWkbcQ" d="M2076 2655 c-3 -38 -10 -228 -16 -421 l-10 -352 126 -288 c167 -386 302 -726 359 -909 60 -194 65 -204 59 -130 -2 33 -11 213 -19 400 -35 785 -59 938 -241 1535 -37 118 -70 220 -76 225 -5 6 -47 10 -93 10 l-84 0 -5 -70z"></path>
        </g>
    </g>
</svg>