<svg class="img-fluid" id="outputsvg" xmlns="http://www.w3.org/2000/svg" style="transform: matrix(1, 0, 0, 1, 0, -1); transform-origin: 50% 50% 0px; cursor: move; transition: none 0s ease 0s;" width="139" height="146" viewBox="0 0 1390 1460">
    <g id="l6OGDuJkHUmuvZI1EBYS1D8" fill="rgb(0,0,0)" style="transform: none;">
        <g>
            <path id="p1H63a5l5Q" d="M215 1406 c-92 -95 -186 -273 -206 -392 -10 -59 -8 -148 12 -537 14 -256 27 -468 29 -470 3 -3 20 -2 38 0 23 4 32 10 32 25 0 27 102 286 205 523 104 239 158 385 179 488 17 79 22 343 8 362 -4 6 -26 20 -49 33 -33 17 -58 22 -118 22 l-77 0 -53 -54z m175 -66 c24 -18 25 -24 23 -112 -2 -156 -35 -260 -194 -626 l-84 -192 -6 77 c-4 43 -10 170 -14 283 -7 202 -7 206 17 272 50 133 175 318 216 318 9 0 28 -9 42 -20z"></path>
            <path id="pMWXyrjor" d="M925 1437 c-22 -12 -43 -26 -47 -32 -14 -19 -9 -283 8 -362 21 -103 75 -249 179 -488 103 -237 205 -496 205 -523 0 -15 9 -21 33 -25 17 -2 34 -3 37 0 2 2 15 214 29 470 20 389 22 478 12 537 -20 119 -114 297 -206 392 l-53 54 -79 0 c-61 -1 -87 -6 -118 -23z m178 -128 c55 -63 122 -178 155 -267 24 -66 24 -70 17 -272 -4 -113 -10 -240 -14 -283 l-6 -77 -84 192 c-159 366 -192 470 -194 626 -2 88 -1 94 23 112 38 30 54 25 103 -31z"></path>
        </g>
    </g>
    <g id="l3puLFu5oX7AXpjnw7YmJTn" fill="rgb(216,124,117)" style="transform: none;">
        <g>
            <path id="pJRhUTctk" d="M314 1390 c-52 -21 -165 -191 -211 -318 -19 -53 -24 -86 -25 -167 0 -98 16 -438 28 -584 l6 -74 58 139 c31 76 88 209 125 294 117 269 155 413 155 582 0 75 -11 102 -53 121 -39 19 -52 20 -83 7z"></path>
            <path id="pwqncQVHl" d="M992 1383 c-41 -20 -52 -46 -52 -121 0 -169 38 -313 155 -582 37 -85 94 -218 125 -294 l58 -139 6 74 c12 146 28 486 28 584 -1 81 -6 114 -25 167 -54 149 -172 313 -232 323 -18 3 -44 -2 -63 -12z"></path>
        </g>
    </g>
</svg>