<svg class="img-fluid" id="outputsvg" xmlns="http://www.w3.org/2000/svg" style="transform: none; transform-origin: 50% 50% 0px; cursor: move; transition: none 0s ease 0s;" width="493" height="76" viewBox="0 0 4930 760">
    <g id="l71BfmA5IV8NbrUhnSRQEuI" fill="rgb(0,0,0)" style="transform: none;">
        <g>
            <path id="pM7CX1sxM" d="M36 748 c-16 -56 -36 -140 -36 -153 0 -18 156 -255 168 -255 10 1 42 26 39 31 -9 16 33 -46 124 -185 113 -172 130 -192 152 -179 12 7 0 54 -67 263 l-82 255 -99 52 c-68 35 -102 48 -107 40 -7 -11 -17 8 -49 97 -15 41 -36 58 -43 34z m248 -316 c22 -63 20 -64 -14 -7 -33 56 -36 67 -16 59 8 -3 22 -26 30 -52z"></path>
            <path id="pnu6t9qpy" d="M4862 743 c-5 -10 -15 -36 -22 -58 -18 -57 -31 -80 -39 -67 -4 6 -44 -9 -106 -41 l-99 -52 -82 -255 c-67 -209 -79 -256 -67 -263 22 -13 39 7 152 179 91 139 133 201 124 185 -3 -5 29 -30 39 -31 13 0 168 238 167 257 -1 36 -37 157 -47 161 -6 2 -15 -5 -20 -15z m-201 -315 c-17 -29 -31 -50 -31 -47 0 17 32 94 43 101 22 14 19 -1 -12 -54z"></path>
        </g>
    </g>
    <g id="l7Yk0Y3X1o2fCa3pnoQH6O" fill="rgb(225,121,113)" style="transform: none;">
        <g>
            <path id="pmaUe4BAD" d="M46 648 c-3 -13 -6 -32 -6 -42 0 -19 79 -150 86 -143 4 4 -63 198 -70 205 -2 1 -6 -8 -10 -20z"></path>
            <path id="pkyHGP5rT" d="M4837 570 c-20 -57 -35 -105 -33 -107 2 -2 22 25 45 60 40 62 47 92 32 131 -5 14 -17 -7 -44 -84z"></path>
            <path id="pT36t8qjJ" d="M180 519 c11 -28 28 -65 36 -82 23 -46 196 -308 200 -304 2 2 -23 86 -56 188 l-59 184 -66 33 c-36 17 -67 32 -70 32 -3 0 4 -23 15 -51z"></path>
            <path id="p11fGm6Wdo" d="M4692 537 l-63 -32 -59 -184 c-33 -102 -58 -186 -56 -188 4 -4 177 258 200 304 27 53 56 133 48 132 -4 0 -35 -14 -70 -32z"></path>
        </g>
    </g>
</svg>