<svg class="img-fluid" id="outputsvg" xmlns="http://www.w3.org/2000/svg" style="transform: matrix(0.591716, 0, 0, 0.591716, 0, 0); transform-origin: 50% 50% 0px; cursor: move; transition: none 0s ease 0s;" width="555" height="74" viewBox="0 0 5550 740">
    <g id="l2rQEYmIDXhzsYX7ezRQ8Rj" fill="rgb(0,0,0)" style="transform: none;">
        <g>
            <path id="p139kBffmP" d="M40 730 c-8 -5 -17 -7 -22 -4 -15 10 -20 -73 -15 -239 6 -181 14 -226 65 -364 37 -100 53 -125 72 -113 12 7 7 64 -30 362 -24 194 -46 356 -49 360 -3 4 -13 3 -21 -2z"></path>
            <path id="phz9j3oBp" d="M5486 728 c-3 -7 -24 -170 -47 -361 -37 -295 -41 -350 -29 -357 10 -6 18 -2 28 11 17 24 69 165 89 239 25 95 30 490 6 466 -3 -3 -14 -1 -24 5 -14 7 -20 6 -23 -3z"></path>
        </g>
    </g>
    <g id="l4v2hFy7XeI1BmUTVDZuXtP" fill="rgb(225,121,113)" style="transform: none;">
        <g>
            <path id="pmhkRjstD" d="M30 535 c0 -44 5 -113 10 -154 10 -79 49 -235 57 -227 7 7 -49 440 -59 451 -4 5 -8 -27 -8 -70z"></path>
            <path id="pXycAb170" d="M5508 600 c-9 -21 -61 -441 -55 -446 8 -9 47 152 58 238 10 87 9 234 -3 208z"></path>
        </g>
    </g>
</svg>