<svg class="img-fluid" id="outputsvg" xmlns="http://www.w3.org/2000/svg" style="transform: matrix(0.591716, 0, 0, 0.591716, 0, -2); transform-origin: 50% 50% 0px; cursor: move; transition: none 0s ease 0s;" width="649" height="30" viewBox="0 0 6490 300">
    <g id="l7hYTlnDIAAvFtdyeiuOezQ" fill="rgb(0,0,0)" style="transform: none;">
        <g>
            <path id="pATCekkH7" d="M6 291 c-4 -6 -5 -15 -2 -20 13 -21 296 -216 351 -242 44 -21 75 -29 115 -29 67 0 140 30 140 58 0 48 -202 171 -350 212 -92 25 -244 38 -254 21z m312 -120 c39 -16 94 -44 122 -63 48 -31 49 -33 25 -36 -27 -4 -141 56 -200 104 -38 31 -33 30 53 -5z"></path>
            <path id="pCGq0WUuy" d="M6318 290 c-136 -24 -287 -90 -380 -166 -70 -58 -73 -78 -15 -104 69 -32 141 -27 223 15 87 44 339 227 339 246 0 17 -92 22 -167 9z m-93 -114 c-59 -48 -173 -108 -200 -104 -24 3 -23 5 25 37 48 31 172 88 195 90 6 1 -3 -10 -20 -23z"></path>
        </g>
    </g>
    <g id="l1qQSlGlIjVVyQkPt1yojmN" fill="rgb(225,121,113)" style="transform: none;">
        <g>
            <path id="p1G1nEeofM" d="M181 184 c120 -87 210 -139 258 -149 34 -7 121 11 121 26 0 10 -73 69 -120 96 -81 49 -254 103 -329 103 -32 0 -29 -4 70 -76z"></path>
            <path id="p9eXS3dqF" d="M6265 241 c-80 -21 -164 -53 -215 -83 -47 -29 -120 -87 -120 -97 0 -15 87 -33 121 -26 48 10 138 62 258 149 l104 76 -39 -1 c-21 0 -70 -8 -109 -18z"></path>
        </g>
    </g>
</svg>