<svg class="img-fluid" id="outputsvg" xmlns="http://www.w3.org/2000/svg" style="transform: none; transform-origin: 50% 50% 0px; cursor: move; transition: none 0s ease 0s;" width="480" height="62" viewBox="0 0 4800 620">
    <g id="l2uwDUcGtp1UkDvbe2jN0eJ" fill="rgb(0,0,0)" style="transform: none;">
        <g>
            <path id="pt8dBZn4X" d="M25 614 c-6 -3 -9 -60 -6 -157 2 -83 -2 -217 -9 -296 -11 -121 -11 -144 1 -152 22 -14 32 -6 63 51 42 77 44 149 13 340 -15 85 -28 168 -29 184 -3 29 -13 38 -33 30z"></path>
            <path id="pAgy4PSVN" d="M4747 613 c-4 -3 -7 -19 -7 -34 0 -15 -12 -94 -26 -176 -32 -187 -30 -266 12 -343 31 -57 41 -65 63 -51 12 8 12 31 1 152 -7 79 -11 213 -9 296 3 121 1 154 -9 158 -17 6 -17 6 -25 -2z"></path>
        </g>
    </g>
</svg>