<svg class="img-fluid" id="outputsvg" xmlns="http://www.w3.org/2000/svg" style="transform: none; transform-origin: 50% 50% 0px; cursor: move; transition: none 0s ease 0s;" width="490" height="59" viewBox="0 0 4900 590">
    <g id="lrYe8bLL1f19E3zfoUgnMr" fill="rgb(0,0,0)" style="transform: none;">
        <g>
            <path id="p5NY0r0Jx" d="M26 582 c-16 -26 -25 -212 -16 -352 5 -85 10 -172 10 -192 0 -27 4 -38 15 -38 9 0 15 9 15 24 0 13 6 26 14 29 9 4 18 36 26 89 15 106 1 395 -19 408 -8 4 -11 12 -7 18 3 5 -1 13 -10 16 -20 8 -22 8 -28 -2z"></path>
            <path id="p7IV3MO6e" d="M4842 583 c-6 -2 -9 -9 -6 -15 4 -6 1 -14 -7 -18 -20 -13 -34 -302 -19 -408 8 -53 17 -85 26 -89 8 -3 14 -16 14 -29 0 -14 6 -24 14 -24 25 0 40 428 19 539 -8 44 -17 54 -41 44z"></path>
        </g>
    </g>
</svg>