<svg class="img-fluid" id="outputsvg" xmlns="http://www.w3.org/2000/svg" style="transform: none; transform-origin: 50% 50% 0px; cursor: move; transition: none 0s ease 0s;" width="510" height="52" viewBox="0 0 5100 520">
    <g id="l4soCms05ipLKSCrZHlhF7E" fill="rgb(0,0,0)" style="transform: none;">
        <g>
            <path id="p05Ni5QG1" d="M79 453 c-79 -175 -97 -280 -60 -351 44 -84 134 -136 114 -65 -11 39 -5 431 7 453 9 16 -3 30 -26 30 -3 0 -19 -30 -35 -67z"></path>
            <path id="p111zEzIx" d="M4963 513 c-9 -3 -10 -10 -3 -23 12 -22 18 -414 7 -453 -20 -71 70 -19 114 65 37 71 19 176 -60 351 -30 66 -34 70 -58 60z"></path>
        </g>
    </g>
    <g id="l7XPIK4dBX9hxtp8XK5O3ON" fill="rgb(225,121,113)" style="transform: none;">
        <g>
            <path id="pi8MW19WX" d="M75 354 c-51 -122 -54 -189 -12 -254 l22 -35 5 160 c3 88 4 162 3 164 -1 2 -9 -14 -18 -35z"></path>
            <path id="pRlIoVn8K" d="M5004 377 c3 -10 6 -84 6 -163 0 -103 3 -143 11 -138 17 10 49 86 49 117 0 33 -46 177 -62 192 -8 7 -9 5 -4 -8z"></path>
        </g>
    </g>
</svg>