<svg class="img-fluid" id="outputsvg" xmlns="http://www.w3.org/2000/svg" style="transform: none; transform-origin: 50% 50% 0px; cursor: move; transition: none 0s ease 0s;" width="628" height="32" viewBox="0 0 6280 320">
    <g id="l52ItG5UeZ7tahEMpHS8XEa" fill="rgb(0,0,0)" style="transform: none;">
        <g>
            <path id="ptcCe3Yzo" d="M235 310 c-16 -4 -60 -8 -96 -9 -60 -1 -67 -3 -77 -26 -7 -14 -12 -52 -12 -85 0 -48 -4 -64 -26 -89 -14 -17 -24 -36 -22 -42 2 -6 45 -11 113 -12 95 -2 116 -5 151 -26 l41 -23 73 52 72 53 -6 50 c-9 67 -33 124 -64 147 -26 21 -88 25 -147 10z m105 -75 c7 -8 18 -32 25 -52 13 -37 13 -38 -25 -65 -32 -24 -41 -26 -71 -18 -19 6 -63 10 -98 10 -53 0 -62 2 -57 16 3 9 6 35 6 58 l0 43 73 10 c108 15 133 14 147 -2z"></path>
            <path id="pBb4N5i09" d="M5899 301 c-31 -24 -56 -80 -65 -148 l-6 -50 72 -53 73 -52 41 23 c35 21 56 24 151 26 68 1 111 6 113 12 2 6 -8 25 -22 42 -22 25 -26 41 -26 89 0 98 -8 107 -104 114 -44 3 -108 8 -141 12 -51 5 -64 3 -86 -15z m169 -63 l92 -12 0 -42 c0 -23 3 -49 6 -58 5 -14 -4 -16 -57 -16 -35 0 -79 -4 -98 -10 -30 -8 -39 -6 -71 18 -38 27 -38 28 -25 65 15 42 32 67 49 67 6 0 53 -5 104 -12z"></path>
        </g>
    </g>
    <g id="lQlJQUrbLFrkLvwRhNt84Q" fill="rgb(225,121,113)" style="transform: none;">
        <g>
            <path id="pY0FrXwts" d="M195 270 c-22 -4 -54 -6 -71 -3 l-31 5 -6 -75 c-3 -41 -10 -84 -16 -95 -10 -19 -6 -20 82 -24 58 -3 103 -10 122 -20 29 -16 31 -15 86 24 l57 39 -13 54 c-7 30 -20 66 -29 80 -15 23 -22 25 -79 24 -34 -1 -80 -5 -102 -9z"></path>
            <path id="pJj9AMcyk" d="M5905 256 c-10 -15 -23 -51 -30 -81 l-13 -54 57 -39 c55 -39 57 -40 86 -24 19 10 64 17 122 20 88 4 92 5 82 24 -6 11 -13 53 -16 94 l-6 74 -41 -1 c-23 -1 -82 2 -132 6 l-92 8 -17 -27z"></path>
        </g>
    </g>
</svg>