<svg class="img-fluid" id="outputsvg" xmlns="http://www.w3.org/2000/svg" style="transform: none; transform-origin: 50% 50% 0px; cursor: move; transition: none 0s ease 0s;" width="452" height="219" viewBox="0 0 4520 2190">
    <g id="l2DT3UkonjBACzL3mh234B4" fill="rgb(0,0,0)" style="transform: none;">
        <g>
            <path id="p11rpSbMZM" d="M145 2182 c-6 -4 -11 -25 -12 -47 0 -22 -19 -119 -42 -215 -92 -396 -102 -566 -51 -840 34 -180 93 -398 171 -640 103 -316 149 -420 193 -435 88 -30 96 139 36 735 -46 458 -111 890 -176 1170 -20 85 -38 177 -41 205 -3 27 -12 55 -19 62 -14 14 -43 17 -59 5z m80 -612 c20 -107 38 -233 41 -280 3 -47 10 -98 15 -115 20 -61 90 -725 88 -830 -1 -56 -115 283 -174 517 -89 354 -101 502 -60 733 14 83 29 166 32 185 6 33 7 34 15 10 4 -14 24 -113 43 -220z"></path>
            <path id="pJz9UHkME" d="M4314 2177 c-6 -7 -14 -35 -17 -63 -3 -27 -21 -119 -41 -204 -92 -396 -188 -1139 -211 -1627 -8 -160 -1 -233 25 -265 15 -19 22 -21 46 -13 44 15 90 119 193 435 78 242 137 461 171 640 51 274 41 444 -51 840 -23 96 -42 193 -42 215 -1 22 -6 43 -12 47 -16 12 -49 9 -61 -5z m72 -587 c40 -233 28 -373 -61 -728 -59 -234 -173 -573 -174 -517 -2 105 68 769 88 830 5 17 12 68 15 115 5 77 47 332 77 471 l12 54 8 -35 c5 -19 20 -105 35 -190z"></path>
        </g>
    </g>
    <g id="l1XcpViYxZQg42g56dPnVbW" fill="rgb(225,121,113)" style="transform: none;">
        <g>
            <path id="p10CbDZS4C" d="M142 1819 c-87 -420 -83 -562 22 -984 47 -186 176 -581 221 -676 l25 -54 -5 155 c-9 259 -70 879 -93 941 -5 13 -7 30 -5 36 10 28 -101 658 -125 717 -6 14 -18 -26 -40 -135z"></path>
            <path id="px4ph7m8o" d="M4337 1955 c-29 -90 -133 -692 -124 -718 2 -6 0 -23 -5 -36 -23 -62 -84 -682 -93 -941 l-5 -155 25 54 c45 95 174 490 221 676 108 431 109 618 6 1060 -13 55 -20 74 -25 60z"></path>
        </g>
    </g>
</svg>