<svg class="img-fluid" id="outputsvg" xmlns="http://www.w3.org/2000/svg" style="transform: none; transform-origin: 50% 50% 0px; cursor: move; transition: none 0s ease 0s;" width="622" height="48" viewBox="0 0 6220 480">
    <g id="l6Fbks0h9NyjId6orM6wEQn" fill="rgb(0,0,0)" style="transform: none;">
        <g>
            <path id="pbS901mZ8" d="M354 453 c-4 -14 -7 -85 -8 -157 -1 -131 -1 -131 33 -194 36 -66 65 -92 74 -68 3 7 9 65 12 127 8 124 -4 199 -45 279 -24 48 -56 54 -66 13z"></path>
            <path id="pdwDcopdd" d="M528 395 c-48 -101 -55 -147 -38 -268 21 -148 36 -160 80 -64 40 84 52 159 48 289 -3 106 -10 127 -41 128 -4 0 -26 -38 -49 -85z"></path>
            <path id="paQcY65mK" d="M5620 470 c-19 -12 -26 -200 -11 -285 12 -65 64 -185 80 -185 6 0 14 8 19 17 15 30 35 199 30 247 -6 46 -80 216 -95 216 -4 0 -15 -5 -23 -10z"></path>
            <path id="p154lQp1ug" d="M5800 440 c-41 -80 -53 -155 -45 -279 3 -62 9 -120 12 -127 9 -24 38 2 74 68 34 63 34 63 33 194 -1 72 -4 143 -8 157 -10 41 -42 35 -66 -13z"></path>
            <path id="pfWaZugde" d="M185 418 c-3 -7 -9 -53 -14 -103 -12 -121 -2 -151 64 -187 28 -15 63 -28 78 -28 28 0 29 1 22 43 -11 65 -31 118 -78 203 -43 78 -63 97 -72 72z"></path>
            <path id="pA9LSap8X" d="M5992 398 c-62 -102 -112 -231 -112 -288 0 -19 56 -9 105 18 66 36 76 66 64 187 -13 130 -21 141 -57 83z"></path>
            <path id="p6VCbpc7J" d="M3 274 c-10 -27 5 -127 25 -153 37 -52 165 -92 178 -57 12 31 -17 74 -101 150 -46 42 -86 76 -89 76 -4 0 -9 -7 -13 -16z"></path>
            <path id="pOOCz7T9x" d="M6108 207 c-83 -78 -109 -121 -93 -148 10 -15 74 -6 121 17 59 30 77 62 78 140 1 37 -3 68 -9 70 -5 2 -49 -34 -97 -79z"></path>
        </g>
    </g>
    <g id="l74aopFr2K86pFDrr9FOVBE" fill="rgb(225,121,113)" style="transform: none;">
        <g>
            <path id="p17qLCYODq" d="M378 338 c-3 -115 1 -150 27 -203 l23 -50 1 111 c1 110 -18 214 -39 214 -6 0 -11 -33 -12 -72z"></path>
            <path id="phFvbZBxc" d="M552 368 c-40 -85 -45 -124 -30 -218 l14 -85 22 59 c20 50 22 74 20 175 l-3 116 -23 -47z"></path>
            <path id="p16dPcH8R7" d="M5640 298 c0 -97 4 -127 22 -175 l22 -58 14 93 c14 90 14 95 -8 155 -43 118 -50 116 -50 -15z"></path>
            <path id="pY5rtrT0j" d="M5805 358 c-10 -34 -15 -90 -14 -162 l1 -111 23 50 c13 28 25 68 27 90 4 78 -2 185 -12 185 -5 0 -16 -23 -25 -52z"></path>
            <path id="p1APdwWpuK" d="M206 319 c-12 -64 -7 -118 14 -139 22 -22 70 -44 78 -36 8 8 -28 106 -57 158 l-28 49 -7 -32z"></path>
            <path id="p2PiRQWu7" d="M5968 279 c-20 -41 -39 -89 -43 -108 -6 -29 -5 -33 10 -28 9 4 20 7 24 7 5 0 20 11 35 25 22 20 26 32 25 77 -1 29 -4 64 -8 77 -5 20 -11 14 -43 -50z"></path>
            <path id="pfsjh3Xg2" d="M36 198 c9 -49 36 -81 82 -98 77 -27 68 -3 -29 81 l-59 51 6 -34z"></path>
            <path id="psunKvRVA" d="M6115 166 c-39 -35 -67 -67 -63 -72 12 -11 82 13 102 35 15 17 40 91 33 98 -2 1 -34 -27 -72 -61z"></path>
        </g>
    </g>
</svg>