<svg class="img-fluid" id="outputsvg" xmlns="http://www.w3.org/2000/svg" style="transform: none; transform-origin: 50% 50% 0px; cursor: move; transition: none 0s ease 0s;" width="413" height="214" viewBox="0 0 4130 2140">
    <g id="l32kF5FdXIrA02aiNYdZ332" fill="rgb(0,0,0)" style="transform: none;">
        <g>
            <path id="p11jYXra7T" d="M60 2131 c0 -5 -13 -12 -30 -16 -16 -4 -30 -13 -30 -21 0 -7 18 -118 40 -246 48 -284 74 -479 144 -1113 80 -709 77 -688 97 -707 10 -10 32 -19 50 -20 l32 -3 23 148 c25 158 61 339 118 587 55 240 69 353 63 510 -6 147 -11 171 -63 305 -49 127 -164 310 -301 480 -55 67 -143 127 -143 96z m204 -381 c116 -174 177 -320 196 -465 16 -122 -5 -258 -102 -687 l-34 -147 -33 307 c-39 367 -103 883 -129 1042 l-19 114 29 -34 c16 -19 57 -78 92 -130z"></path>
            <path id="pDD15l49E" d="M4015 2117 c-89 -50 -320 -383 -389 -562 -52 -134 -57 -158 -63 -305 -6 -157 8 -270 63 -510 57 -248 93 -429 118 -587 l23 -148 32 3 c18 1 40 10 50 20 20 19 17 -2 97 707 70 634 96 829 144 1113 22 128 40 239 40 246 0 8 -13 17 -30 21 -16 4 -30 11 -30 16 0 14 -11 11 -55 -14z m-47 -319 c-26 -157 -90 -674 -129 -1040 l-33 -307 -34 147 c-97 429 -118 565 -102 687 22 170 102 342 257 553 29 39 55 72 56 72 2 0 -5 -51 -15 -112z"></path>
        </g>
    </g>
    <g id="l19udi6pEoo2TiL76MTUlPa" fill="rgb(225,121,113)" style="transform: none;">
        <g>
            <path id="pXxBKbQKS" d="M90 2028 c0 -10 14 -97 31 -195 36 -212 91 -651 150 -1191 23 -215 45 -392 49 -392 4 0 12 35 18 78 7 42 28 147 48 232 124 543 136 676 78 878 -42 143 -144 325 -278 489 -103 128 -96 120 -96 101z"></path>
            <path id="p1DJp6l1vi" d="M3965 1955 c-148 -181 -256 -368 -299 -517 -58 -202 -46 -335 78 -878 20 -85 41 -190 48 -232 6 -43 14 -78 18 -78 4 0 26 177 49 392 63 576 107 926 147 1166 19 117 34 217 32 223 -2 5 -34 -29 -73 -76z"></path>
        </g>
    </g>
</svg>