<svg class="img-fluid" id="outputsvg" xmlns="http://www.w3.org/2000/svg" style="transform: none; transform-origin: 50% 50% 0px; cursor: move; transition: none 0s ease 0s;" width="326" height="162" viewBox="0 0 3260 1620">
    <g id="l4AG3vPspopH8xkJQWK64a9" fill="rgb(0,0,0)" style="transform: none;">
        <g>
            <path id="pTGCOJF1K" d="M146 1609 c-2 -8 -18 -117 -36 -243 -30 -216 -40 -268 -78 -391 -12 -40 -16 -140 -21 -495 -4 -245 -5 -450 -3 -457 14 -45 94 -7 160 75 l38 49 19 726 c10 400 17 729 14 731 -3 3 -24 8 -47 12 -31 5 -43 3 -46 -7z"></path>
            <path id="pu3tckwOX" d="M3043 1613 c-23 -4 -23 -7 -22 -146 0 -78 8 -408 17 -733 l17 -591 39 -47 c67 -82 144 -118 158 -73 2 7 1 212 -3 457 -5 373 -9 454 -23 500 -36 120 -49 184 -80 405 -32 227 -33 230 -57 231 -13 1 -34 0 -46 -3z"></path>
        </g>
    </g>
    <g id="l2qEd0i7QGhg94ptAZNlBeN" fill="rgb(225,121,113)" style="transform: none;">
        <g>
            <path id="pePy3cObl" d="M132 1047 c-13 -51 -28 -110 -33 -132 -5 -22 -12 -211 -15 -420 l-5 -380 25 28 c19 20 26 40 27 70 0 23 6 240 13 482 7 242 13 441 12 442 0 0 -12 -40 -24 -90z"></path>
            <path id="pR9Apxq2K" d="M3105 1065 c2 -44 7 -192 10 -330 3 -137 8 -321 12 -409 6 -149 7 -160 30 -185 l24 -26 -5 380 c-3 209 -10 398 -15 420 -5 22 -21 83 -35 135 l-26 95 5 -80z"></path>
        </g>
    </g>
</svg>