<svg class="img-fluid" id="outputsvg" xmlns="http://www.w3.org/2000/svg" style="transform: none; transform-origin: 50% 50% 0px; cursor: move; transition: none 0s ease 0s;" width="350" height="49" viewBox="0 0 3500 490">
    <g id="l6k8Lh56KWyUiJixs1r5HFb" fill="rgb(0,0,0)" style="transform: none;">
        <g>
            <path id="pSdRNNqjY" d="M65 476 c-6 -19 -65 -396 -65 -416 0 -11 6 -20 14 -20 7 0 20 -10 28 -22 l15 -22 56 23 c31 13 54 27 51 32 -3 5 0 9 5 9 12 0 16 326 5 391 -6 35 -7 35 -56 36 -29 0 -51 -4 -53 -11z"></path>
            <path id="p1AoiCFdxe" d="M3326 451 c-11 -65 -7 -391 5 -391 5 0 8 -4 5 -9 -3 -5 20 -19 51 -32 l56 -23 15 22 c8 12 21 22 28 22 19 0 17 26 -19 250 l-32 195 -52 1 -51 1 -6 -36z"></path>
        </g>
    </g>
    <g id="l1gINhGnnZQO9xFWnyGQ95r" fill="rgb(225,121,113)" style="transform: none;">
        <g>
            <path id="plh97PplX" d="M106 398 c-3 -18 -8 -64 -11 -103 -3 -38 -13 -94 -21 -122 -19 -66 -16 -107 10 -112 39 -7 46 23 46 201 0 100 -4 168 -10 168 -5 0 -11 -15 -14 -32z"></path>
            <path id="p1EioAKg2n" d="M3370 262 c0 -178 7 -208 46 -201 26 5 29 46 10 112 -8 28 -18 84 -21 122 -9 104 -15 135 -25 135 -6 0 -10 -68 -10 -168z"></path>
        </g>
    </g>
</svg>