<svg class="img-fluid" id="outputsvg" xmlns="http://www.w3.org/2000/svg" style="transform: none; transform-origin: 50% 50% 0px; cursor: move; transition: none 0s ease 0s;" width="436" height="113" viewBox="0 0 4360 1130">
    <g id="lsS880dMMdr4a3trcnPXZL" fill="rgb(0,0,0)" style="transform: none;">
        <g>
            <path id="p7WAC8RsS" d="M25 1100 c-18 -19 -23 -30 -15 -35 7 -4 10 -19 6 -35 -6 -31 19 -344 29 -360 3 -6 12 -10 20 -10 19 0 149 -106 216 -176 66 -70 107 -130 224 -329 49 -82 89 -151 90 -151 0 -1 15 1 33 3 31 5 32 6 32 57 0 77 -27 231 -56 318 -45 136 -132 264 -376 550 -65 76 -118 142 -118 147 0 4 -13 17 -29 28 l-28 22 -28 -29z m201 -350 c44 -52 95 -115 114 -140 l34 -45 -49 45 c-28 25 -80 70 -117 99 -53 41 -68 59 -68 79 0 15 -3 38 -6 52 -8 31 -8 30 92 -90z"></path>
            <path id="p86vnIhe0" d="M4277 1102 c-36 -35 -244 -285 -332 -396 -93 -120 -159 -232 -189 -324 -29 -87 -56 -241 -56 -318 0 -51 1 -52 33 -57 17 -2 32 -4 32 -3 1 0 41 69 90 151 117 199 158 259 224 329 67 70 197 176 216 176 8 0 17 4 20 10 10 15 35 332 29 357 -4 13 -1 29 5 36 8 10 4 20 -17 40 l-28 27 -27 -28z m-54 -295 c-5 -44 -10 -51 -72 -99 -36 -29 -88 -73 -116 -98 l-50 -45 40 50 c59 75 199 244 201 242 1 -1 0 -23 -3 -50z"></path>
        </g>
    </g>
    <g id="l7jpLJuKIbGx6RAuA5ahYlI" fill="rgb(225,121,113)" style="transform: none;">
        <g>
            <path id="pRRHwh2Dz" d="M94 930 c3 -25 8 -80 11 -122 l7 -77 66 -53 c148 -116 225 -203 332 -381 29 -48 55 -85 57 -83 7 6 -27 126 -53 190 -43 105 -170 280 -382 522 l-43 49 5 -45z"></path>
            <path id="pXM9JU5Vq" d="M4195 888 c-210 -246 -307 -381 -350 -486 -25 -63 -58 -182 -52 -188 2 -2 28 35 57 83 107 178 184 265 332 381 l66 53 7 77 c3 42 8 96 11 120 3 23 4 42 2 42 -2 0 -35 -37 -73 -82z"></path>
        </g>
    </g>
</svg>