<svg class="img-fluid" id="outputsvg" xmlns="http://www.w3.org/2000/svg" style="transform: none; transform-origin: 50% 50% 0px; cursor: move; transition: none 0s ease 0s;" width="510" height="224" viewBox="0 0 5100 2240">
    <g id="l44v3v3Xiz6zpwJrsQpZhn3" fill="rgb(0,0,0)" style="transform: none;">
        <g>
            <path id="pavk7q7u" d="M31 2227 l-34 -11 6 -460 c12 -833 34 -1020 151 -1275 80 -174 121 -320 110 -391 -6 -36 -5 -38 26 -45 18 -4 36 -3 40 1 9 10 53 211 75 346 63 380 20 801 -131 1278 -41 130 -193 552 -203 561 -3 3 -21 1 -40 -4z m154 -657 c119 -395 164 -733 134 -998 -6 -53 -14 -101 -18 -105 -12 -12 -97 180 -120 268 -42 167 -72 548 -70 910 1 174 -2 177 74 -75z"></path>
            <path id="pKdpSJtk8" d="M5021 2217 c-151 -400 -215 -593 -266 -801 -93 -378 -112 -708 -60 -1024 22 -135 66 -336 75 -346 4 -4 22 -5 40 -1 31 7 32 9 26 45 -11 71 30 217 110 391 117 255 139 442 151 1274 l6 461 -37 11 c-34 11 -38 10 -45 -10z m-41 -916 c-11 -276 -29 -441 -61 -566 -23 -88 -108 -280 -120 -268 -4 4 -12 52 -18 105 -30 266 15 606 134 998 77 253 70 242 73 105 2 -66 -2 -234 -8 -374z"></path>
        </g>
    </g>
    <g id="l2F2n9GXq3ngXujjpMWYk61" fill="rgb(225,121,113)" style="transform: none;">
        <g>
            <path id="pBeiAgwzf" d="M77 1762 c5 -351 22 -730 39 -861 22 -167 48 -259 114 -401 32 -69 61 -140 65 -158 11 -52 22 -27 40 93 52 345 16 710 -116 1152 -39 131 -121 370 -136 398 -5 8 -7 -92 -6 -223z"></path>
            <path id="pPUQwr48P" d="M5015 1983 c-29 -73 -102 -287 -134 -396 -132 -442 -168 -807 -116 -1152 18 -120 29 -145 40 -93 4 18 33 89 65 158 114 245 135 401 149 1105 4 215 7 391 6 393 -2 2 -6 -5 -10 -15z"></path>
        </g>
    </g>
</svg>