<svg class="img-fluid" id="outputsvg" xmlns="http://www.w3.org/2000/svg" style="transform: none; transform-origin: 50% 50% 0px; cursor: move; transition: none 0s ease 0s;" width="506" height="158" viewBox="0 0 5060 1580">
    <g id="l78Pj7WVELnPk0GSvh9ExBN" fill="rgb(0,0,0)" style="transform: none;">
        <g>
            <path id="p4tOES489" d="M27 1560 l-25 -20 45 -112 c100 -255 254 -738 284 -893 13 -68 16 -73 104 -170 183 -203 290 -326 299 -346 8 -17 16 -20 40 -15 16 4 33 11 36 17 8 12 -75 298 -136 468 -83 228 -171 397 -441 849 -100 165 -151 242 -163 242 -10 0 -29 -9 -43 -20z m396 -790 c64 -122 173 -378 164 -386 -3 -3 -36 31 -75 75 -55 63 -71 88 -77 123 -7 42 -66 263 -81 303 -14 39 4 8 69 -115z"></path>
            <path id="pQHfy2gIW" d="M4827 1338 c-270 -452 -358 -621 -441 -849 -61 -170 -144 -456 -136 -468 3 -6 20 -13 36 -17 24 -5 32 -2 40 15 9 20 116 143 299 346 88 97 91 102 104 170 30 155 184 638 284 893 l45 112 -25 20 c-14 11 -33 20 -43 20 -12 0 -63 -77 -163 -242z m-128 -474 c-6 -16 -28 -98 -50 -182 l-38 -153 -67 -75 c-37 -41 -69 -73 -71 -70 -9 8 101 266 165 388 64 121 85 154 61 92z"></path>
        </g>
    </g>
    <g id="l25XWkJuCAjvd67t2tlalnv" fill="rgb(225,121,113)" style="transform: none;">
        <g>
            <path id="peaT20zhJ" d="M213 1205 c3 -11 33 -105 67 -210 34 -104 79 -259 100 -343 l39 -152 128 -145 c70 -79 129 -140 131 -136 5 13 -56 195 -110 331 -54 137 -132 289 -264 516 -89 155 -101 172 -91 139z"></path>
            <path id="p23kvdgAz" d="M4748 1052 c-140 -243 -201 -361 -256 -502 -54 -136 -115 -318 -110 -331 2 -4 61 58 132 137 l128 145 28 117 c27 110 79 287 150 501 17 52 29 95 27 97 -2 2 -46 -72 -99 -164z"></path>
        </g>
    </g>
</svg>