<svg class="img-fluid" id="outputsvg" xmlns="http://www.w3.org/2000/svg" style="transform: matrix(3.71293, 0, 0, 3.71293, 0, 0); transform-origin: 50% 50% 0px; cursor: move; transition: none 0s ease 0s;" width="127" height="40" viewBox="0 0 1270 400">
  <g id="l6PCd2Pn5QghWUKTYfnb1QIj" fill="rgb(0,0,0)" stroke="rgb(0,0,0)" stroke-width="1" fill-rule="evenodd" style="transform: none;">
    <g style="transform: none;">
      <path id="pit1WYuxJ" d="M156 384 C142 381 129 370 127 360 C124 348 102 334 71 323 C44 313 23 302 26 297 C29 293 24 287 15 283 C2 278 2 273 19 241 C59 162 175 83 327 31 C393 8 430 4 430 18 C430 23 443 33 460 40 C530 69 574 125 609 229 C627 281 628 293 616 304 C591 329 507 351 395 360 C334 366 270 374 252 380 C215 391 190 392 156 384 M165 305 C156 292 134 276 114 269 L78 257 115 219 C157 176 241 128 324 100 C391 77 438 86 485 133 C521 169 558 255 543 270 C534 279 509 283 302 309 C257 315 211 322 200 325 C186 328 175 322 165 305 "></path>
      <path id="pChTyc3Uv" d="M1007 380 C989 374 927 366 869 360 C764 351 676 328 652 306 C628 283 695 122 746 78 C756 70 788 50 816 35 C867 8 868 8 921 23 C1063 65 1209 160 1249 238 C1266 271 1266 273 1249 290 C1239 300 1211 317 1185 328 C1160 339 1140 355 1140 363 C1140 386 1062 396 1007 380 M1007 315 C978 308 932 301 905 300 C831 299 729 279 723 264 C715 243 760 151 791 125 C839 85 882 78 945 100 C1028 128 1112 176 1154 219 L1191 257 1156 269 C1136 276 1111 292 1100 305 C1076 334 1075 334 1007 315 "></path>
    </g>
  </g>
  <g id="l76PhA7lGZI6x816NoR8QS3j" fill="rgb(225,121,113)" stroke="rgb(225,121,113)" stroke-width="1" fill-rule="evenodd" style="transform: none;">
    <g style="transform: none;">
      <path id="pxpnVWMuE" d="M165 305 C156 292 134 276 114 269 L78 257 115 219 C157 176 241 128 324 100 C391 77 438 86 485 133 C521 169 558 255 543 270 C534 279 509 283 302 309 C257 315 211 322 200 325 C186 328 175 322 165 305 "></path>
      <path id="pT6iOjlbo" d="M1007 315 C978 308 932 301 905 300 C831 299 729 279 723 264 C715 243 760 151 791 125 C839 85 882 78 945 100 C1028 128 1112 176 1154 219 L1191 257 1156 269 C1136 276 1111 292 1100 305 C1076 334 1075 334 1007 315 "></path>
    </g>
  </g>
</svg>