<svg class="img-fluid" id="outputsvg" xmlns="http://www.w3.org/2000/svg" style="transform: none; transform-origin: 50% 50% 0px; cursor: move; transition: none 0s ease 0s;" width="115" height="37" viewBox="0 0 1150 370">
    <g id="l5i5nQXBIXsMmHQXW2Gc5Na" fill="rgb(0,0,0)" style="transform: none;">
        <g>
            <path id="pxdmhRpp5" d="M92 345 c-77 -36 -87 -48 -84 -112 3 -60 33 -156 57 -183 32 -35 187 -58 277 -41 32 5 80 20 107 31 49 22 49 22 46 64 -1 23 -7 51 -12 62 -6 10 -9 24 -6 30 6 17 -118 127 -170 152 -65 31 -146 29 -215 -3z m108 -190 c30 -8 84 -15 120 -16 l65 0 -40 -16 c-28 -10 -59 -13 -102 -9 -70 6 -103 19 -103 41 0 8 1 15 3 15 1 0 27 -7 57 -15z"></path>
            <path id="pSdSmtteo" d="M841 348 c-51 -25 -174 -136 -168 -152 3 -6 0 -20 -6 -30 -5 -11 -11 -39 -12 -62 -3 -42 -3 -42 46 -64 27 -11 75 -26 107 -31 90 -17 245 6 277 41 24 27 54 123 57 183 3 64 -7 76 -84 112 -69 32 -154 33 -217 3z m172 -188 c-7 -28 -30 -38 -97 -46 -36 -4 -72 -2 -103 7 l-48 14 85 6 c66 5 148 24 167 38 0 0 -1 -8 -4 -19z"></path>
        </g>
    </g>
    <g id="lD55NfQowkvr4XGg7gu6Ou" fill="rgb(225,121,113)" style="transform: none;">
        <g>
            <path id="pFgF6fyBW" d="M128 283 c-36 -14 -38 -17 -38 -63 0 -56 22 -115 47 -125 10 -4 58 -9 108 -12 93 -5 171 12 169 36 -1 6 -2 19 -2 30 -2 16 -13 19 -84 23 -95 6 -193 35 -193 58 0 17 3 17 65 -6 25 -9 74 -19 110 -21 l65 -6 -30 33 c-62 66 -140 86 -217 53z"></path>
            <path id="p9zrgv2gt" d="M870 280 c-19 -10 -48 -33 -65 -50 l-30 -33 65 6 c36 2 85 12 110 21 62 23 65 23 65 7 0 -23 -101 -53 -192 -59 -72 -4 -83 -7 -84 -23 -1 -11 -2 -24 -3 -30 -2 -24 76 -41 169 -36 50 3 98 8 108 12 25 10 47 69 47 125 0 46 -1 48 -40 64 -53 21 -106 20 -150 -4z"></path>
        </g>
    </g>
</svg>