<svg class="img-fluid" id="outputsvg" xmlns="http://www.w3.org/2000/svg" style="transform: matrix(2.197, 0, 0, 2.197, 0, 0); transform-origin: 50% 50% 0px; cursor: move; transition: none 0s ease 0s;" width="138" height="40" viewBox="0 0 1380 400">
    <g id="l1BtCwaaBShvEQ0zt2l06Pu" fill="rgb(0,0,0)" style="transform: none;">
        <g>
            <path id="p16eTblyyj" d="M238 386 c-58 -21 -122 -62 -183 -118 l-57 -52 4 -60 c5 -65 32 -132 60 -150 26 -16 62 10 102 73 19 31 65 90 101 131 68 79 91 125 81 166 -5 19 -13 24 -39 24 -17 -1 -48 -7 -69 -14z"></path>
            <path id="peCojOFhU" d="M1035 377 c-11 -42 11 -87 80 -167 36 -41 82 -100 101 -131 40 -63 76 -89 102 -73 28 18 55 85 60 150 l4 60 -61 56 c-77 69 -165 117 -230 125 -47 5 -50 4 -56 -20z"></path>
        </g>
    </g>
    <g id="l4I3SVveZtasCh9u1yUlTsL" fill="rgb(225,121,113)" style="transform: none;">
        <g>
            <path id="pRq5l0pZ5" d="M185 276 c-28 -19 -66 -50 -86 -68 -34 -30 -36 -36 -28 -66 5 -17 13 -32 17 -31 4 0 26 26 49 57 23 31 59 76 79 100 44 51 35 53 -31 8z"></path>
            <path id="p9CeZPIYm" d="M1164 268 c20 -24 56 -69 79 -100 23 -31 45 -57 49 -57 4 -1 12 14 17 31 8 30 6 36 -28 66 -43 39 -132 102 -145 102 -5 0 8 -19 28 -42z"></path>
        </g>
    </g>
</svg>