<svg class="img-fluid" id="outputsvg" xmlns="http://www.w3.org/2000/svg" style="transform: none; transform-origin: 50% 50% 0px; cursor: move; transition: none 0s ease 0s;" width="88" height="19" viewBox="0 0 880 190">
    <g id="l5bRlMHgBmjCBODYntkaLTI" fill="rgb(0,0,0)" style="transform: none;">
        <g>
            <path id="pMq4pWA5z" d="M110 180 c0 -6 -25 -37 -55 -70 -37 -40 -55 -68 -55 -85 l0 -26 87 3 86 3 22 60 c13 33 21 63 18 68 -8 14 -103 57 -103 47z"></path>
            <path id="p3t2BNo7B" d="M725 173 c-16 -8 -40 -21 -52 -29 l-23 -14 24 -63 23 -62 91 -3 c86 -3 92 -1 92 17 0 11 -24 46 -53 78 -30 32 -58 65 -63 75 -8 15 -12 15 -39 1z"></path>
        </g>
    </g>
    <g id="l2SFfHRUzDypX15i4gmgk54" fill="rgb(225,121,113)" style="transform: none;">
        <g>
            <path id="pz3EjTyxn" d="M83 90 c-24 -26 -43 -51 -43 -54 0 -3 24 -6 54 -6 l54 0 15 45 c15 42 15 46 -3 55 -28 15 -31 13 -77 -40z"></path>
            <path id="prpZuuJe1" d="M708 130 c-15 -9 -15 -14 -1 -55 l15 -45 54 0 c30 0 54 3 54 8 -1 11 -87 102 -97 102 -4 0 -16 -5 -25 -10z"></path>
        </g>
    </g>
</svg>