<svg class="img-fluid" id="outputsvg" xmlns="http://www.w3.org/2000/svg" style="transform: none; transform-origin: 50% 50% 0px; cursor: move; transition: none 0s ease 0s;" width="80" height="42" viewBox="0 0 800 420">
    <g id="l5s6XTBh9joLoMs4jAO2KNO" fill="rgb(225,121,113)" style="transform: none;">
        <g>
            <path id="puzouSN42" d="M82 291 c3 -28 12 -59 22 -69 9 -10 16 -27 16 -36 0 -31 36 -71 92 -102 52 -28 56 -29 198 -29 142 0 146 1 198 29 56 31 92 71 92 102 0 9 7 26 16 36 10 10 19 41 22 69 l5 51 -44 -4 c-24 -3 -99 -15 -167 -29 l-122 -23 -123 23 c-67 14 -142 26 -166 29 l-44 4 5 -51z"></path>
        </g>
    </g>
    <g id="l3qLXnVi5PuO3N50A3xTfjB" fill="rgb(0,0,0)" style="transform: none;">
        <g>
            <path id="p1201iWimi" d="M36 342 c-25 -74 -1 -136 86 -218 86 -82 167 -114 288 -114 121 0 202 32 288 114 81 77 110 142 90 208 -6 21 -16 42 -22 48 -7 5 -61 -2 -146 -22 -175 -39 -246 -39 -422 1 -76 17 -140 31 -142 31 -2 0 -12 -21 -20 -48z m209 -62 c136 -26 203 -25 345 4 63 13 117 22 118 20 2 -1 -2 -15 -10 -31 -17 -37 -134 -95 -223 -112 -83 -15 -160 -2 -260 44 -74 33 -88 45 -100 84 -6 19 -4 23 9 18 8 -3 63 -15 121 -27z m-31 -105 c87 -38 181 -52 265 -37 39 6 95 23 127 37 31 14 58 25 61 25 2 0 -5 -13 -16 -28 -11 -15 -43 -41 -73 -58 -50 -27 -59 -29 -168 -29 -109 0 -118 2 -168 29 -30 17 -62 43 -73 58 -11 15 -18 28 -16 28 3 0 30 -11 61 -25z"></path>
        </g>
    </g>
</svg>