<svg class="img-fluid" id="outputsvg" xmlns="http://www.w3.org/2000/svg" style="transform: matrix(0.769231, 0, 0, 0.769231, 0, -1); transform-origin: 50% 50% 0px; cursor: move; transition: none 0s ease 0s;" width="162" height="62" viewBox="0 0 1620 620">
    <g id="l3sgUfEvc28LpsBhjWDxjtD" fill="rgb(0,0,0)" style="transform: none;">
        <g>
            <path id="p16vXFoSn7" d="M212 611 c-22 -16 -107 -148 -142 -224 -60 -128 -83 -251 -64 -345 7 -36 35 -45 99 -34 38 7 40 9 47 55 15 106 92 203 271 341 l88 67 -47 52 c-74 80 -107 98 -181 96 -34 -1 -66 -5 -71 -8z m123 -123 c0 -4 -80 -72 -139 -118 -22 -17 43 91 77 128 18 20 23 21 41 8 12 -7 21 -16 21 -18z"></path>
            <path id="p16wm3DPhF" d="M1239 598 c-19 -13 -57 -46 -83 -75 l-47 -52 88 -67 c179 -138 256 -235 271 -341 7 -46 9 -48 47 -55 64 -11 92 -2 99 34 19 94 -4 217 -64 345 -35 76 -120 208 -142 224 -5 3 -37 7 -71 8 -49 1 -69 -3 -98 -21z m166 -182 c40 -63 39 -63 -63 19 l-62 50 22 18 c21 18 22 17 44 -5 12 -13 39 -50 59 -82z"></path>
        </g>
    </g>
    <g id="lEVHNuR73gfqfmVPFhxZUn" fill="rgb(225,121,113)" style="transform: none;">
        <g>
            <path id="pMZgNHg99" d="M243 528 c-88 -96 -174 -302 -172 -413 l0 -40 18 51 c27 73 44 104 93 162 37 44 134 129 201 178 l22 15 -37 34 c-46 43 -93 47 -125 13z"></path>
            <path id="p6AO4kgZZ" d="M1253 516 l-38 -35 22 -15 c67 -49 164 -134 201 -178 49 -58 66 -89 93 -162 l18 -51 0 40 c2 98 -66 274 -147 380 -32 42 -44 50 -74 53 -31 3 -44 -3 -75 -32z"></path>
        </g>
    </g>
</svg>