<svg class="img-fluid" id="outputsvg" xmlns="http://www.w3.org/2000/svg" style="transform: matrix(0.3, 0, 0, 0.3, 0, 0); transform-origin: 50% 50% 0px; cursor: move; transition: none 0s ease 0s;" width="61" height="34" viewBox="0 0 610 340">
    <g id="l5equ6E6Ibsi65C7aWSaRBf" fill="rgb(0,0,0)" style="transform: none;">
        <g>
            <path id="pwEIINxqx" d="M100 284 c-70 -93 -117 -194 -91 -194 5 0 11 -10 13 -22 3 -20 16 -26 98 -45 121 -28 127 -28 134 2 4 14 13 25 21 25 19 0 19 29 0 100 -8 30 -15 79 -15 108 0 37 -4 52 -14 52 -7 0 -19 7 -26 15 -7 8 -27 15 -45 15 -28 0 -39 -8 -75 -56z m68 -159 c-9 -9 -30 14 -23 25 6 9 10 8 17 -4 6 -10 8 -19 6 -21z"></path>
            <path id="p16zKIc9Xp" d="M390 325 c-7 -8 -19 -15 -26 -15 -10 0 -14 -15 -14 -52 0 -29 -7 -78 -15 -108 -19 -71 -19 -100 0 -100 8 0 17 -11 21 -25 7 -30 13 -30 134 -2 82 19 95 25 98 45 2 12 8 22 13 22 26 0 -21 101 -91 194 -36 48 -47 56 -75 56 -18 0 -38 -7 -45 -15z m70 -195 c-18 -11 -22 -7 -14 14 5 13 10 14 18 6 8 -8 7 -13 -4 -20z"></path>
        </g>
    </g>
    <g id="l1tgekLKTRMXH6IeOAHmWzH" fill="rgb(225,121,113)" style="transform: none;">
        <g>
            <path id="p7MFP20sW" d="M125 192 c-29 -44 -45 -76 -39 -81 8 -8 101 -31 123 -31 8 0 1 39 -27 154 -7 30 -8 29 -57 -42z"></path>
            <path id="pkaVNx2GN" d="M424 223 c-3 -21 -12 -62 -19 -90 -7 -29 -9 -53 -5 -53 23 0 116 23 124 31 6 5 -9 36 -38 79 -27 38 -50 70 -52 70 -2 0 -6 -17 -10 -37z"></path>
        </g>
    </g>
</svg>