<svg class="img-fluid" id="outputsvg" xmlns="http://www.w3.org/2000/svg" style="transform: none; transform-origin: 50% 50% 0px; cursor: move; transition: none 0s ease 0s;" width="172" height="42" viewBox="0 0 1720 420">
    <g id="l4eGM1qBf0TAPDtb5OPvHM4" fill="rgb(0,0,0)" style="transform: none;">
        <g>
            <path id="pNg0N30e5" d="M28 404 c-24 -13 -28 -21 -28 -60 0 -33 4 -46 18 -51 43 -15 82 -55 93 -96 6 -23 23 -72 37 -109 26 -67 26 -67 74 -78 73 -15 201 -13 246 5 l38 16 2 67 c1 37 7 111 13 165 5 53 7 103 2 110 -4 6 -6 19 -5 27 4 23 -449 27 -490 4z m301 -100 l84 -6 -7 -91 c-4 -53 -12 -95 -19 -100 -19 -13 -111 2 -124 20 -13 17 -31 64 -56 146 l-15 48 27 -5 c14 -3 64 -8 110 -12z"></path>
            <path id="pjppE2NRj" d="M1375 413 c-101 -12 -165 -26 -175 -38 -8 -10 -8 -40 -1 -112 6 -54 12 -128 13 -165 l2 -67 38 -16 c45 -18 173 -20 246 -5 48 11 48 11 74 78 14 37 31 86 37 109 11 41 50 81 94 96 13 5 17 18 17 51 0 67 -24 76 -187 75 -70 -1 -141 -4 -158 -6z m138 -140 c-25 -82 -43 -129 -56 -146 -13 -18 -105 -33 -124 -20 -7 5 -15 48 -19 100 l-7 91 89 7 c49 3 94 8 99 10 29 10 32 4 18 -42z"></path>
        </g>
    </g>
    <g id="l1kRWRYcCF2rGBVpXJuhHHj" fill="rgb(216,124,117)" style="transform: none;">
        <g>
            <path id="pcd2UFw5j" d="M100 345 c0 -3 16 -19 35 -37 27 -24 40 -49 51 -93 26 -99 47 -131 91 -138 52 -9 125 -8 140 1 13 8 35 232 24 243 -13 15 -341 37 -341 24z"></path>
            <path id="pM6K8bRGP" d="M1380 338 c-52 -5 -98 -13 -101 -16 -11 -12 11 -236 24 -244 15 -9 88 -10 140 -1 44 7 65 39 91 138 11 44 24 69 51 93 19 18 35 34 35 37 0 7 -133 3 -240 -7z"></path>
        </g>
    </g>
</svg>