<svg class="img-fluid" id="outputsvg" xmlns="http://www.w3.org/2000/svg" style="transform: none; transform-origin: 50% 50% 0px; cursor: move; transition: none 0s ease 0s;" width="176" height="29" viewBox="0 0 1760 290">
    <g id="l4EHJ9pcyKKGpEN9YtVDFzJ" fill="rgb(0,0,0)" style="transform: none;">
        <g>
            <path id="p5UjOKR2C" d="M309 271 c-21 -17 -24 -30 -30 -117 -4 -55 -5 -102 -2 -106 2 -5 24 -8 47 -8 43 0 44 0 55 45 6 25 14 73 18 106 6 57 4 63 -18 80 -30 24 -41 23 -70 0z"></path>
            <path id="p05SYaYg" d="M453 275 c-35 -15 -35 -17 -54 -133 -11 -75 -6 -121 14 -134 7 -4 37 -8 67 -8 55 0 55 0 67 38 6 20 17 65 24 99 l13 63 -32 33 c-18 18 -32 38 -32 45 0 16 -27 15 -67 -3z m43 -149 c-5 -30 -12 -46 -21 -46 -14 0 -14 14 1 89 9 45 27 6 20 -43z"></path>
            <path id="piBB4WsgX" d="M1240 278 c0 -7 -14 -27 -32 -45 l-32 -33 13 -63 c7 -34 17 -77 24 -95 11 -32 11 -32 79 -32 54 0 70 3 75 16 7 20 -15 202 -28 225 -15 29 -99 51 -99 27z m53 -155 c4 -32 2 -43 -8 -43 -16 0 -31 82 -20 101 11 16 21 -5 28 -58z"></path>
            <path id="ph2YDPhhU" d="M1381 271 c-22 -17 -23 -22 -17 -82 4 -35 12 -83 18 -106 10 -42 11 -43 54 -43 23 0 45 3 47 8 3 4 2 51 -2 106 -6 87 -9 100 -30 117 -29 23 -40 24 -70 0z"></path>
            <path id="phdmcsXgA" d="M170 261 c-17 -14 -29 -17 -42 -10 -28 15 -84 10 -109 -10 l-23 -18 25 -30 c13 -16 37 -57 53 -91 26 -54 33 -62 58 -62 l28 0 1 73 2 72 8 -62 c10 -79 13 -83 54 -83 l33 0 7 106 c4 60 4 109 -2 115 -19 19 -68 20 -93 0z"></path>
            <path id="pV6YWkRO" d="M1513 270 c-26 -10 -27 -26 -17 -153 l7 -77 33 0 c40 0 43 4 53 83 l8 62 2 -72 1 -73 28 0 c25 0 32 8 58 62 16 34 40 75 53 91 l25 30 -23 18 c-25 20 -86 25 -110 10 -10 -7 -24 -3 -42 10 -30 21 -43 22 -76 9z"></path>
        </g>
    </g>
    <g id="l4KFlWh9nAksn8lcIujaMts" fill="rgb(216,124,117)" style="transform: none;">
        <g>
            <path id="pNjF8mVOB" d="M332 237 c-5 -7 -12 -49 -15 -95 -5 -64 -4 -83 6 -80 12 4 45 114 46 154 1 25 -23 38 -37 21z"></path>
            <path id="p1VtIIs3N" d="M468 243 c-10 -3 -18 -10 -19 -16 0 -7 -6 -47 -13 -90 -14 -87 -14 -88 46 -91 l33 -1 15 73 14 73 -29 28 c-17 15 -38 26 -47 24z"></path>
            <path id="pnL1BFr9i" d="M1244 219 l-28 -29 15 -73 14 -72 33 1 c60 3 60 4 46 91 -7 43 -13 83 -13 89 -2 26 -40 21 -67 -7z"></path>
            <path id="p19PcbP9Xn" d="M1401 241 c-12 -8 -12 -19 -2 -71 15 -77 27 -110 40 -110 14 0 2 161 -13 177 -7 8 -16 9 -25 4z"></path>
            <path id="p1Dt67GKSH" d="M197 233 c-3 -5 1 -44 8 -88 10 -70 12 -76 18 -45 15 83 15 129 0 134 -19 8 -21 7 -26 -1z"></path>
            <path id="pGMV8d9a6" d="M1534 232 c-11 -7 -3 -146 8 -158 5 -4 21 105 23 150 0 13 -18 17 -31 8z"></path>
            <path id="p18NzXnnV6" d="M58 223 c-3 -5 13 -39 34 -78 l37 -70 1 68 c0 63 -2 68 -26 77 -30 12 -42 12 -46 3z"></path>
            <path id="p10jWf5W3u" d="M1653 220 c-21 -8 -23 -16 -23 -77 l1 -68 33 65 c19 36 34 70 35 75 3 14 -19 16 -46 5z"></path>
        </g>
    </g>
</svg>