<svg class="img-fluid" id="outputsvg" xmlns="http://www.w3.org/2000/svg" style="transform: none; transform-origin: 50% 50% 0px; cursor: move; transition: none 0s ease 0s;" width="233" height="132" viewBox="0 0 2330 1320">
    <g id="l5heNaUYherkZWkaAYFEY3r" fill="rgb(0,0,0)" style="transform: none;">
        <g>
            <path id="pGpgcXaIQ" d="M107 1214 c-83 -229 -107 -368 -107 -617 0 -183 18 -326 62 -502 l23 -90 38 2 c58 4 113 39 132 85 36 91 37 240 5 688 -5 74 -13 221 -16 326 l-7 190 -38 12 c-21 7 -42 12 -46 12 -5 0 -25 -48 -46 -106z m58 -614 c17 -277 15 -410 -5 -410 -23 0 -65 355 -56 480 9 123 27 243 36 233 4 -4 15 -141 25 -303z"></path>
            <path id="p1ClxUtiHf" d="M2124 1307 l-31 -10 -7 -191 c-3 -105 -11 -252 -16 -326 -32 -448 -31 -597 5 -688 19 -46 74 -81 132 -85 l38 -2 23 90 c44 176 62 319 62 502 0 249 -24 388 -107 617 -40 112 -41 112 -99 93z m97 -583 c9 -91 9 -149 1 -240 -14 -141 -41 -294 -52 -294 -20 0 -22 133 -6 405 10 160 20 297 23 305 9 23 20 -39 34 -176z"></path>
        </g>
    </g>
    <g id="l5x30wBbgstDW8QpS8QgulG" fill="rgb(216,124,117)" style="transform: none;">
        <g>
            <path id="pcOi1e0aK" d="M138 1060 c-47 -146 -62 -256 -62 -455 0 -99 6 -216 13 -260 18 -114 51 -255 60 -255 18 0 39 38 50 88 16 75 14 194 -9 531 -11 163 -21 328 -22 366 l-3 70 -27 -85z"></path>
            <path id="pDEWmDrH5" d="M2160 1063 c0 -43 -9 -204 -20 -358 -22 -321 -25 -452 -9 -527 11 -50 32 -88 50 -88 9 0 42 141 60 255 19 120 17 419 -4 535 -17 94 -63 260 -72 260 -3 0 -5 -35 -5 -77z"></path>
        </g>
    </g>
</svg>