<svg class="img-fluid" id="outputsvg" xmlns="http://www.w3.org/2000/svg" style="transform: none; transform-origin: 50% 50% 0px; cursor: move; transition: none 0s ease 0s;" width="185" height="189" viewBox="0 0 1850 1890">
    <g id="l2kzMaM8YiL8AgATwM7RrkS" fill="rgb(0,0,0)" style="transform: none;">
        <g>
            <path id="pRu0fg2BO" d="M281 1879 c-14 -5 -30 -8 -37 -5 -15 6 -30 -32 -93 -227 -111 -342 -151 -619 -151 -1045 0 -345 23 -464 109 -553 33 -35 55 -49 74 -49 25 0 28 6 81 173 141 439 170 594 170 897 0 210 -4 269 -45 610 -26 217 -24 210 -57 209 -15 0 -38 -5 -51 -10z m29 -466 c43 -427 17 -663 -119 -1093 -36 -114 -40 -123 -49 -98 -28 69 -36 163 -36 393 0 352 35 605 124 903 22 73 40 136 41 140 0 4 5 -4 9 -18 5 -14 18 -116 30 -227z"></path>
            <path id="p1FENrqzOn" d="M1486 1869 c-6 -25 -35 -265 -58 -469 -6 -63 -12 -212 -12 -330 0 -303 29 -458 170 -897 53 -167 56 -173 81 -173 19 0 41 14 74 49 86 89 109 208 109 553 0 443 -40 709 -165 1087 -30 91 -58 171 -63 176 -4 6 -16 11 -27 12 -11 1 -39 5 -62 9 -39 6 -42 5 -47 -17z m133 -349 c90 -300 125 -553 125 -905 0 -230 -8 -324 -36 -393 -9 -25 -13 -16 -49 98 -97 306 -139 535 -139 756 0 162 41 596 55 582 2 -2 22 -64 44 -138z"></path>
        </g>
    </g>
    <g id="l3P28g3srZntmXj1RBD8bXs" fill="rgb(216,124,117)" style="transform: none;">
        <g>
            <path id="pU5o8nuWk" d="M241 1678 c-83 -256 -118 -409 -148 -648 -24 -201 -24 -661 0 -769 17 -75 45 -142 63 -148 11 -4 110 314 149 477 72 302 73 589 4 1118 -6 50 -15 92 -19 92 -5 0 -26 -55 -49 -122z"></path>
            <path id="pm0IAEW2X" d="M1541 1708 c-69 -529 -68 -816 4 -1118 39 -163 138 -481 149 -477 18 6 46 73 63 148 24 108 24 568 0 769 -19 157 -55 341 -88 454 -40 140 -101 316 -109 316 -4 0 -13 -42 -19 -92z"></path>
        </g>
    </g>
</svg>