<svg class="img-fluid" id="outputsvg" xmlns="http://www.w3.org/2000/svg" style="transform: none; transform-origin: 50% 50% 0px; cursor: move; transition: none 0s ease 0s;" width="94" height="127" viewBox="0 0 940 1270">
    <g id="l7P5gUbenPpjqbWATPsS3JD" fill="rgb(0,0,0)" style="transform: none;">
        <g>
            <path id="p3rHXD4fu" d="M208 1253 c-21 -23 -111 -266 -147 -396 -90 -323 -73 -648 44 -807 33 -45 41 -50 74 -50 l38 0 0 98 c1 66 11 146 32 252 52 262 63 348 62 495 0 130 -18 299 -42 388 -11 41 -35 49 -61 20z m-1 -440 c-6 -99 -36 -290 -70 -453 l-14 -65 -8 79 c-13 135 6 291 57 460 36 122 43 118 35 -21z"></path>
            <path id="pA99kHp6j" d="M671 1233 c-24 -89 -42 -258 -42 -388 -1 -147 10 -233 62 -495 21 -106 31 -186 32 -252 l0 -98 38 0 c33 0 41 5 74 50 117 159 134 484 44 807 -36 130 -126 373 -147 396 -26 29 -50 21 -61 -20z m98 -399 c50 -170 69 -326 56 -460 l-8 -79 -14 65 c-35 166 -64 355 -69 455 -7 125 2 130 35 19z"></path>
        </g>
    </g>
    <g id="l6LYWdbViBIXmFQnZ4Z9qYL" fill="rgb(216,124,117)" style="transform: none;">
        <g>
            <path id="p1Gvya8e9R" d="M167 939 c-71 -216 -82 -278 -82 -469 0 -161 11 -241 39 -298 11 -20 15 -8 34 100 12 68 34 186 49 263 22 119 26 166 26 315 0 96 -5 188 -10 204 -8 26 -13 15 -56 -115z"></path>
            <path id="p1JfUd60d" d="M713 1033 c-4 -26 -7 -118 -7 -203 1 -121 7 -186 28 -295 14 -77 36 -195 48 -263 24 -136 30 -138 59 -22 21 84 18 363 -5 470 -15 72 -101 348 -111 358 -2 2 -7 -18 -12 -45z"></path>
        </g>
    </g>
</svg>