<svg class="img-fluid" id="outputsvg" xmlns="http://www.w3.org/2000/svg" style="transform: none; transform-origin: 50% 50% 0px; cursor: move; transition: none 0s ease 0s;" width="103" height="191" viewBox="0 0 1030 1910">
    <g id="l5arXqyeHclINw3JeGomumI" fill="rgb(0,0,0)" style="transform: none;">
        <g>
            <path id="p1AkYkT2zW" d="M137 1778 c-91 -332 -96 -378 -107 -948 -6 -272 -14 -559 -19 -637 -10 -171 -7 -193 24 -193 19 0 32 16 66 77 150 271 186 383 196 613 6 146 -5 284 -53 620 -39 270 -42 414 -10 520 9 30 13 57 8 61 -4 4 -21 10 -38 13 l-31 7 -36 -133z m37 -778 c22 -184 20 -343 -3 -455 -37 -174 -40 -160 -40 181 -1 176 2 363 6 415 7 90 7 92 14 44 5 -27 15 -111 23 -185z"></path>
            <path id="peu2Po1d8" d="M810 1901 c-21 -6 -24 -12 -22 -40 2 -18 10 -51 18 -73 23 -67 17 -218 -20 -481 -48 -334 -59 -471 -53 -617 10 -230 46 -342 196 -612 34 -62 47 -78 66 -78 31 0 34 22 24 193 -5 78 -13 365 -19 637 -10 496 -14 551 -55 740 -30 143 -88 340 -99 339 -6 -1 -22 -4 -36 -8z m88 -1151 c1 -309 -1 -341 -14 -306 -7 21 -21 77 -30 125 -20 106 -15 318 12 526 l19 140 6 -70 c4 -38 7 -225 7 -415z"></path>
        </g>
    </g>
    <g id="l2nhS6HpciyFnZb8aqy8jGi" fill="rgb(216,124,117)" style="transform: none;">
        <g>
            <path id="plmEBsLY9" d="M141 1465 c-1 -5 -9 -55 -17 -110 -11 -73 -18 -238 -24 -610 -4 -280 -6 -512 -4 -514 5 -5 50 97 75 167 69 198 67 440 -6 922 -13 85 -24 151 -24 145z"></path>
            <path id="pESJPNihv" d="M862 1307 c-70 -497 -71 -713 -3 -909 25 -70 70 -172 75 -167 2 2 0 234 -4 514 -7 375 -13 538 -24 614 -9 57 -17 105 -18 107 -2 1 -13 -70 -26 -159z"></path>
        </g>
    </g>
</svg>