<svg class="img-fluid" id="outputsvg" xmlns="http://www.w3.org/2000/svg" style="transform: matrix(1, 0, 0, 1, -1, 0); transform-origin: 50% 50% 0px; cursor: move; transition: none 0s ease 0s;" width="193" height="234" viewBox="0 0 1930 2340">
    <g id="l1hN3REiDiZr8dZsCuMPUkx" fill="rgb(0,0,0)" style="transform: none;">
        <g>
            <path id="pOJKIglnr" d="M245 2328 c-2 -7 -16 -85 -30 -173 -15 -88 -56 -324 -91 -525 -83 -473 -101 -597 -115 -815 -13 -198 -7 -585 10 -681 6 -32 13 -76 16 -96 5 -29 11 -38 25 -38 10 0 22 10 26 22 13 43 48 328 64 523 17 216 38 347 81 513 74 290 89 442 89 943 l0 327 -22 6 c-35 9 -48 7 -53 -6z"></path>
            <path id="pKxYpjx9N" d="M1628 2333 c-17 -4 -18 -28 -18 -331 0 -502 15 -654 89 -944 43 -166 64 -297 81 -513 16 -195 51 -480 64 -523 4 -12 16 -22 26 -22 14 0 20 9 25 38 3 20 10 64 16 96 17 96 23 483 10 681 -14 218 -31 339 -116 819 -36 204 -77 445 -93 536 -30 175 -31 178 -84 163z"></path>
        </g>
    </g>
    <g id="l26OGZNwZyMWDdSfJUoZ1qn" fill="rgb(216,124,117)" style="transform: none;">
        <g>
            <path id="pQQWlgRYh" d="M181 1512 c-73 -420 -89 -540 -96 -711 l-5 -126 15 105 c9 58 38 197 65 310 27 113 54 241 60 286 10 76 32 485 26 491 -1 1 -30 -158 -65 -355z"></path>
            <path id="px5ZKLYRN" d="M1685 1775 c17 -392 20 -415 85 -685 27 -113 56 -252 65 -310 l15 -105 -5 128 c-3 70 -14 193 -25 273 -18 136 -126 767 -135 789 -2 6 -2 -35 0 -90z"></path>
        </g>
    </g>
</svg>