<svg class="img-fluid" id="outputsvg" xmlns="http://www.w3.org/2000/svg" style="transform: none; transform-origin: 50% 50% 0px; cursor: move; transition: none 0s ease 0s;" width="135" height="74" viewBox="0 0 1350 740">
    <g id="l4IITR3TB9wq7gJ9IY9oCU3" fill="rgb(0,0,0)" style="transform: none;">
        <g>
            <path id="p593khUcW" d="M135 703 c-67 -159 -151 -613 -126 -676 6 -16 16 -27 23 -25 22 8 146 493 163 641 6 48 4 61 -10 77 -25 28 -33 25 -50 -17z"></path>
            <path id="p14QHoDWNw" d="M1166 721 c-15 -17 -17 -30 -11 -78 17 -148 141 -633 163 -641 26 -8 35 50 22 148 -27 224 -115 577 -146 587 -6 2 -19 -5 -28 -16z"></path>
        </g>
    </g>
</svg>