<svg class="img-fluid" id="outputsvg" xmlns="http://www.w3.org/2000/svg" style="transform: none; transform-origin: 50% 50% 0px; cursor: move; transition: none 0s ease 0s;" width="74" height="77" viewBox="0 0 740 770">
    <g id="l21dJOdsTe4GbvzG8fsm4f9" fill="rgb(0,0,0)" style="transform: none;">
        <g>
            <path id="pd3B8On2P" d="M76 751 c-3 -9 -19 -88 -37 -176 -23 -117 -32 -189 -33 -270 -1 -110 -1 -110 39 -185 22 -41 40 -81 40 -88 0 -19 27 -32 50 -25 26 8 48 31 40 43 -3 5 2 78 11 162 17 156 15 472 -3 528 -7 22 -14 25 -55 26 -35 0 -49 -4 -52 -15z"></path>
            <path id="pph7TLELN" d="M555 740 c-16 -70 -17 -380 -1 -528 9 -84 14 -157 11 -162 -8 -12 14 -35 40 -43 23 -7 50 6 50 25 0 7 18 47 40 88 40 75 40 75 39 185 -1 81 -10 153 -33 270 -18 88 -34 167 -36 175 -4 11 -19 15 -54 15 -45 0 -50 -3 -56 -25z"></path>
        </g>
    </g>
    <g id="l1FlmEO8g2DxBFarjoVD5Fk" fill="rgb(216,124,117)" style="transform: none;">
        <g>
            <path id="p117Ft3TW" d="M95 452 c-21 -131 -22 -219 -3 -256 15 -28 15 -28 22 35 3 35 9 121 13 190 8 163 -8 178 -32 31z"></path>
            <path id="p1m2doTz6" d="M614 545 c-7 -17 0 -198 12 -314 7 -63 7 -63 22 -35 19 37 18 126 -3 254 -9 58 -19 107 -21 109 -2 2 -7 -4 -10 -14z"></path>
        </g>
    </g>
</svg>