<svg class="img-fluid" id="outputsvg" xmlns="http://www.w3.org/2000/svg" style="transform: none; transform-origin: 50% 50% 0px; cursor: move; transition: none 0s ease 0s;" width="173" height="53" viewBox="0 0 1730 530">
    <g id="l2TRJBTRMwBaw6XyHDM2N6" fill="rgb(0,0,0)" style="transform: none;">
        <g>
            <path id="p10Ay5S5lB" d="M3 363 c4 -145 9 -180 32 -251 24 -76 30 -85 60 -98 19 -8 38 -14 43 -14 18 0 52 144 52 218 0 81 -32 192 -76 268 -25 42 -28 44 -71 44 l-46 0 6 -167z"></path>
            <path id="pUk7kTpHL" d="M1616 486 c-44 -76 -76 -187 -76 -268 0 -74 34 -218 52 -218 5 0 24 6 43 14 30 13 36 22 60 98 23 71 28 106 32 251 l6 167 -46 0 c-43 0 -46 -2 -71 -44z"></path>
        </g>
    </g>
    <g id="l599DPwBSI48J624JpyfNqZ" fill="rgb(216,124,117)" style="transform: none;">
        <g>
            <path id="phB6DaTW8" d="M82 305 c0 -38 5 -92 12 -120 l12 -50 8 41 c7 42 -4 127 -23 174 -8 20 -10 12 -9 -45z"></path>
            <path id="pz4d3gHU5" d="M1633 335 c-18 -61 -25 -136 -15 -170 8 -28 10 -25 21 40 7 39 11 93 9 120 l-3 50 -12 -40z"></path>
        </g>
    </g>
</svg>