<svg class="template" id="outputsvg" xmlns="http://www.w3.org/2000/svg" style="transform: none; transform-origin: 50% 50% 0px; cursor: move; transition: none 0s ease 0s;" width="1106" height="1601" viewBox="0 0 11060 16010">
    <g id="l57uEH4my1nRdK7Aee61z0g" fill="rgb(0,0,0)" style="transform: none;">
        <g style="transform: none;">
            <path id="pQV5CamSl" d="M4557 15580 c-60 -16 -98 -38 -157 -95 -30 -29 -83 -80 -116 -112 -96 -91 -109 -169 -34 -211 21 -12 30 -25 30 -43 0 -14 15 -55 32 -90 24 -47 33 -78 34 -119 0 -30 8 -136 17 -236 9 -99 17 -243 17 -320 1 -132 -2 -159 -69 -524 -189 -1033 -205 -1142 -205 -1385 -1 -223 9 -279 88 -510 l51 -150 -12 -209 c-15 -263 -12 -244 -137 -857 -199 -982 -270 -1490 -298 -2131 -18 -406 3 -807 64 -1223 16 -114 22 -202 22 -365 1 -215 1 -215 34 -311 18 -53 46 -129 62 -169 l30 -73 0 -213 c0 -117 -7 -293 -15 -391 -14 -161 -19 -192 -60 -318 -24 -77 -53 -169 -63 -204 l-18 -65 -24 65 c-17 45 -24 83 -23 129 8 517 8 511 -15 640 -63 353 -233 863 -465 1395 -115 265 -116 271 -121 565 -2 171 -5 198 -40 355 -37 167 -38 175 -44 450 -6 245 -9 284 -25 308 -21 32 -58 36 -86 8 -31 -31 -61 -126 -61 -195 0 -35 -3 -111 -7 -171 -6 -101 -7 -106 -20 -80 -8 15 -39 97 -68 183 -64 190 -95 262 -134 310 -54 68 -104 82 -140 38 -21 -26 -8 -95 53 -277 30 -90 57 -180 60 -199 12 -67 -50 66 -100 215 -26 77 -55 156 -64 175 -22 42 -66 85 -99 98 -21 7 -29 4 -50 -22 -41 -47 -34 -103 34 -286 52 -138 95 -276 95 -303 0 -33 -95 104 -155 223 -74 146 -107 180 -179 180 -30 0 -38 -5 -52 -31 -11 -22 -14 -43 -9 -68 10 -55 70 -197 114 -270 73 -121 194 -462 172 -484 -7 -7 -44 6 -128 48 -92 45 -131 59 -176 63 l-58 4 -50 -51 c-58 -60 -60 -83 -9 -92 74 -12 109 -39 413 -326 120 -114 225 -220 234 -236 21 -41 27 -63 74 -271 47 -207 70 -285 109 -376 35 -81 86 -373 130 -750 39 -336 62 -475 111 -673 25 -102 39 -182 39 -225 1 -95 12 -135 79 -274 l59 -123 5 -210 c3 -115 11 -241 17 -278 8 -54 7 -82 -4 -131 -25 -107 -54 -297 -61 -396 -26 -393 158 -952 360 -1092 49 -33 141 -65 215 -74 30 -3 80 -18 110 -34 30 -15 100 -37 155 -48 107 -21 319 -100 420 -157 89 -49 148 -96 269 -212 l106 -102 0 -231 0 -231 -22 3 c-80 11 -253 -485 -213 -611 7 -22 52 -51 80 -51 12 0 15 -15 15 -85 0 -116 17 -263 41 -360 69 -278 252 -414 581 -432 127 -7 261 9 368 44 200 65 311 184 357 384 13 58 17 121 16 288 0 191 1 211 14 187 12 -22 20 -27 46 -24 94 9 91 183 -8 438 -35 92 -102 230 -111 230 -3 0 -14 -5 -25 -10 -19 -10 -19 -5 -19 242 l1 253 113 104 c64 60 150 127 198 156 113 68 329 153 453 177 55 11 125 33 155 48 30 16 80 31 110 34 74 9 166 41 215 74 202 140 386 699 360 1092 -7 99 -36 289 -61 396 -11 49 -12 77 -4 131 6 37 14 163 17 278 l5 210 59 123 c67 139 78 179 79 274 0 43 14 123 39 225 49 198 72 337 111 673 44 377 95 669 130 750 39 91 62 169 109 376 47 208 53 230 74 271 9 16 114 122 234 236 304 287 339 314 413 326 51 9 49 32 -9 92 l-50 51 -58 -4 c-45 -4 -84 -18 -176 -63 -83 -41 -121 -55 -128 -48 -16 16 27 150 136 423 68 168 97 256 105 308 13 92 1 125 -46 130 -43 4 -80 -40 -177 -208 -43 -74 -92 -151 -108 -170 -29 -34 -29 -34 -29 -9 0 35 30 140 84 297 49 141 55 195 31 242 -31 60 -97 47 -138 -28 -13 -26 -48 -114 -77 -197 -29 -82 -63 -170 -76 -195 -23 -45 -23 -45 -17 -10 3 19 28 114 55 209 55 200 58 229 24 258 -20 18 -27 19 -53 8 -64 -27 -117 -123 -212 -380 -29 -77 -54 -146 -57 -154 -11 -34 -17 10 -24 181 -7 194 -16 230 -61 262 -20 13 -25 13 -51 0 -56 -29 -61 -60 -53 -329 l7 -240 -30 -115 c-42 -159 -56 -288 -47 -413 19 -267 12 -307 -112 -592 -232 -532 -402 -1042 -465 -1395 -23 -129 -23 -123 -15 -640 1 -46 -6 -84 -23 -129 l-24 -65 -18 65 c-10 35 -47 152 -83 259 -70 214 -85 307 -104 639 l-8 154 38 91 c69 166 99 325 119 635 5 75 20 255 34 401 41 444 49 636 43 1031 -7 432 -32 724 -102 1184 -49 326 -135 774 -225 1175 -32 138 -47 237 -61 390 -10 113 -23 264 -30 335 l-12 130 41 205 c54 267 72 419 72 608 0 199 -19 364 -86 767 -151 898 -145 859 -144 1017 0 81 8 229 17 330 9 101 17 208 17 238 1 41 10 72 34 119 17 35 32 76 32 90 0 18 9 31 30 43 75 42 62 120 -34 211 -33 32 -86 83 -116 112 -85 84 -130 100 -280 100 -115 0 -129 -2 -169 -25 -53 -30 -80 -77 -87 -151 -2 -30 -12 -95 -21 -146 -14 -76 -15 -102 -5 -156 10 -55 9 -75 -8 -153 -28 -129 -27 -209 7 -304 3 -8 5 -139 3 -290 -1 -273 -2 -276 -41 -490 -22 -118 -60 -316 -86 -440 -45 -218 -47 -231 -47 -395 1 -178 6 -238 56 -685 26 -238 29 -284 19 -343 -6 -37 -11 -101 -11 -142 0 -55 -11 -119 -44 -247 -83 -326 -97 -477 -95 -1008 1 -244 -3 -400 -15 -535 -23 -273 -34 -440 -51 -785 -19 -375 -31 -537 -56 -750 -10 -91 -22 -192 -26 -225 l-7 -60 -8 55 c-41 311 -61 543 -83 980 -17 345 -28 512 -51 785 -12 135 -16 291 -15 535 2 531 -12 682 -95 1008 -33 128 -44 192 -44 247 0 41 -5 105 -11 142 -10 59 -7 105 19 343 50 447 55 507 56 685 0 164 -2 177 -47 395 -26 124 -64 322 -86 440 -39 214 -40 217 -41 490 -2 151 0 282 3 290 34 95 35 175 7 304 -17 78 -18 98 -8 153 10 54 9 80 -5 156 -9 51 -19 116 -21 146 -7 75 -34 121 -87 151 -38 21 -58 25 -149 27 -58 1 -122 -2 -143 -7z m231 -80 c53 -24 81 -79 82 -160 0 -30 7 -80 15 -110 15 -54 11 -120 -6 -120 -15 0 -11 -37 18 -178 27 -132 27 -134 10 -200 -14 -56 -17 -116 -17 -371 l0 -303 40 -217 c22 -119 60 -315 84 -436 24 -121 47 -249 51 -285 10 -96 -27 -536 -81 -957 -14 -109 -14 -127 0 -181 9 -33 16 -98 16 -145 0 -69 9 -122 49 -279 79 -312 83 -348 91 -958 4 -294 10 -542 13 -550 7 -17 40 -522 62 -955 16 -312 40 -578 75 -824 11 -80 20 -170 20 -202 0 -60 7 -69 55 -69 48 0 55 9 55 69 0 32 9 122 20 202 35 246 59 512 75 824 22 433 55 938 62 955 3 8 9 256 13 550 8 610 12 646 91 958 40 157 49 210 49 279 0 47 7 112 16 145 14 54 14 72 0 181 -54 421 -91 861 -81 957 4 36 27 164 51 285 24 121 62 317 84 436 l40 217 0 303 c0 255 -3 315 -17 371 -17 66 -17 68 10 200 29 141 33 178 18 178 -17 0 -21 66 -6 120 8 30 15 80 15 110 1 119 61 179 181 180 95 0 156 -25 224 -91 33 -32 84 -79 113 -106 74 -65 80 -79 43 -98 -23 -11 -32 -25 -37 -53 -3 -20 -22 -68 -41 -105 -28 -56 -34 -79 -33 -125 1 -32 -6 -142 -14 -247 -9 -104 -16 -265 -16 -358 0 -182 10 -254 135 -992 86 -508 89 -535 89 -780 0 -194 -3 -238 -26 -375 -15 -85 -37 -195 -49 -245 -32 -133 -34 -233 -9 -474 12 -117 22 -243 22 -279 0 -44 20 -162 58 -337 295 -1362 378 -2143 315 -2970 -12 -161 -45 -532 -50 -560 -3 -16 -9 -100 -15 -185 -19 -315 -48 -465 -121 -640 l-40 -95 11 -180 c24 -410 32 -463 114 -710 35 -104 74 -233 87 -285 13 -52 28 -98 34 -103 5 -4 28 -6 49 -5 l39 3 22 80 c12 44 32 100 45 125 22 44 22 46 9 165 -19 166 -17 425 5 545 67 368 249 907 498 1475 95 215 93 202 86 625 -2 119 17 241 50 324 14 35 17 84 18 316 0 292 0 297 11 287 3 -4 10 -87 14 -184 5 -98 14 -200 22 -228 l13 -50 50 -3 49 -3 49 143 c53 156 143 375 157 383 4 3 2 -16 -7 -42 -49 -159 -74 -278 -74 -358 0 -90 3 -95 60 -95 48 0 98 90 180 325 54 155 78 210 86 202 3 -3 -16 -65 -41 -138 -78 -225 -78 -226 -79 -349 l-1 -115 39 -3 c35 -3 43 1 89 50 27 29 86 115 131 191 44 75 82 133 84 127 2 -5 -37 -110 -87 -234 -92 -229 -161 -436 -161 -485 0 -40 31 -64 93 -69 48 -4 63 1 163 51 119 59 154 73 154 60 0 -5 -12 -16 -27 -25 -45 -27 -124 -97 -360 -319 -257 -242 -231 -198 -309 -534 -44 -190 -94 -352 -113 -364 -15 -10 -80 -407 -116 -711 -50 -410 -83 -606 -132 -765 -8 -27 -18 -102 -22 -166 l-8 -116 -70 -149 -71 -149 5 -131 c4 -92 0 -180 -12 -292 -19 -174 -18 -180 19 -357 39 -183 49 -309 36 -439 -33 -336 -168 -694 -305 -815 -66 -58 -180 -101 -265 -101 -16 0 -58 -15 -93 -33 -44 -24 -88 -38 -147 -46 -47 -7 -94 -17 -105 -21 -11 -5 -66 -28 -123 -50 -212 -83 -301 -139 -450 -284 l-102 -99 2 -326 3 -326 38 -3 c37 -3 40 -6 69 -69 41 -92 97 -261 104 -319 l7 -49 -25 23 c-20 18 -35 23 -69 20 l-44 -3 2 -65 c8 -365 7 -437 -10 -503 -49 -197 -167 -310 -386 -369 -116 -32 -317 -30 -428 4 -196 60 -301 170 -353 373 -24 93 -40 238 -40 358 0 52 -3 109 -6 126 -6 29 -9 31 -51 31 l-45 0 6 45 c9 60 66 234 104 317 30 66 31 67 74 70 l43 3 3 317 2 317 -106 103 c-171 166 -259 223 -474 307 -58 23 -114 46 -125 51 -11 4 -58 14 -105 21 -59 8 -103 22 -147 46 -35 18 -77 33 -93 33 -85 0 -199 43 -265 101 -137 120 -271 478 -305 813 -13 130 -3 259 36 441 37 177 38 183 19 357 -12 112 -16 200 -12 292 l5 131 -71 149 -70 149 -8 116 c-4 64 -14 139 -22 166 -49 159 -82 355 -132 765 -36 304 -101 701 -116 711 -19 12 -69 174 -113 364 -78 336 -52 292 -309 534 -236 222 -315 292 -359 319 -16 9 -28 20 -28 25 0 13 35 -1 154 -60 100 -50 115 -55 163 -51 62 5 93 29 93 69 0 60 -154 503 -181 519 -10 7 -105 205 -114 240 l-6 25 24 -28 c13 -16 52 -82 87 -147 35 -66 90 -153 122 -195 55 -70 62 -75 97 -75 52 0 61 14 61 89 0 88 -25 184 -94 370 -31 84 -55 155 -53 157 10 11 41 -56 86 -188 61 -177 74 -208 117 -276 34 -53 34 -53 82 -50 l47 3 -1 100 c0 93 -4 110 -49 240 -62 180 -60 174 -40 150 25 -29 41 -68 116 -283 79 -227 90 -244 164 -240 l50 3 10 205 c6 124 15 213 22 225 10 16 12 -19 13 -175 0 -238 9 -328 56 -557 33 -164 36 -190 34 -333 -3 -243 2 -269 88 -465 249 -568 431 -1107 498 -1475 22 -120 24 -379 5 -545 -13 -119 -13 -121 9 -165 13 -25 33 -81 45 -125 l22 -80 39 -3 c21 -1 44 1 49 5 6 5 21 51 34 103 13 52 45 160 72 240 45 138 48 155 63 340 9 108 16 304 16 438 l0 243 -34 82 c-18 45 -47 120 -62 167 -28 82 -29 90 -27 265 2 145 -2 214 -22 355 -59 429 -80 749 -72 1090 18 675 107 1303 352 2480 71 341 70 336 90 658 l14 233 -34 88 c-86 227 -121 411 -112 590 9 181 28 298 187 1182 89 493 90 498 90 660 0 90 -7 250 -16 354 -8 105 -15 215 -14 247 1 46 -5 69 -33 125 -19 37 -38 85 -41 105 -5 28 -14 42 -37 53 -37 19 -31 33 43 98 29 26 78 73 109 103 40 40 71 61 110 75 71 24 162 24 217 -1z"></path>
        </g>
    </g>
    <g id="llFfCPBilgcvzEaKVjl0jF" fill="rgb(233,219,194)" style="transform: none;">
        <g style="transform: none;">
            <path id="piEkaXkxa" d="M4640 15530 c0 -18 7 -20 55 -20 48 0 55 2 55 20 0 18 -7 20 -55 20 -48 0 -55 -2 -55 -20z"></path>
            <path id="p5yLxeXx5" d="M5938 15543 c-36 -9 -18 -31 31 -38 61 -8 91 0 91 26 0 16 -7 19 -52 18 -29 -1 -61 -3 -70 -6z"></path>
            <path id="pHrGEXUXV" d="M6190 15508 c0 -12 9 -31 20 -43 l20 -22 -24 -154 c-57 -356 -61 -406 -61 -754 0 -264 4 -356 18 -460 17 -122 75 -453 96 -544 8 -39 8 -41 -14 -41 -30 0 -66 -43 -95 -114 l-22 -56 -67 98 c-73 106 -108 136 -170 146 -23 3 -41 11 -41 16 0 31 54 531 75 694 37 293 48 447 42 601 -5 151 -20 232 -69 393 -25 81 -35 102 -50 102 -13 0 -18 -7 -18 -26 0 -14 -7 -54 -16 -88 -17 -63 -14 -168 4 -174 6 -2 -1 -52 -15 -115 -28 -131 -30 -203 -9 -272 13 -41 16 -102 15 -335 -1 -319 1 -306 -120 -908 -58 -294 -65 -372 -50 -577 11 -153 52 -552 74 -726 10 -76 10 -107 1 -144 -7 -26 -14 -90 -15 -143 -2 -75 -13 -137 -50 -281 -77 -304 -81 -343 -89 -951 -4 -294 -10 -542 -13 -550 -7 -17 -40 -522 -62 -955 -16 -312 -40 -578 -75 -824 -11 -80 -20 -170 -20 -202 0 -56 -9 -72 -37 -62 -9 3 -13 25 -13 62 0 31 -9 122 -20 202 -35 246 -59 512 -75 824 -22 433 -55 938 -62 955 -3 8 -9 256 -13 550 -8 608 -12 647 -89 951 -37 144 -48 206 -50 281 -1 53 -8 117 -15 143 -9 37 -9 68 1 144 22 174 63 573 74 726 15 205 8 283 -50 577 -121 602 -119 589 -120 908 -1 233 2 294 15 335 21 69 19 141 -9 272 -14 63 -21 113 -15 115 18 6 21 111 4 174 -9 34 -16 84 -16 110 0 63 -9 94 -26 94 -8 0 -14 -3 -14 -6 0 -3 -16 -83 -35 -177 -77 -371 -98 -594 -76 -826 9 -100 106 -743 127 -843 5 -25 3 -27 -42 -34 -60 -9 -126 -67 -195 -172 l-48 -73 -15 28 c-17 32 -68 88 -110 120 -33 26 -33 9 12 228 46 218 60 326 74 542 14 230 1 563 -37 939 -13 130 -21 257 -18 281 3 26 2 43 -4 43 -6 0 -33 -24 -60 -52 -28 -29 -77 -75 -108 -103 -51 -44 -85 -94 -85 -125 0 -6 16 -20 35 -31 26 -16 36 -29 41 -57 3 -20 20 -64 37 -97 25 -48 31 -73 32 -125 1 -36 9 -150 18 -255 32 -359 30 -388 -73 -954 -116 -647 -136 -758 -161 -926 -27 -186 -35 -399 -19 -517 13 -99 62 -277 107 -395 l28 -72 -12 -205 c-7 -113 -17 -245 -24 -293 -9 -62 -14 -424 -19 -1228 -7 -1212 -8 -1220 -61 -1600 -29 -208 -95 -535 -180 -895 -39 -168 -72 -309 -71 -315 10 -178 15 -200 55 -278 24 -48 63 -102 101 -141 72 -74 228 -180 386 -261 108 -55 116 -57 172 -52 78 7 175 54 242 117 89 84 160 240 249 540 25 85 85 288 132 450 48 162 90 298 94 302 3 4 48 -145 100 -330 185 -661 249 -813 412 -967 134 -127 161 -136 283 -90 280 105 509 296 604 503 48 106 48 108 -38 542 -163 813 -210 1155 -229 1645 -6 143 -13 688 -15 1210 -4 795 -7 974 -21 1100 -19 168 -16 230 14 360 12 50 34 160 49 245 24 141 27 178 27 405 -1 279 -2 291 -90 810 -120 705 -135 815 -135 962 0 76 8 224 17 328 9 105 17 219 18 255 1 52 7 77 32 125 17 33 34 77 37 97 5 28 15 41 41 57 19 11 35 25 35 31 0 31 -34 81 -85 125 -31 28 -78 72 -104 99 -40 42 -87 76 -106 76 -3 0 -5 -10 -5 -22z"></path>
            <path id="pbw65hbTW" d="M2615 9229 c-11 -17 3 -75 61 -247 63 -186 80 -296 49 -308 -38 -15 -104 106 -180 333 -61 182 -114 251 -146 192 -14 -28 -3 -71 65 -253 56 -148 86 -261 86 -319 0 -35 -21 -64 -39 -53 -26 17 -132 173 -186 275 -68 130 -102 171 -138 171 -37 0 -41 -28 -17 -100 22 -66 97 -221 110 -230 13 -8 108 -254 144 -373 31 -101 33 -114 19 -129 -33 -37 -64 -32 -193 32 -143 70 -181 76 -223 32 l-26 -27 47 -22 c59 -28 114 -75 389 -334 257 -242 231 -198 309 -534 44 -190 94 -352 113 -364 15 -10 80 -407 116 -711 49 -407 81 -593 131 -765 8 -27 17 -88 19 -135 8 -133 12 -146 81 -293 l66 -138 -1 -150 c-1 -84 5 -214 15 -295 12 -108 13 -152 5 -172 -6 -15 -23 -90 -37 -167 -33 -176 -38 -414 -11 -565 57 -312 176 -596 292 -699 47 -41 118 -76 183 -90 29 -6 54 -11 56 -11 2 0 6 23 9 52 9 77 50 150 110 201 87 72 95 74 31 6 -76 -79 -95 -116 -101 -194 l-5 -60 73 -37 c41 -21 95 -40 122 -44 42 -6 47 -4 47 13 0 11 -11 25 -24 31 -14 6 -33 23 -42 37 -14 22 -15 32 -5 65 15 49 98 141 170 187 54 35 214 107 296 133 56 18 75 37 75 77 0 39 -9 40 -130 18 -41 -7 -76 -12 -77 -11 -1 1 13 24 32 52 42 63 82 178 90 264 4 36 8 70 10 76 2 8 33 5 102 -10 168 -38 179 -49 169 -183 -17 -250 -67 -337 -274 -480 -103 -71 -234 -178 -292 -237 -43 -45 -39 -49 95 -101 129 -49 255 -114 327 -168 31 -23 104 -89 162 -145 l106 -104 -2 -286 c-3 -257 -5 -287 -19 -290 -11 -2 -20 7 -26 24 l-9 28 -31 -55 c-85 -149 -169 -440 -142 -491 22 -41 59 -52 59 -18 0 11 6 20 14 20 18 0 23 -39 30 -225 3 -77 13 -180 22 -229 16 -86 17 -88 53 -103 20 -8 84 -37 142 -64 92 -43 114 -49 171 -49 110 0 126 6 154 61 13 27 39 104 57 171 22 82 38 123 47 123 9 0 24 -35 43 -100 15 -55 37 -131 48 -169 l21 -69 116 5 c96 4 134 11 212 37 139 47 172 67 184 116 12 49 14 386 3 473 -7 53 -6 63 8 68 18 7 71 -38 81 -68 9 -28 24 -21 40 19 20 46 8 123 -41 270 -34 101 -103 263 -113 263 -3 0 -10 -7 -17 -17 -7 -9 -19 -14 -29 -10 -14 6 -16 37 -16 300 l0 294 103 99 c148 145 236 200 449 284 149 59 158 64 158 76 0 20 -271 263 -348 312 -150 96 -166 108 -193 142 -42 53 -62 144 -63 294 l-1 129 130 44 c71 23 132 43 135 43 3 0 19 -62 34 -137 28 -136 53 -205 97 -272 l23 -33 -25 7 c-64 21 -127 35 -156 35 -31 0 -33 -2 -33 -34 0 -18 6 -38 13 -44 6 -6 64 -27 127 -47 220 -71 333 -143 384 -247 32 -65 33 -89 1 -126 -59 -70 -18 -80 98 -25 l78 38 -6 58 c-9 82 -17 101 -83 169 -51 54 -54 59 -24 44 45 -23 110 -83 128 -118 8 -16 18 -58 21 -93 5 -54 9 -65 22 -61 9 2 32 8 51 11 48 10 122 49 165 86 116 103 235 387 292 699 27 151 22 389 -11 565 -14 77 -31 152 -37 167 -8 20 -7 64 5 172 10 81 16 211 15 295 l-1 150 66 138 c69 147 73 160 81 293 2 47 11 108 19 135 50 172 82 358 131 765 36 304 101 701 116 711 19 12 69 174 113 364 78 336 52 292 309 534 275 259 330 306 389 334 l47 22 -26 27 c-42 44 -80 38 -223 -32 -129 -64 -160 -69 -193 -32 -14 15 -12 28 19 131 19 62 75 213 124 335 91 226 124 346 102 368 -20 20 -55 -24 -150 -186 -92 -155 -180 -265 -202 -251 -9 6 -11 31 -7 94 4 66 16 117 52 221 83 240 89 267 62 304 -32 43 -63 -7 -137 -219 -74 -212 -135 -330 -165 -318 -24 9 -17 106 16 228 83 307 84 314 72 326 -10 10 -21 4 -51 -28 -45 -47 -110 -193 -188 -421 -42 -122 -52 -142 -68 -140 -31 5 -46 82 -55 280 -6 139 -11 182 -25 202 -21 33 -32 33 -51 -3 -12 -25 -15 -75 -12 -303 2 -235 0 -279 -15 -314 -45 -113 -60 -280 -49 -554 2 -47 -2 -110 -8 -140 -6 -30 -10 -64 -9 -75 1 -11 -37 -108 -84 -215 -240 -548 -415 -1068 -485 -1440 -20 -110 -24 -486 -5 -604 10 -63 9 -73 -10 -110 -12 -23 -31 -77 -43 -120 -33 -120 -49 -115 -84 24 -13 52 -52 181 -87 285 -72 214 -88 300 -104 560 -5 94 -12 194 -14 223 -4 39 1 66 16 100 11 26 28 68 39 95 l19 47 -23 0 c-15 0 -32 -16 -56 -51 -67 -98 -187 -180 -288 -195 -42 -6 -43 -7 -43 -44 0 -21 9 -67 20 -102 11 -34 20 -70 20 -78 0 -25 -106 -173 -162 -227 -29 -27 -98 -76 -153 -108 -68 -40 -128 -86 -188 -144 l-87 -86 -76 -215 c-70 -197 -94 -254 -94 -222 0 7 -14 12 -35 12 -21 0 -35 -5 -35 -12 0 -7 -7 -114 -15 -237 -46 -693 -42 -1207 11 -1531 22 -132 84 -378 139 -549 33 -103 45 -153 41 -176 -4 -17 -27 -65 -52 -106 -64 -101 -89 -162 -118 -276 -36 -144 -46 -226 -46 -376 0 -93 5 -150 16 -188 19 -63 57 -141 89 -185 20 -26 25 -48 31 -138 l7 -107 35 3 c34 3 37 7 65 73 47 114 88 235 107 320 l18 80 1 -50 c2 -76 20 -224 36 -284 8 -30 27 -76 44 -102 l29 -48 -82 -78 c-103 -98 -169 -137 -276 -164 -149 -38 -372 -11 -527 63 -50 24 -91 55 -154 118 l-86 86 32 64 c41 83 52 136 60 285 4 66 10 145 14 175 6 55 7 54 29 -85 34 -202 57 -296 96 -381 33 -71 36 -74 69 -74 32 0 35 3 41 37 3 21 6 62 6 92 0 46 9 71 67 183 l67 130 -12 206 c-17 298 -40 390 -153 615 -63 127 -69 144 -69 200 0 85 13 123 70 210 81 126 92 175 117 517 22 312 24 1071 4 1438 l-14 252 -30 0 c-17 0 -39 -7 -49 -17 -17 -15 -18 -15 -18 0 0 32 -88 283 -124 354 -54 107 -134 186 -304 299 -159 106 -237 177 -306 280 l-44 65 29 77 c17 43 28 92 27 111 -3 33 -5 34 -94 65 -94 33 -173 77 -214 121 -13 14 -33 25 -44 25 -21 0 -21 -3 -18 -217 2 -141 -3 -290 -13 -423 -16 -197 -19 -211 -64 -350 -27 -80 -59 -188 -72 -240 -35 -139 -51 -144 -84 -24 -12 43 -31 97 -43 120 -19 37 -20 47 -10 110 19 118 15 494 -5 604 -70 372 -245 893 -485 1440 -47 107 -85 205 -84 218 1 13 -3 44 -9 70 -6 26 -10 120 -9 209 1 148 -2 177 -35 338 -46 228 -55 318 -55 557 0 250 -16 302 -62 201 -18 -41 -23 -80 -32 -253 -10 -194 -12 -205 -31 -208 -39 -5 -65 42 -134 240 -77 223 -101 276 -146 323 -34 36 -49 42 -60 24z m1029 -4029 c66 -435 81 -589 72 -730 -7 -100 -34 -321 -41 -328 -5 -6 -133 263 -160 338 -49 138 -56 200 -50 464 5 178 3 271 -8 356 l-14 115 52 55 c28 30 60 68 70 84 11 16 20 25 22 20 1 -5 27 -173 57 -374z m3569 325 c9 -19 32 -52 52 -74 l36 -40 -10 -173 c-6 -95 -13 -236 -16 -313 -8 -182 -21 -290 -46 -394 -26 -104 -132 -361 -149 -361 -4 0 -16 44 -28 98 -52 231 -52 317 -2 618 30 183 60 441 60 515 0 31 10 56 38 100 20 32 40 58 43 58 3 1 13 -15 22 -34z"></path>
        </g>
    </g>
    <g id="l7EWj36GmujMF1iRcxzDoEr" fill="rgb(255,255,255)" style="transform: none;">
        <g style="transform: none;">
            <path id="p1DXujcsIC" d="M4542 15531 c-97 -33 -93 -16 -61 -332 69 -681 62 -1015 -32 -1462 -17 -78 -35 -168 -41 -200 l-12 -59 35 -26 c47 -36 99 -95 124 -140 21 -38 65 -57 65 -29 0 25 95 160 146 208 39 36 60 48 97 53 43 7 47 10 47 35 0 16 -27 197 -60 403 -104 652 -104 725 2 1251 40 200 41 208 25 242 -25 52 -65 68 -182 71 -76 2 -113 -1 -153 -15z"></path>
            <path id="peWTtFalQ" d="M6026 15543 c-3 -4 -26 -6 -51 -4 -61 3 -102 -21 -126 -72 -26 -58 -24 -95 12 -206 93 -290 99 -449 34 -957 -30 -231 -75 -668 -75 -724 0 -39 1 -40 41 -46 62 -10 97 -41 175 -154 40 -58 77 -105 83 -104 6 1 16 2 21 3 6 0 24 31 41 69 36 79 64 112 95 112 32 0 34 8 19 75 -23 97 -82 429 -102 565 -14 98 -17 192 -18 435 0 330 6 391 69 780 l25 150 -31 32 c-17 18 -48 36 -74 42 -48 12 -127 15 -138 4z"></path>
            <path id="pcJGuux9Y" d="M6423 11364 c-8 -4 -9 -14 -2 -37 6 -19 14 -493 20 -1132 5 -605 12 -1122 14 -1150 3 -27 10 -106 16 -175 27 -319 88 -694 209 -1298 l79 -394 -34 -73 c-18 -40 -51 -100 -73 -132 -102 -151 -335 -316 -553 -394 l-67 -23 -38 29 c-71 53 -166 149 -206 209 -57 83 -119 220 -168 366 -48 146 -243 837 -244 862 0 9 -2 15 -4 13 -3 -2 -13 0 -23 6 -15 7 -19 6 -19 -5 0 -9 -43 -161 -96 -338 -52 -178 -116 -393 -141 -478 -84 -284 -153 -440 -234 -525 -54 -57 -138 -107 -210 -125 -47 -12 -48 -11 -160 46 -157 80 -313 186 -385 260 -41 42 -78 94 -108 153 -26 50 -51 93 -55 96 -14 8 -24 -116 -18 -228 3 -64 13 -128 27 -172 39 -124 92 -249 119 -279 43 -48 137 -103 224 -132 45 -14 85 -29 89 -33 4 -4 -9 -50 -28 -103 l-36 -96 52 -76 c76 -114 149 -181 312 -290 170 -113 250 -192 304 -299 39 -76 124 -323 124 -357 0 -32 27 -35 64 -7 l33 26 14 -252 c20 -361 18 -1066 -4 -1377 -25 -342 -36 -391 -117 -517 -61 -92 -70 -123 -70 -240 l0 -91 69 -139 c110 -218 135 -316 152 -586 l11 -178 -66 -128 c-60 -117 -66 -135 -67 -192 -1 -35 -5 -77 -9 -94 -7 -29 -8 -28 -44 47 -43 92 -66 183 -102 418 -15 96 -31 180 -36 185 -28 30 -51 -88 -63 -315 -8 -150 -19 -199 -66 -290 -22 -42 -39 -82 -39 -89 0 -7 42 -54 93 -105 145 -144 273 -193 527 -203 232 -9 339 31 502 186 51 49 88 92 88 103 0 11 -11 34 -24 51 -62 83 -86 188 -92 407 -6 194 -11 240 -28 240 -9 0 -16 -20 -21 -57 -12 -106 -45 -262 -72 -340 -30 -91 -92 -244 -103 -256 -4 -5 -10 40 -14 99 -6 90 -11 112 -31 138 -118 158 -137 376 -59 687 29 119 49 166 114 272 30 50 54 102 60 134 9 48 6 62 -40 200 -56 171 -121 425 -144 563 -52 319 -56 792 -11 1472 8 123 15 230 15 238 0 8 9 0 20 -17 21 -36 32 -40 47 -21 6 7 47 117 91 243 l82 230 87 86 c60 58 120 104 188 144 124 73 188 132 269 252 l64 94 -29 96 c-16 53 -29 100 -29 103 0 4 19 11 43 14 105 16 224 99 295 205 66 99 101 277 122 611 6 85 12 169 15 185 6 35 30 305 45 490 71 927 -7 1714 -305 3078 -36 163 -57 281 -60 345 -7 137 -18 169 -52 156z"></path>
            <path id="pDfzC6Ejc" d="M4252 11297 c-1 -16 -31 -166 -66 -335 -363 -1727 -432 -2620 -281 -3631 14 -97 19 -111 34 -95 13 13 144 577 196 839 46 236 75 427 102 675 14 132 17 325 20 1290 4 992 2 1358 -5 1257z"></path>
            <path id="p22ZBBb5Q" d="M3545 5598 c-16 -24 -53 -69 -83 -100 l-55 -57 18 -153 c14 -124 16 -195 10 -374 -8 -249 -1 -316 47 -454 28 -81 163 -366 178 -375 3 -2 16 -2 27 1 17 5 22 21 37 136 24 186 30 364 17 508 -20 227 -122 884 -139 898 -23 18 -27 16 -57 -30z"></path>
            <path id="peQcovGur" d="M7135 5556 c-44 -68 -55 -92 -55 -125 0 -75 -30 -333 -61 -516 -52 -313 -50 -455 9 -705 34 -144 46 -151 96 -52 58 115 113 256 135 344 27 110 39 218 51 488 6 124 13 275 17 337 l6 112 -37 41 c-33 37 -65 94 -80 143 -10 31 -24 18 -81 -67z"></path>
            <path id="pdm07oFBk" d="M6140 3665 l-155 -52 -3 -109 c-3 -112 9 -236 30 -305 17 -60 70 -113 171 -173 102 -61 146 -95 302 -240 l106 -100 77 11 c66 10 80 16 104 42 59 66 25 197 -72 284 -61 55 -162 104 -310 152 -63 20 -122 43 -130 52 -13 13 -13 15 5 10 11 -3 56 -15 99 -27 43 -12 91 -19 106 -16 67 13 366 -209 399 -296 4 -13 11 -45 15 -71 l7 -48 47 3 47 3 -1 75 c-1 48 -7 87 -17 107 -25 47 -95 103 -183 147 -102 51 -271 125 -292 128 -20 3 -75 81 -101 141 -10 24 -31 103 -46 177 -15 74 -33 140 -39 146 -8 9 -51 -2 -166 -41z"></path>
            <path id="pE6EZIfiY" d="M4432 3692 c-5 -9 -12 -48 -16 -87 -9 -90 -48 -204 -92 -270 -45 -68 -46 -69 -132 -95 -101 -29 -238 -101 -315 -165 -80 -66 -117 -134 -125 -230 l-5 -65 41 0 c22 0 47 -2 54 -5 11 -4 14 7 14 47 0 73 28 121 117 204 114 107 250 171 430 204 96 17 98 17 81 -1 -9 -11 -22 -19 -27 -19 -24 0 -248 -96 -309 -132 -38 -22 -93 -67 -123 -99 -122 -133 -97 -265 53 -284 26 -3 54 -10 63 -15 12 -6 25 0 50 27 57 58 188 166 291 236 214 148 261 234 275 510 6 116 4 129 -13 148 -29 32 -61 45 -152 64 -46 9 -99 23 -117 31 -31 13 -35 12 -43 -4z"></path>
            <path id="pH2IFm54y" d="M5325 858 c-2 -7 -18 -64 -35 -126 -41 -152 -69 -207 -111 -216 -67 -13 -103 -6 -208 43 -167 78 -211 93 -211 76 0 -28 49 -145 79 -188 62 -89 156 -152 284 -188 114 -33 362 -33 478 -1 165 45 281 127 337 239 31 60 57 141 49 150 -3 2 -41 -11 -85 -30 -121 -54 -208 -78 -304 -84 l-86 -6 -21 69 c-11 38 -33 114 -48 169 l-29 100 -42 3 c-28 2 -44 -1 -47 -10z"></path>
        </g>
    </g>
</svg>