<svg class="img-fluid" id="outputsvg" xmlns="http://www.w3.org/2000/svg" style="transform: none; transform-origin: 50% 50% 0px; cursor: move; transition: none 0s ease 0s;" width="277" height="80" viewBox="0 0 2770 800">
    <g id="l2Wwg3hosIF9tX8bFPxr9GS" fill="rgb(0,0,0)" style="transform: none;">
        <g>
            <path id="p1GWdukhgv" d="M226 736 c-197 -58 -210 -63 -217 -88 -5 -20 -2 -31 11 -43 10 -9 94 -38 186 -65 207 -60 284 -90 351 -136 79 -54 123 -135 167 -311 22 -87 23 -88 52 -85 16 2 33 8 38 13 6 5 10 60 10 122 1 107 0 115 -31 177 -22 43 -67 102 -133 172 -108 117 -137 163 -147 235 -7 59 -18 73 -52 72 -14 0 -120 -29 -235 -63z m197 -93 c3 -16 8 -35 12 -45 5 -14 -6 -12 -78 10 l-84 27 51 16 c76 25 93 24 99 -8z"></path>
            <path id="pkIPAt07z" d="M2273 788 c-6 -7 -13 -34 -16 -61 -10 -72 -39 -118 -147 -235 -66 -70 -111 -129 -133 -172 -31 -62 -32 -70 -31 -177 0 -62 4 -117 10 -122 5 -5 22 -11 38 -13 29 -3 30 -2 52 85 73 288 125 333 518 447 92 27 176 56 186 65 13 12 16 23 11 43 -7 25 -20 30 -222 89 -225 66 -250 71 -266 51z m168 -136 l55 -17 -84 -27 c-71 -22 -82 -24 -77 -10 4 10 9 29 12 45 6 32 18 33 94 9z"></path>
        </g>
    </g>
    <g id="l6NqaNqOHCDhHj5KhWT0AMu" fill="rgb(225,121,113)" style="transform: none;">
        <g>
            <path id="pSgL0tpUj" d="M277 677 c-105 -32 -133 -43 -115 -48 232 -68 296 -93 358 -139 133 -99 230 -238 230 -330 0 -23 4 -30 20 -30 26 0 26 29 1 103 -33 96 -115 200 -212 272 -48 36 -90 102 -108 173 -7 23 -17 42 -24 41 -7 -1 -74 -20 -150 -42z"></path>
            <path id="pDyoeaaD9" d="M2320 678 c-19 -71 -61 -137 -109 -173 -97 -72 -179 -176 -212 -272 -25 -74 -25 -103 1 -103 16 0 20 7 20 30 0 92 97 231 230 330 62 46 125 70 358 139 21 6 -70 37 -260 88 -13 4 -19 -5 -28 -39z"></path>
        </g>
    </g>
</svg>