<svg class="img-fluid" id="outputsvg" xmlns="http://www.w3.org/2000/svg" style="transform: none; transform-origin: 50% 50% 0px; cursor: move; transition: none 0s ease 0s;" width="110" height="52" viewBox="0 0 1100 520">
    <g id="lGVpUXGMMHFn9B05OeObju" fill="rgb(0,0,0)" style="transform: none;">
        <g>
            <path id="poAT0elHc" d="M194 485 c-145 -72 -239 -175 -172 -189 74 -15 82 -14 120 16 56 44 161 176 154 193 -8 22 -26 19 -102 -20z"></path>
            <path id="p15Ft5Y9Gm" d="M438 508 c-28 -22 -40 -88 -45 -259 -6 -183 2 -220 53 -239 34 -13 87 -13 101 1 8 8 13 8 17 0 9 -14 66 -14 100 -1 51 19 59 56 53 239 -7 218 -23 271 -82 271 -30 0 -56 -32 -70 -87 l-12 -47 -6 41 c-12 74 -66 114 -109 81z"></path>
            <path id="pf2Mz9bcn" d="M804 505 c-7 -17 98 -149 154 -193 38 -30 46 -31 120 -16 67 14 -27 117 -172 189 -76 39 -94 42 -102 20z"></path>
        </g>
    </g>
    <g id="l2DXqIq177LvdjeuZlRFHgM" fill="rgb(225,121,113)" style="transform: none;">
        <g>
            <path id="pWk2ghUvX" d="M149 421 c-41 -26 -85 -61 -99 -76 l-25 -28 42 6 c23 3 55 16 71 29 36 29 107 118 94 118 -5 0 -43 -22 -83 -49z"></path>
            <path id="p142oleVz3" d="M896 423 c54 -69 89 -94 137 -100 l42 -6 -25 28 c-26 29 -166 125 -182 125 -5 0 7 -21 28 -47z"></path>
            <path id="p19yWRZiqM" d="M466 364 c-3 -26 -6 -100 -6 -164 0 -120 3 -130 41 -130 20 0 -2 314 -24 336 -2 3 -7 -16 -11 -42z"></path>
            <path id="phVhF73NY" d="M621 360 c-17 -74 -27 -290 -13 -290 39 0 42 9 41 139 0 69 -4 144 -8 166 l-7 40 -13 -55z"></path>
        </g>
    </g>
</svg>