<svg class="img-fluid" id="outputsvg" xmlns="http://www.w3.org/2000/svg" style="transform: none; transform-origin: 50% 50% 0px; cursor: move; transition: none 0s ease 0s;" width="78" height="51" viewBox="0 0 780 510">
    <g id="l2T92WT0D5g9Ac3rSGdmOCk" fill="rgb(0,0,0)" style="transform: none;">
        <g>
            <path id="p4FtWCcef" d="M167 476 c-200 -215 -211 -281 -69 -378 26 -17 49 -35 52 -39 10 -14 81 -59 93 -59 28 0 34 39 36 220 1 195 -7 256 -35 277 -28 20 -43 16 -77 -21z m13 -231 l0 -66 -30 23 c-16 12 -30 26 -30 31 0 11 48 77 56 77 2 0 4 -29 4 -65z"></path>
            <path id="peDFduHW8" d="M536 497 c-28 -21 -36 -82 -35 -277 2 -181 8 -220 36 -220 12 0 83 45 93 59 3 4 26 22 52 39 123 84 126 155 10 290 -112 129 -120 135 -156 109z m124 -262 c0 -6 -13 -21 -30 -33 l-30 -23 0 68 1 68 29 -35 c17 -19 30 -39 30 -45z"></path>
        </g>
    </g>
    <g id="l7lAYRXn4oV7nhd3VKfcXdi" fill="rgb(225,121,113)" style="transform: none;">
        <g>
            <path id="paPb25kQj" d="M154 348 c-65 -68 -88 -111 -75 -137 12 -21 119 -97 126 -89 3 3 4 67 3 143 l-3 137 -51 -54z"></path>
            <path id="pGpZdwErT" d="M570 262 c0 -78 4 -142 8 -142 16 0 120 79 126 96 9 23 -32 89 -88 144 l-46 44 0 -142z"></path>
        </g>
    </g>
</svg>