<svg class="img-fluid" id="outputsvg" xmlns="http://www.w3.org/2000/svg" style="transform: none; transform-origin: 50% 50% 0px; cursor: move; transition: none 0s ease 0s;" width="92" height="30" viewBox="0 0 920 300">
    <g id="l7Xg6j0aFLkLjvXMxvJKmXA" fill="rgb(0,0,0)" style="transform: none;">
        <g>
            <path id="pdkjLvQPR" d="M152 238 c-129 -136 -157 -177 -148 -214 6 -23 11 -25 54 -22 l47 3 67 125 c65 120 77 159 51 167 -6 3 -39 -24 -71 -59z"></path>
            <path id="pKSIZLdl4" d="M683 283 c-6 -14 97 -228 130 -271 5 -6 29 -12 53 -12 38 0 44 3 50 24 9 37 -20 78 -147 214 -62 65 -76 73 -86 45z"></path>
        </g>
    </g>
    <g id="l4sgzxT6YlDwC8HXnZrNDuu" fill="rgb(225,121,113)" style="transform: none;">
        <g>
            <path id="pgUgaEdPE" d="M134 173 c-58 -68 -103 -127 -104 -135 0 -5 11 -8 24 -8 20 0 33 15 75 92 28 50 50 93 48 94 -2 2 -21 -17 -43 -43z"></path>
            <path id="p10XzG1Too" d="M740 219 c0 -3 23 -47 51 -98 42 -76 55 -91 75 -91 13 0 24 3 24 7 0 13 -150 195 -150 182z"></path>
        </g>
    </g>
</svg>