<svg class="img-fluid" id="outputsvg" xmlns="http://www.w3.org/2000/svg" style="transform: matrix(1, 0, 0, 1, 0, 0); transform-origin: 50% 50% 0px; cursor: move; transition: none 0s ease 0s;" width="142" height="143" viewBox="0 0 1420 1430">
    <g id="l7OExv8byiwKQd1gtqBvcx1" fill="rgb(0,0,0)" style="transform: none;">
        <g>
            <path id="pgubjyncG" d="M490 1411 c-30 -11 -140 -39 -245 -62 -104 -23 -197 -48 -205 -55 -12 -12 -11 -22 10 -76 22 -60 23 -78 28 -365 2 -167 7 -303 11 -303 6 0 -72 -467 -84 -498 -7 -18 12 -52 29 -52 23 0 189 183 229 251 32 55 99 241 127 356 31 120 66 213 158 415 44 95 87 198 97 228 10 30 21 59 26 65 16 17 10 71 -11 90 -29 27 -105 29 -170 6z m22 -197 c-22 -49 -67 -150 -100 -224 -33 -75 -77 -190 -97 -255 -81 -268 -106 -342 -130 -390 l-24 -50 5 40 c22 145 81 408 115 510 50 149 176 397 226 444 20 19 38 30 40 24 2 -6 -14 -51 -35 -99z m-214 29 c-2 -5 -23 -48 -47 -97 -24 -49 -49 -106 -56 -125 l-14 -36 -1 60 c-1 33 -5 86 -9 118 -7 56 -6 58 18 63 14 3 40 10 56 14 40 11 57 12 53 3z"></path>
            <path id="pDzuRl3tV" d="M790 1423 c-31 -12 -50 -37 -50 -68 0 -17 4 -35 9 -40 5 -6 16 -35 26 -65 10 -30 53 -133 97 -228 92 -202 127 -295 158 -415 28 -115 95 -301 127 -356 40 -68 206 -251 229 -251 17 0 36 34 29 52 -12 31 -90 498 -84 498 4 0 9 136 11 303 5 287 6 305 28 365 21 54 22 64 10 76 -8 7 -94 30 -190 51 -96 21 -208 49 -248 62 -70 22 -120 28 -152 16z m137 -145 c40 -43 172 -312 212 -433 34 -102 93 -365 115 -510 l5 -40 -24 50 c-24 48 -49 122 -130 390 -20 65 -64 180 -97 255 -119 267 -138 310 -138 321 0 14 29 -3 57 -33z m243 -37 c19 -5 47 -12 61 -15 24 -5 25 -7 18 -63 -4 -32 -8 -85 -9 -118 l-1 -60 -14 36 c-7 19 -32 76 -56 125 -24 49 -45 92 -47 97 -5 9 5 9 48 -2z"></path>
        </g>
    </g>
    <g id="l5ptHArlvhFmC3RFxaCBb5v" fill="rgb(225,121,113)" style="transform: none;">
        <g>
            <path id="pvDMkt8W4" d="M525 1349 c-48 -13 -78 -53 -158 -209 -77 -149 -122 -263 -156 -398 -23 -89 -112 -565 -106 -570 2 -2 26 24 53 57 58 70 90 147 157 377 50 174 91 283 167 444 60 127 103 234 113 278 6 29 4 32 -17 31 -13 0 -37 -5 -53 -10z"></path>
            <path id="prAdX7awi" d="M825 1328 c10 -44 53 -151 113 -278 76 -161 117 -270 167 -444 67 -230 99 -307 157 -377 27 -33 51 -59 53 -57 6 5 -83 481 -106 570 -34 135 -79 249 -156 398 -82 160 -110 195 -162 210 -64 18 -74 14 -66 -22z"></path>
            <path id="pOq6jlZS5" d="M230 1273 c-57 -13 -106 -26 -108 -28 -2 -2 2 -20 8 -42 6 -21 14 -125 17 -231 l6 -192 41 122 c41 119 146 349 173 376 7 7 13 15 13 18 0 8 -47 1 -150 -23z"></path>
            <path id="pYv8u9oJm" d="M1040 1296 c0 -3 6 -11 13 -18 27 -27 132 -257 173 -376 l41 -122 6 192 c3 106 11 210 17 231 6 22 10 40 8 42 -5 5 -228 55 -244 55 -8 0 -14 -2 -14 -4z"></path>
        </g>
    </g>
</svg>