<svg class="img-fluid" id="outputsvg" xmlns="http://www.w3.org/2000/svg" style="transform: none; transform-origin: 50% 50% 0px; cursor: move; transition: none 0s ease 0s;" width="179" height="41" viewBox="0 0 1790 410">
    <g id="l3JFAf0CMu20pcNc1TrRbXZ" fill="rgb(0,0,0)" style="transform: none;">
        <g>
            <path id="pi1tTkObq" d="M33 396 c-32 -24 -38 -67 -15 -120 46 -103 178 -260 230 -273 36 -9 75 16 86 56 12 42 -10 258 -28 276 -18 19 -148 63 -203 70 -35 5 -54 2 -70 -9z"></path>
            <path id="pl0jKbNTK" d="M1665 403 c-45 -9 -169 -56 -181 -67 -18 -19 -40 -235 -28 -277 11 -40 50 -65 86 -56 52 13 184 170 230 273 40 92 -7 149 -107 127z"></path>
        </g>
    </g>
    <g id="l6gtufF9JVk7oug4DXST7u0" fill="rgb(225,121,113)" style="transform: none;">
        <g>
            <path id="p11XD2rQcl" d="M80 321 c0 -22 87 -158 120 -186 16 -14 22 -15 17 -5 -17 43 -80 195 -81 196 0 1 -13 4 -28 8 -23 5 -28 3 -28 -13z"></path>
            <path id="pmzZ7q8bf" d="M1675 333 c-20 -4 -28 -21 -102 -203 -14 -34 43 29 89 99 43 66 61 113 41 110 -5 -1 -17 -4 -28 -6z"></path>
            <path id="p1QDvxjpY" d="M176 288 c12 -40 63 -149 80 -171 15 -21 16 -19 10 43 -12 119 -15 128 -48 139 -44 16 -50 14 -42 -11z"></path>
            <path id="pZEjnzJ3r" d="M1569 299 c-29 -11 -33 -24 -45 -139 -6 -62 -5 -64 10 -43 17 22 68 131 80 171 8 24 -2 27 -45 11z"></path>
        </g>
    </g>
</svg>