<svg class="img-fluid" id="outputsvg" xmlns="http://www.w3.org/2000/svg" style="transform: none; transform-origin: 50% 50% 0px; cursor: move; transition: none 0s ease 0s;" width="500" height="137" viewBox="0 0 5000 1370">
    <g id="l1OH5kywp9wCqiEHcGyvWhX" fill="rgb(0,0,0)" style="transform: none;">
        <g>
            <path id="pBKDM8ixX" d="M172 1347 c-20 -21 -30 -24 -63 -20 -46 7 -96 -12 -104 -38 -7 -20 8 -228 26 -364 15 -121 41 -220 113 -440 37 -110 85 -264 108 -342 41 -141 41 -143 67 -137 30 7 51 30 51 55 0 38 -32 395 -56 629 -13 135 -27 341 -31 458 -6 206 -7 212 -27 212 -12 0 -30 3 -41 6 -14 3 -28 -3 -43 -19z m11 -294 c4 -93 12 -216 18 -276 6 -59 9 -113 7 -119 -6 -18 -57 179 -72 283 -8 52 -17 136 -21 187 l-8 92 35 0 35 0 6 -167z"></path>
            <path id="pHOamC8RD" d="M4754 1363 l-31 -4 -6 -212 c-4 -117 -18 -322 -31 -457 -24 -234 -56 -591 -56 -629 0 -25 21 -48 51 -55 26 -6 26 -4 67 137 23 78 71 232 108 342 72 220 98 319 113 440 18 136 33 344 26 364 -8 26 -58 45 -104 38 -33 -4 -43 -1 -62 19 -12 13 -27 23 -33 22 -6 0 -25 -3 -42 -5z m131 -235 c-4 -51 -13 -135 -21 -187 -15 -104 -66 -301 -72 -283 -2 6 1 60 7 119 6 60 14 183 18 276 l6 167 35 0 35 0 -8 -92z"></path>
        </g>
    </g>
    <g id="l6daAtyr9BGHyJUGIplf904" fill="rgb(225,121,113)" style="transform: none;">
        <g>
            <path id="p71IRkBpJ" d="M185 1263 c-14 -10 -33 -13 -67 -9 l-46 6 5 -62 c22 -296 51 -444 142 -708 60 -177 62 -168 26 183 -15 137 -29 329 -33 427 -7 176 -7 178 -27 163z"></path>
            <path id="pITrTzdhV" d="M4787 1092 c-4 -103 -18 -295 -32 -427 -36 -342 -34 -351 26 -175 91 264 120 412 142 708 l5 63 -44 -7 c-32 -4 -51 -2 -67 9 l-24 15 -6 -186z"></path>
        </g>
    </g>
</svg>