<svg class="img-fluid" id="outputsvg" xmlns="http://www.w3.org/2000/svg" style="transform: none; transform-origin: 50% 50% 0px; cursor: move; transition: none 0s ease 0s;" width="532" height="46" viewBox="0 0 5320 460">
    <g id="l3dfVaY9mwwPW7I1QJLwxup" fill="rgb(0,0,0)" style="transform: none;">
        <g>
            <path id="paUB928To" d="M7 453 c-21 -20 31 -223 80 -314 45 -84 98 -148 111 -134 6 6 7 68 3 153 l-6 143 -85 79 c-87 81 -92 85 -103 73z"></path>
            <path id="pW9dJqULJ" d="M5210 380 l-85 -79 -6 -143 c-4 -85 -3 -147 3 -153 13 -14 66 50 111 134 37 67 91 255 85 294 -2 11 -7 22 -13 23 -5 2 -48 -32 -95 -76z"></path>
        </g>
    </g>
    <g id="l1nH1TdyR3K8weJytaf8Bbq" fill="rgb(225,121,113)" style="transform: none;">
        <g>
            <path id="p1CIMy1GqN" d="M55 340 c10 -61 41 -146 70 -197 14 -24 28 -43 30 -43 3 0 5 42 5 94 l0 94 -56 48 -56 48 7 -44z"></path>
            <path id="p4Fe3uTxz" d="M5212 332 l-52 -47 0 -95 c1 -88 2 -94 16 -75 38 47 102 227 92 255 -2 5 -27 -13 -56 -38z"></path>
        </g>
    </g>
</svg>