<svg class="img-fluid" id="outputsvg" xmlns="http://www.w3.org/2000/svg" style="transform: matrix(1, 0, 0, 1, 3, -3); transform-origin: 50% 50% 0px; cursor: move; transition: none 0s ease 0s;" width="531" height="28" viewBox="0 0 5310 280">
    <g id="l6Z8jINgqHbiD4OSui0i5bd" fill="rgb(0,0,0)" style="transform: none;">
        <g>
            <path id="ppCDXFwV0" d="M9 278 c0 -2 -1 -37 -2 -78 l-2 -76 68 -59 c39 -35 77 -60 90 -60 20 0 22 6 25 61 l3 61 -76 74 c-65 63 -103 91 -106 77z"></path>
            <path id="pKjziDM5P" d="M5197 203 l-78 -76 3 -61 c3 -55 5 -61 25 -61 13 0 51 25 90 60 l68 59 -1 76 c-1 55 -5 76 -15 78 -8 1 -49 -32 -92 -75z"></path>
        </g>
    </g>
    <g id="l26ReB86lWamSpNwPahnGxM" fill="rgb(225,121,113)" style="transform: none;">
        <g>
            <path id="pIyxyknDY" d="M40 183 c0 -37 5 -45 55 -88 l55 -47 0 34 c0 28 -10 44 -55 88 l-55 54 0 -41z"></path>
            <path id="p16WRSPC9o" d="M5212 167 c-45 -45 -53 -59 -50 -85 l3 -30 53 46 c49 43 53 50 50 85 l-3 38 -53 -54z"></path>
        </g>
    </g>
</svg>