<svg class="img-fluid" id="outputsvg" xmlns="http://www.w3.org/2000/svg" style="transform: none; transform-origin: 50% 50% 0px; cursor: move; transition: none 0s ease 0s;" width="600" height="97" viewBox="0 0 6000 970">
    <g id="l4YtZGMQ6pZViTKuI7aelGH" fill="rgb(0,0,0)" style="transform: none;">
        <g>
            <path id="ppeq7HsRt" d="M417 963 c-3 -5 -21 -59 -41 -120 -39 -123 -57 -223 -50 -281 l5 -37 -16 34 c-18 40 -41 170 -51 289 -6 78 -8 83 -28 80 -19 -3 -22 -13 -33 -98 -6 -52 -12 -137 -12 -189 l-1 -95 107 -180 c59 -100 113 -192 122 -206 27 -46 -6 -6 -74 90 -38 52 -103 140 -145 195 -43 55 -98 133 -124 173 -25 39 -51 72 -56 72 -23 0 -19 -30 15 -101 19 -40 35 -84 35 -97 0 -12 -11 -49 -25 -82 -37 -88 -34 -146 9 -203 58 -76 210 -207 240 -207 17 0 109 53 142 82 11 10 23 15 26 12 4 -3 16 -3 27 1 l20 6 -19 51 c-11 29 -18 53 -17 55 2 1 20 -27 40 -62 21 -36 42 -65 47 -65 22 0 19 28 -19 142 -63 195 -72 250 -78 488 -3 118 -9 225 -14 238 -8 22 -24 29 -32 15z m-160 -727 c82 -112 86 -119 68 -132 -10 -8 -22 -14 -26 -14 -14 0 -123 96 -167 145 -47 54 -49 61 -25 128 l18 49 22 -29 c13 -15 62 -81 110 -147z"></path>
            <path id="p18EsB5Eps" d="M5551 948 c-4 -13 -11 -120 -14 -238 -6 -238 -15 -293 -78 -488 -38 -114 -41 -142 -19 -142 5 0 26 29 47 65 20 35 38 63 40 62 1 -2 -6 -26 -17 -55 l-19 -51 20 -6 c11 -4 23 -4 27 -1 3 3 15 -2 26 -12 33 -29 125 -82 142 -82 30 0 182 131 240 207 43 57 46 115 9 203 -14 33 -25 70 -25 82 0 13 16 57 35 97 34 71 38 101 15 101 -5 0 -31 -33 -56 -72 -26 -40 -81 -118 -124 -173 -42 -55 -107 -143 -145 -195 -68 -96 -101 -136 -74 -90 9 14 63 106 122 206 l107 180 -1 95 c0 52 -6 137 -12 189 -11 85 -14 95 -33 98 -20 3 -22 -2 -28 -80 -10 -119 -33 -249 -51 -289 l-16 -34 5 37 c7 58 -11 159 -52 285 -38 119 -55 143 -71 101z m358 -647 c1 -16 -22 -46 -76 -101 -100 -99 -125 -115 -153 -100 -12 6 -20 16 -18 21 2 5 50 72 107 150 l104 142 18 -44 c10 -24 18 -55 18 -68z"></path>
            <path id="pJORMNjjh" d="M704 869 c-3 -6 -4 -156 -1 -332 3 -178 2 -293 -3 -257 -4 36 -8 155 -9 265 -1 209 -5 245 -26 245 -20 0 -55 -98 -66 -184 -10 -82 -1 -242 24 -416 11 -77 15 -85 35 -88 13 -2 31 0 40 4 9 3 33 6 52 5 19 -1 41 2 47 7 19 12 34 105 35 222 2 112 -42 427 -68 485 -15 35 -50 60 -60 44z"></path>
            <path id="p1AbxIIQVY" d="M5264 862 c-32 -27 -40 -56 -70 -242 -29 -186 -34 -336 -14 -439 12 -63 21 -72 70 -70 19 1 43 -2 52 -5 9 -4 27 -6 40 -4 20 3 24 11 35 88 25 174 34 334 24 416 -11 86 -46 184 -66 184 -21 0 -25 -36 -26 -245 -1 -110 -5 -229 -9 -265 -5 -36 -6 82 -3 261 3 189 2 329 -4 332 -5 3 -18 -2 -29 -11z"></path>
        </g>
    </g>
    <g id="l1l7P4sCBTZX8uGNF796Fq5" fill="rgb(225,121,113)" style="transform: none;">
        <g>
            <path id="pttVswqXU" d="M390 769 c-45 -166 -37 -237 40 -388 42 -82 49 -79 24 9 -11 37 -17 117 -21 245 -3 105 -9 196 -13 204 -4 8 -16 -19 -30 -70z"></path>
            <path id="p1BxZ3ygfJ" d="M5577 830 c-3 -14 -8 -106 -11 -205 -3 -123 -10 -199 -21 -238 -25 -91 -13 -87 33 10 72 152 77 230 24 398 -16 51 -20 56 -25 35z"></path>
            <path id="pF32UFTui" d="M737 662 c9 -396 16 -512 28 -512 16 0 24 42 32 161 5 78 1 128 -22 270 -16 96 -31 177 -34 181 -3 4 -5 -41 -4 -100z"></path>
            <path id="poeWlDGXj" d="M5256 758 c-2 -7 -16 -89 -32 -182 -22 -136 -26 -187 -21 -265 8 -119 16 -161 32 -161 12 0 19 117 28 513 2 103 1 121 -7 95z"></path>
            <path id="ptAXXyAas" d="M225 678 c-4 -47 -3 -97 1 -110 15 -41 148 -261 152 -250 2 6 -17 50 -41 99 -53 106 -72 163 -90 268 l-14 80 -8 -87z"></path>
            <path id="p71C8g4HU" d="M5752 683 c-15 -100 -37 -163 -91 -271 -23 -46 -41 -88 -39 -94 2 -5 37 46 77 114 80 134 88 165 74 272 l-8 60 -13 -81z"></path>
            <path id="phX9dI8La" d="M638 635 c-4 -22 -8 -76 -8 -119 0 -104 29 -358 42 -371 8 -7 9 -5 5 6 -6 18 -26 319 -30 444 -2 68 -3 74 -9 40z"></path>
            <path id="p1DWVaoFda" d="M5351 570 c-1 -116 -18 -371 -27 -410 -3 -16 -2 -22 4 -15 14 14 42 276 41 381 -2 135 -16 171 -18 44z"></path>
            <path id="pF90bZydl" d="M100 483 c0 -17 -12 -61 -26 -99 -18 -47 -24 -78 -19 -101 7 -39 80 -122 172 -194 l65 -52 45 24 c24 13 49 29 54 36 10 12 -79 142 -230 337 -57 74 -61 77 -61 49z"></path>
            <path id="pGLDVfmwc" d="M5844 440 c-148 -189 -245 -332 -235 -343 5 -7 30 -23 54 -36 l45 -24 65 52 c92 72 165 155 172 194 4 22 -1 52 -16 92 -13 33 -25 76 -28 96 l-6 35 -51 -66z"></path>
        </g>
    </g>
</svg>