<svg class="img-fluid" id="outputsvg" xmlns="http://www.w3.org/2000/svg" style="transform: none; transform-origin: 50% 50% 0px; cursor: move; transition: none 0s ease 0s;" width="422" height="128" viewBox="0 0 4220 1280">
    <g id="lUCc7WyggFscmQxltMRXiD" fill="rgb(0,0,0)" style="transform: none;">
        <g>
            <path id="pwgJrIGZT" d="M126 1269 c-3 -8 -31 -140 -63 -294 -53 -261 -57 -289 -58 -420 0 -137 1 -142 32 -207 41 -88 137 -183 277 -276 60 -40 113 -72 117 -72 5 0 16 14 24 31 16 30 16 31 -65 190 -45 89 -98 212 -120 277 -54 167 -64 260 -57 524 7 242 7 243 -52 254 -21 5 -32 2 -35 -7z m47 -856 c3 -5 15 -34 26 -64 l21 -54 -35 40 c-58 67 -81 147 -76 265 2 41 5 34 31 -67 15 -61 30 -116 33 -120z"></path>
            <path id="p14kYjpYBF" d="M4040 1273 c-38 -16 -39 -24 -33 -251 7 -264 -3 -357 -57 -524 -22 -65 -75 -188 -120 -277 -81 -159 -81 -160 -65 -190 8 -17 19 -31 24 -31 4 0 57 32 117 72 140 93 236 188 277 276 32 66 32 69 31 212 -1 136 -5 162 -60 430 -53 254 -62 285 -79 287 -11 1 -27 -1 -35 -4z m72 -715 c0 -89 -26 -165 -77 -223 l-35 -40 21 55 c33 84 56 160 69 228 7 35 15 61 17 58 2 -2 4 -37 5 -78z"></path>
        </g>
    </g>
    <g id="l44ttnOFTL36erss5OTXO0n" fill="rgb(225,121,113)" style="transform: none;">
        <g>
            <path id="pI35RlSP7" d="M100 760 c-45 -249 -28 -362 70 -472 50 -56 147 -135 155 -126 3 2 -13 41 -35 85 -95 194 -135 331 -154 528 l-12 120 -24 -135z"></path>
            <path id="p1EhcZfxbP" d="M4086 795 c-14 -189 -60 -352 -155 -545 -22 -46 -39 -86 -36 -88 8 -9 105 70 155 126 106 119 119 242 56 547 l-12 60 -8 -100z"></path>
        </g>
    </g>
</svg>