<svg class="img-fluid" id="outputsvg" xmlns="http://www.w3.org/2000/svg" style="transform: none; transform-origin: 50% 50% 0px; cursor: move; transition: none 0s ease 0s;" width="456" height="58" viewBox="0 0 4560 580">
    <g id="l2caMSOIdqCzt7XywmcdWxT" fill="rgb(0,0,0)" style="transform: none;">
        <g>
            <path id="prCcEHab5" d="M33 573 c-38 -5 -39 -14 -23 -143 8 -58 22 -100 64 -185 29 -60 63 -137 76 -170 13 -33 26 -63 29 -67 3 -4 21 0 39 7 27 12 32 19 32 47 0 18 12 75 26 126 l26 92 -73 78 c-45 47 -89 105 -112 150 -21 39 -41 71 -45 70 -4 0 -22 -3 -39 -5z"></path>
            <path id="pjWRImOsj" d="M4443 507 c-23 -44 -67 -103 -112 -149 l-73 -78 26 -92 c14 -51 26 -108 26 -126 0 -28 5 -35 33 -47 17 -7 35 -11 38 -7 3 4 16 34 29 67 13 33 47 110 77 171 49 100 55 122 65 213 6 56 9 103 7 105 -2 2 -21 6 -41 9 l-38 6 -37 -72z"></path>
        </g>
    </g>
    <g id="ltygkYdquAhRjAXwLcY10v" fill="rgb(225,121,113)" style="transform: none;">
        <g>
            <path id="peu3JKUOH" d="M100 372 c-1 -11 85 -180 91 -181 3 -1 10 14 16 32 10 33 8 36 -48 94 -33 34 -59 58 -59 55z"></path>
            <path id="p905plh2b" d="M4399 315 c-53 -57 -55 -62 -46 -92 5 -18 13 -33 16 -32 8 1 96 178 90 182 -2 1 -29 -25 -60 -58z"></path>
        </g>
    </g>
</svg>