<svg class="img-fluid" id="outputsvg" xmlns="http://www.w3.org/2000/svg" style="transform: none; transform-origin: 50% 50% 0px; cursor: move; transition: none 0s ease 0s;" width="498" height="144" viewBox="0 0 4980 1440">
    <g id="l4pjjvlhMGP3dsGD3yCM4CX" fill="rgb(0,0,0)" style="transform: none;">
        <g>
            <path id="p162i7JiQX" d="M16 1433 c-17 -4 -18 -12 -13 -66 78 -807 101 -933 195 -1092 41 -70 122 -172 184 -232 l43 -42 34 31 34 30 -81 252 c-45 138 -122 388 -171 556 -49 168 -108 363 -130 433 -23 70 -41 130 -41 132 0 6 -28 5 -54 -2z"></path>
            <path id="pERElPtp8" d="M4910 1435 c0 -2 -18 -62 -41 -132 -22 -70 -81 -265 -130 -433 -49 -168 -126 -418 -171 -556 l-81 -252 34 -30 34 -31 43 42 c62 60 143 162 184 232 94 159 117 284 195 1091 5 58 4 61 -18 67 -28 8 -49 9 -49 2z"></path>
        </g>
    </g>
    <g id="l7LpKkksxrz2bYPwJEVro32" fill="rgb(225,121,113)" style="transform: none;">
        <g>
            <path id="pltvgWrpS" d="M121 980 c-1 -43 29 -291 44 -375 21 -112 42 -179 77 -249 28 -57 128 -199 135 -193 1 2 -18 65 -43 140 -25 75 -83 264 -129 419 -46 156 -84 272 -84 258z"></path>
            <path id="p2LYqOWxf" d="M4791 777 c-35 -122 -92 -310 -127 -417 -35 -107 -62 -196 -60 -197 1 -1 25 28 53 65 93 123 135 231 167 432 17 109 40 329 35 335 -2 2 -33 -97 -68 -218z"></path>
        </g>
    </g>
</svg>