<svg class="img-fluid" id="outputsvg" xmlns="http://www.w3.org/2000/svg" style="transform: none; transform-origin: 50% 50% 0px; cursor: move; transition: none 0s ease 0s;" width="420" height="203" viewBox="0 0 4200 2030">
    <g id="l4Buwczh75PnbENGWp4OOt4" fill="rgb(0,0,0)" style="transform: none;">
        <g>
            <path id="pGA9vplVt" d="M33 2015 c-42 -18 -42 -23 2 -238 88 -423 101 -575 74 -841 l-11 -111 60 -215 c102 -359 131 -424 241 -536 58 -59 74 -70 102 -69 l34 0 13 85 c9 51 15 173 16 305 1 197 -1 231 -22 325 -30 132 -104 360 -197 605 -117 308 -267 689 -274 697 -3 4 -21 0 -38 -7z m250 -850 c74 -199 135 -399 159 -518 23 -119 30 -307 14 -402 l-8 -50 -20 25 c-43 51 -89 172 -153 394 l-66 229 10 118 c6 64 11 166 11 225 0 59 2 105 4 103 3 -2 25 -58 49 -124z"></path>
            <path id="pF9nYhiet" d="M4121 2008 c-5 -13 -44 -111 -86 -218 -235 -596 -334 -879 -377 -1070 -21 -94 -23 -128 -22 -325 1 -132 7 -254 16 -305 l13 -85 34 0 c28 -1 44 10 102 69 110 112 139 177 241 536 l60 215 -11 111 c-27 266 -14 417 74 844 20 95 35 185 33 199 -2 17 -13 29 -36 38 -30 12 -33 12 -41 -9z m-141 -1030 l11 -136 -66 -229 c-64 -221 -110 -342 -153 -393 l-20 -25 -8 50 c-5 28 -8 104 -8 170 1 194 45 379 178 740 l51 140 2 -90 c1 -49 7 -151 13 -227z"></path>
        </g>
    </g>
    <g id="l6zrtr1DNYLkawj7krDbOnd" fill="rgb(225,121,113)" style="transform: none;">
        <g>
            <path id="pQgiQYfd8" d="M151 1605 c-1 -5 8 -62 19 -125 30 -173 34 -273 20 -479 l-12 -186 66 -230 c37 -126 82 -261 100 -300 41 -86 116 -183 126 -163 4 7 13 69 20 138 30 297 -18 521 -232 1080 -106 278 -107 278 -107 265z"></path>
            <path id="pi650b7Vc" d="M3950 1362 c-222 -583 -270 -802 -240 -1102 7 -69 16 -131 20 -138 10 -20 85 77 126 163 18 39 63 174 100 300 l66 230 -12 186 c-15 209 -11 298 20 478 11 68 19 125 18 127 -2 1 -46 -108 -98 -244z"></path>
        </g>
    </g>
</svg>