<svg class="img-fluid" id="outputsvg" xmlns="http://www.w3.org/2000/svg" style="transform: matrix(1, 0, 0, 1, 0, 1); transform-origin: 50% 50% 0px; cursor: move; transition: none 0s ease 0s;" width="448" height="154" viewBox="0 0 4480 1540">
    <g id="ld5ZnCBvQNhAQSmLLZT8AV" fill="rgb(0,0,0)" style="transform: none;">
        <g>
            <path id="pbniD5tUi" d="M38 1522 c-24 -11 -38 -24 -38 -35 0 -10 16 -118 35 -240 71 -458 99 -715 110 -1032 8 -220 7 -216 48 -208 17 3 33 7 35 8 1 1 11 44 23 96 80 367 60 799 -55 1149 -39 121 -105 280 -115 279 -3 0 -23 -8 -43 -17z"></path>
            <path id="pmdYCPJr" d="M4355 1453 c-177 -419 -222 -903 -126 -1342 12 -52 22 -95 23 -96 2 -1 18 -5 35 -8 41 -8 40 -12 48 208 11 317 39 574 110 1032 19 122 35 230 35 240 0 13 -13 24 -37 33 -21 8 -41 16 -44 18 -4 2 -23 -37 -44 -85z"></path>
        </g>
    </g>
    <g id="l5Bu1KxuWnUX1Q23NPCK8F9" fill="rgb(225,121,113)" style="transform: none;">
        <g>
            <path id="p125pto6kC" d="M121 1217 c-1 -10 10 -96 24 -190 31 -219 52 -403 62 -542 l7 -110 8 70 c17 140 -11 453 -56 640 -28 112 -44 161 -45 132z"></path>
            <path id="p1Ai7w6kqp" d="M4332 1155 c-61 -228 -94 -543 -74 -710 l8 -70 7 110 c10 139 31 321 63 548 14 97 24 183 22 189 -3 7 -14 -23 -26 -67z"></path>
        </g>
    </g>
</svg>