<svg class="img-fluid" id="outputsvg" xmlns="http://www.w3.org/2000/svg" style="transform: none; transform-origin: 50% 50% 0px; cursor: move; transition: none 0s ease 0s;" width="454" height="143" viewBox="0 0 4540 1430">
    <g id="l1qmLIr9lajKHzkHd0xtFkt" fill="rgb(0,0,0)" style="transform: none;">
        <g>
            <path id="p1FpznAsHV" d="M16 1415 c-19 -15 -19 -21 13 -442 32 -433 52 -658 74 -858 13 -122 23 -135 72 -92 l28 23 0 210 c1 176 -4 240 -27 404 -45 325 -121 763 -131 766 -6 2 -19 -3 -29 -11z"></path>
            <path id="pKDQeeIHV" d="M4485 1418 c-7 -22 -103 -623 -127 -793 -17 -125 -22 -206 -21 -369 l0 -210 28 -23 c49 -43 59 -30 72 92 22 200 42 425 74 858 32 421 32 427 13 442 -24 18 -33 19 -39 3z"></path>
        </g>
    </g>
    <g id="lJ4xzhtBfozuTY5h6SqNrg" fill="rgb(225,121,113)" style="transform: none;">
        <g>
            <path id="p74yBrqd5" d="M51 1187 c-5 -79 85 -1100 99 -1126 14 -26 23 137 17 299 -6 148 -37 389 -91 705 -13 77 -24 132 -25 122z"></path>
            <path id="puodZvn4V" d="M4461 1059 c-61 -390 -82 -555 -88 -699 -6 -162 3 -325 17 -299 16 29 108 1100 98 1131 -2 6 -14 -54 -27 -133z"></path>
        </g>
    </g>
</svg>