<svg class="template" id="outputsvg" xmlns="http://www.w3.org/2000/svg" style="transform: none; transform-origin: 50% 50% 0px; cursor: move; transition: none 0s ease 0s;" width="1139" height="1601" viewBox="0 0 11390 16010">
    <g id="l4THU94z9LhjoGSmhrf4Nx4" fill="rgb(0,0,0)" style="transform: none;">
        <g>
            <path id="pKk4qrkyk" d="M5145 15992 c-34 -16 -44 -16 -65 -5 -32 16 -78 16 -110 -1 -21 -11 -30 -10 -54 2 -18 9 -42 12 -65 8 -20 -4 -67 -11 -105 -16 -45 -6 -76 -16 -88 -28 -18 -17 -22 -18 -64 -4 -160 53 -160 -167 1 -430 35 -55 35 -57 35 -173 0 -75 9 -170 24 -268 14 -84 28 -199 31 -257 l6 -105 -91 -400 c-206 -905 -270 -1291 -270 -1617 1 -210 27 -382 73 -473 18 -37 19 -53 14 -195 -15 -373 -56 -623 -147 -885 -32 -93 -82 -237 -110 -320 -134 -387 -217 -875 -285 -1675 -15 -168 -40 -424 -57 -570 -52 -442 -46 -556 54 -1015 40 -187 41 -193 43 -410 2 -237 5 -256 63 -395 30 -71 32 -88 47 -305 9 -126 23 -277 32 -335 8 -58 15 -118 14 -135 -3 -77 -42 -459 -51 -507 -13 -66 -51 -210 -55 -206 -2 2 -8 63 -14 136 -12 147 -31 234 -66 302 -20 39 -24 69 -34 240 -39 659 -95 845 -525 1749 -68 142 -116 256 -116 274 0 16 5 47 12 69 10 33 9 48 -6 92 -16 47 -17 64 -7 136 17 130 14 293 -8 385 -40 166 -44 206 -50 502 -6 292 -7 303 -28 324 -18 18 -28 21 -66 15 -25 -4 -51 -14 -59 -23 -9 -12 -15 -75 -19 -232 -7 -212 -13 -266 -30 -256 -4 3 -44 117 -88 253 -48 147 -92 266 -110 294 -17 27 -32 48 -35 48 -2 0 -19 7 -39 15 -33 13 -37 13 -61 -6 -39 -31 -34 -75 33 -282 58 -179 89 -323 58 -267 -8 14 -47 113 -87 220 -105 282 -144 350 -201 350 -24 0 -59 -56 -59 -93 0 -43 27 -162 75 -334 24 -86 43 -158 41 -160 -5 -5 -138 177 -196 269 l-55 87 -46 1 c-119 1 -108 -87 56 -446 48 -104 102 -228 121 -276 35 -90 44 -162 21 -171 -7 -3 -68 23 -135 56 -97 48 -134 62 -180 65 -55 4 -61 2 -96 -28 -20 -18 -43 -45 -51 -60 -17 -33 -13 -37 56 -68 87 -37 156 -90 296 -224 94 -90 178 -160 259 -214 110 -74 120 -83 137 -129 37 -99 65 -233 77 -365 13 -163 22 -199 72 -315 38 -87 40 -99 78 -415 88 -722 113 -843 251 -1185 81 -201 97 -285 128 -655 23 -263 37 -350 82 -493 l30 -98 -45 -137 c-89 -270 -110 -376 -109 -562 1 -195 42 -368 130 -547 110 -220 231 -322 439 -372 108 -26 252 -51 291 -51 69 0 547 -179 643 -241 86 -56 97 -83 110 -290 14 -226 16 -319 8 -322 -4 -1 -17 -42 -28 -92 -25 -104 -62 -185 -125 -270 -88 -121 -145 -266 -145 -373 0 -61 29 -102 88 -121 l39 -13 17 -132 c22 -171 38 -232 91 -342 70 -146 171 -227 347 -279 120 -37 225 -48 377 -43 408 16 594 170 710 585 16 60 32 123 36 140 5 26 12 33 30 33 61 0 86 94 62 237 -12 75 -26 116 -70 206 -48 96 -60 135 -91 279 -125 579 -69 769 264 911 115 49 313 105 434 123 523 79 719 260 821 756 68 335 53 641 -46 931 l-30 89 30 126 c17 70 35 179 41 242 22 250 30 299 62 366 23 49 33 90 40 157 7 72 22 129 69 260 139 392 183 593 244 1124 30 268 31 283 7 283 -26 0 -60 -127 -82 -310 -59 -481 -101 -667 -240 -1059 -45 -127 -61 -187 -68 -258 -7 -67 -17 -109 -40 -157 -27 -57 -33 -87 -47 -228 -22 -233 -31 -288 -67 -430 l-33 -127 24 -63 c78 -208 118 -433 107 -603 -27 -410 -142 -719 -315 -848 -81 -59 -183 -106 -297 -135 -60 -16 -104 -32 -104 -39 0 -25 -40 -34 -123 -27 -72 5 -96 3 -182 -21 -288 -78 -462 -173 -531 -291 -62 -106 -84 -260 -65 -454 22 -220 87 -526 115 -542 9 -5 16 -18 16 -28 0 -11 9 -27 20 -38 22 -21 73 -127 90 -190 26 -99 10 -155 -56 -194 -19 -11 -34 -26 -34 -33 0 -8 -6 -18 -14 -22 -7 -4 -26 -52 -40 -106 -25 -90 -73 -229 -99 -285 -6 -12 -45 -57 -86 -100 -84 -86 -157 -130 -260 -157 -36 -9 -70 -23 -75 -31 -24 -31 -341 -25 -382 7 -7 5 -51 23 -99 39 -48 16 -109 43 -135 60 -59 38 -172 156 -187 195 -24 65 -64 256 -76 365 l-13 115 -44 5 c-55 7 -66 13 -85 50 -13 24 -13 35 0 84 19 74 58 168 86 208 54 80 94 128 104 128 16 0 58 99 85 200 15 56 25 123 27 195 5 130 -12 428 -29 492 -24 98 -129 162 -468 283 -153 55 -188 64 -278 71 -70 5 -109 13 -121 23 -9 8 -48 20 -86 26 -79 12 -195 44 -240 67 -135 68 -256 234 -333 453 -97 278 -88 472 38 854 33 98 60 188 60 198 0 11 -13 57 -29 102 -47 133 -71 266 -91 511 -11 126 -29 293 -40 370 -19 122 -28 156 -76 267 -137 324 -180 514 -254 1128 -17 140 -35 269 -40 285 -5 17 -16 68 -25 115 -9 47 -26 108 -37 135 -34 82 -47 143 -59 275 -12 140 -45 301 -64 313 -7 4 -16 25 -20 48 -4 22 -13 43 -21 46 -8 3 -14 13 -14 23 0 22 -46 61 -140 120 -42 26 -138 107 -225 190 -128 122 -232 202 -289 224 -8 2 -8 7 0 15 14 15 72 -6 192 -69 75 -41 102 -50 142 -50 38 0 55 5 71 21 19 19 21 30 17 113 -5 103 -15 130 -146 418 -89 195 -135 308 -129 314 2 2 30 -35 62 -83 32 -48 93 -134 137 -191 43 -58 86 -118 96 -134 15 -26 21 -29 62 -26 44 3 45 4 48 38 2 20 -21 120 -53 235 -72 257 -97 356 -92 361 6 6 36 -66 112 -271 37 -99 78 -201 91 -227 24 -47 25 -48 72 -48 74 0 76 3 70 122 -5 90 -13 124 -61 273 -36 108 -50 161 -38 146 22 -29 49 -101 112 -304 54 -176 78 -236 102 -255 9 -8 34 -12 63 -10 45 3 48 5 62 43 11 29 16 98 19 245 5 199 15 274 27 200 3 -19 7 -156 10 -305 4 -251 6 -278 32 -390 31 -132 36 -250 20 -466 -9 -113 -8 -117 13 -130 17 -12 21 -23 21 -72 0 -42 -4 -59 -15 -63 -8 -4 -15 -18 -15 -34 0 -16 64 -163 141 -327 411 -867 463 -1043 500 -1688 11 -187 14 -204 41 -260 33 -70 53 -169 63 -310 3 -55 12 -122 19 -150 13 -48 14 -50 52 -53 21 -1 44 1 49 5 12 8 67 201 84 293 6 30 15 107 21 170 5 63 17 185 26 270 13 120 14 165 5 200 -21 87 -31 177 -47 430 -10 140 -21 257 -25 260 -12 8 -54 107 -70 165 -10 35 -14 113 -14 265 -1 212 -1 218 -38 380 -94 413 -107 545 -78 795 28 236 76 721 91 910 29 392 105 905 176 1190 33 130 65 231 164 510 70 197 81 237 77 280 -2 35 8 95 35 202 52 211 64 363 50 643 -5 118 -15 227 -21 242 -19 51 -41 236 -41 354 0 146 21 334 61 564 17 96 35 216 39 265 10 113 46 290 115 560 66 257 90 388 105 570 6 77 16 163 22 192 16 75 -15 293 -42 293 -3 0 -5 69 -5 153 l-1 152 -71 159 c-53 116 -73 172 -74 207 -3 59 3 66 33 45 13 -9 42 -16 69 -16 39 0 47 4 57 25 12 27 15 28 79 25 22 -1 50 4 61 11 18 11 24 10 40 -4 23 -21 95 -23 112 -2 7 8 18 15 25 15 7 0 18 -7 25 -15 18 -22 87 -19 117 5 33 26 65 25 88 0 18 -20 18 -22 -10 -78 l-28 -57 2 -370 2 -370 -62 -150 -62 -150 2 -225 c2 -208 5 -238 36 -405 54 -287 57 -311 56 -493 -1 -95 5 -237 13 -315 36 -345 32 -444 -26 -680 -20 -85 -31 -158 -35 -242 l-6 -121 52 -128 c66 -166 92 -267 100 -396 8 -135 -3 -520 -18 -630 -11 -76 -7 -152 36 -725 44 -598 47 -664 47 -1005 0 -237 -6 -440 -17 -580 -18 -242 -16 -270 18 -270 20 0 25 -8 40 -75 l16 -75 63 0 62 0 24 75 c17 55 28 75 41 75 27 0 29 40 12 270 -11 140 -17 343 -17 580 0 341 3 407 47 1005 43 574 47 648 36 720 -7 44 -13 184 -14 311 -1 127 -5 236 -8 241 -3 5 -2 52 3 104 13 128 12 139 -4 139 -14 0 -17 -10 -47 -165 -18 -99 -22 -432 -6 -585 14 -133 14 -145 -31 -755 -40 -551 -45 -659 -46 -970 -1 -195 5 -455 13 -587 l14 -237 -24 -80 c-14 -48 -30 -81 -39 -83 -35 -9 -46 5 -69 83 l-24 80 14 237 c8 132 14 392 13 587 -1 311 -6 419 -46 970 -45 610 -45 622 -31 755 18 170 12 486 -12 615 -20 112 -79 345 -111 437 -22 64 -23 77 -14 166 5 53 23 156 39 227 57 246 62 397 26 735 -18 161 -18 164 -16 355 2 155 -4 201 -74 575 -19 103 -25 168 -25 276 l0 140 60 150 61 149 -1 373 0 374 31 63 c42 87 48 141 18 179 -43 55 -114 69 -184 38z"></path>
            <path id="pB9DqAEY9" d="M5674 15996 c-17 -8 -41 -27 -53 -42 -30 -38 -24 -92 18 -179 l31 -63 0 -374 -1 -373 61 -149 60 -150 0 -140 c0 -108 -6 -173 -25 -276 -70 -374 -76 -420 -74 -575 2 -191 2 -194 -16 -355 -36 -338 -31 -489 26 -735 16 -71 34 -173 39 -225 9 -93 8 -98 -25 -203 -48 -152 -52 -177 -28 -177 15 0 23 11 32 43 7 23 31 84 53 135 l41 93 -6 122 c-4 86 -14 158 -35 244 -58 236 -62 335 -26 680 8 78 14 220 13 315 -1 182 2 206 56 493 31 167 34 197 36 405 l2 225 -62 149 -61 150 0 165 c-1 91 -5 185 -9 209 -5 23 -5 42 -1 42 4 0 10 70 13 156 l5 157 -31 63 c-30 62 -30 64 -12 84 23 25 55 26 88 0 30 -24 99 -27 117 -5 7 8 18 15 25 15 7 0 18 -7 25 -15 17 -21 89 -19 112 2 16 14 22 15 40 4 11 -7 39 -12 61 -11 64 3 67 2 79 -25 10 -21 18 -25 57 -25 27 0 56 7 69 16 13 9 25 14 28 11 3 -2 6 -34 8 -71 3 -71 4 -67 -109 -283 -22 -42 -29 -73 -36 -162 -10 -121 -47 -444 -55 -476 -6 -24 20 -263 41 -385 8 -47 31 -146 50 -220 87 -332 117 -478 154 -760 5 -41 25 -167 44 -280 20 -113 41 -263 48 -333 14 -151 7 -379 -16 -482 -24 -111 -29 -155 -16 -155 6 0 11 -13 11 -30 0 -37 15 -39 33 -2 40 78 66 262 67 460 0 326 -64 712 -270 1617 l-91 400 6 105 c3 58 17 173 31 257 15 98 24 193 24 268 0 116 0 118 35 173 161 263 161 483 1 430 -42 -14 -46 -13 -64 4 -12 12 -43 22 -88 28 -38 5 -85 12 -105 16 -23 4 -47 1 -65 -8 -24 -12 -33 -13 -54 -2 -32 17 -78 17 -110 1 -21 -11 -31 -11 -65 5 -47 21 -89 22 -131 4z"></path>
            <path id="pjkhiEQAE" d="M6494 11963 c-10 -52 4 -317 21 -416 8 -46 24 -114 36 -152 14 -44 22 -90 20 -125 -2 -47 10 -90 79 -285 99 -280 131 -380 164 -510 71 -285 147 -798 176 -1190 15 -189 63 -674 91 -910 29 -250 16 -382 -78 -795 -37 -162 -37 -168 -38 -380 0 -233 -4 -258 -60 -390 l-32 -75 -13 -498 c-17 -648 -11 -730 70 -1029 22 -81 40 -154 40 -162 0 -18 35 -29 76 -24 27 3 29 7 45 88 9 47 24 101 32 120 9 23 14 76 15 157 1 94 6 134 21 175 46 123 50 148 61 318 32 537 164 967 565 1844 75 164 77 171 70 224 -9 73 -13 82 -39 82 -19 0 -21 -5 -18 -37 3 -31 -14 -77 -88 -238 -307 -669 -464 -1116 -524 -1495 -19 -113 -46 -402 -46 -481 0 -42 -8 -74 -32 -125 -30 -65 -32 -78 -36 -204 -3 -100 -8 -149 -23 -188 -10 -29 -19 -63 -19 -75 -1 -39 -17 1 -45 113 -66 259 -71 345 -56 926 l13 459 30 75 c58 141 61 159 63 395 2 217 3 223 43 410 100 459 106 573 54 1015 -17 146 -42 402 -57 570 -68 800 -151 1288 -285 1675 -28 83 -78 227 -110 320 -33 94 -70 226 -84 295 -24 122 -56 388 -56 473 0 87 -32 122 -46 50z"></path>
            <path id="p1ALfz7NgN" d="M8334 9600 c-54 -22 -90 -98 -190 -396 -71 -214 -78 -232 -87 -217 -12 19 -27 180 -27 286 0 115 -11 156 -53 207 -22 25 -25 26 -50 14 -44 -23 -50 -72 -43 -305 8 -223 -2 -339 -35 -416 -34 -79 -49 -185 -49 -340 0 -81 5 -177 10 -213 6 -44 6 -68 -2 -77 -8 -10 -4 -13 21 -13 21 0 31 5 31 15 0 8 4 15 9 15 4 0 8 100 7 223 -1 208 0 226 23 292 17 51 22 83 18 117 -9 69 1 115 26 122 19 5 20 10 14 228 -3 132 -2 205 3 178 5 -25 9 -102 9 -172 1 -69 6 -149 13 -177 l11 -51 68 0 67 0 16 43 c9 23 47 132 84 242 62 180 120 319 122 289 0 -6 -23 -87 -51 -180 -45 -150 -51 -180 -52 -269 l-2 -100 45 0 45 0 32 65 c18 36 46 100 62 142 75 194 134 327 143 322 16 -10 -1 -90 -48 -224 -78 -219 -103 -357 -72 -388 7 -7 27 -12 45 -12 28 0 40 9 87 66 29 36 84 123 122 194 38 71 81 144 97 162 l28 33 -4 -51 c-3 -40 -26 -96 -105 -255 -125 -251 -162 -357 -162 -463 0 -105 14 -126 84 -126 40 0 66 8 121 38 116 63 201 95 230 88 28 -7 25 -26 -4 -26 -39 0 -179 -105 -291 -219 -84 -85 -147 -138 -235 -196 -94 -63 -121 -85 -123 -105 -2 -14 -9 -38 -17 -55 -7 -16 -16 -42 -20 -57 -4 -17 -15 -28 -28 -30 -28 -4 -33 -28 -58 -241 -11 -98 -29 -211 -40 -250 -11 -40 -23 -89 -26 -110 -6 -44 4 -107 17 -107 15 0 68 122 84 191 8 35 22 132 31 214 21 185 28 226 55 298 30 80 57 108 187 194 84 54 146 107 231 192 149 150 252 221 322 221 19 0 33 6 37 16 9 25 -16 94 -45 121 -25 23 -33 25 -103 21 -69 -3 -85 -8 -199 -65 -89 -44 -127 -58 -132 -50 -30 47 17 187 153 462 111 226 126 276 109 362 -7 32 -18 66 -24 75 -11 16 -16 15 -62 -6 -61 -28 -89 -65 -175 -227 -35 -66 -76 -135 -91 -152 l-27 -32 10 40 c6 22 33 107 61 190 56 165 68 247 46 330 -10 40 -18 51 -37 53 -71 10 -90 -16 -196 -280 -41 -101 -74 -178 -74 -173 -1 6 20 78 45 160 50 163 66 273 43 292 -21 17 -61 23 -85 13z"></path>
        </g>
    </g>
    <g id="l3tYltPM8A0nDMCdZYlzUWL" fill="rgb(233,219,194)" style="transform: none;">
        <g>
            <path id="p131FUlOdX" d="M5147 15946 c-45 -31 -43 -31 -74 -6 -14 11 -36 20 -48 20 -12 0 -34 -9 -48 -20 -14 -11 -28 -20 -32 -20 -4 0 -18 9 -32 20 -30 24 -62 26 -89 6 -13 -10 -33 -13 -60 -9 -47 6 -80 -8 -89 -37 -8 -25 -25 -25 -72 0 -45 24 -57 25 -77 4 -23 -23 -17 -148 7 -152 10 -2 17 -12 17 -23 0 -11 34 -99 77 -195 l76 -174 37 0 c32 0 39 -4 44 -25 5 -20 12 -25 40 -25 35 0 46 15 46 68 0 13 6 22 15 22 19 0 19 -2 0 -92 -9 -40 -19 -114 -22 -165 -6 -91 -6 -91 -26 -72 -20 18 -109 49 -141 49 -18 0 -20 -12 -7 -38 17 -30 32 -169 21 -197 -7 -20 -6 -25 5 -25 18 0 18 -7 0 -190 -18 -182 -33 -263 -100 -525 -29 -115 -67 -280 -85 -365 -17 -85 -33 -165 -36 -177 -2 -13 -10 -23 -18 -23 -9 0 -13 -14 -12 -47 0 -27 -16 -142 -36 -258 -20 -115 -42 -267 -48 -338 -16 -161 -7 -443 16 -547 9 -41 16 -87 16 -102 -1 -24 3 -28 26 -28 33 0 128 43 134 61 2 6 16 -17 32 -52 15 -35 41 -85 58 -111 26 -42 35 -48 63 -48 25 0 38 7 53 28 26 37 72 140 72 162 0 9 16 79 35 156 73 287 87 387 92 639 3 131 -1 355 -9 520 -8 160 -13 321 -10 359 l4 69 -65 -7 -66 -7 14 58 c8 32 14 77 15 101 0 40 -1 42 -30 42 -27 0 -29 3 -25 28 4 25 25 235 25 254 0 4 7 8 15 8 11 0 15 -12 15 -45 0 -44 1 -45 33 -45 l32 0 29 130 c31 140 39 150 85 113 l22 -18 -25 -175 c-51 -354 -54 -596 -15 -1455 10 -236 19 -470 19 -518 0 -79 2 -90 23 -111 13 -13 34 -49 47 -80 15 -38 28 -56 40 -56 15 0 18 13 22 98 3 56 18 151 36 227 59 249 64 388 26 748 -10 97 -14 193 -11 266 7 144 -4 250 -53 510 -37 195 -39 221 -40 402 l-1 194 60 149 61 150 0 180 c0 100 4 188 10 196 5 8 5 19 0 25 -5 6 -9 84 -11 175 l-2 165 32 65 c37 78 38 99 7 129 -38 35 -93 38 -139 7z m-377 -420 c0 -13 3 -39 6 -57 10 -49 -1 -33 -19 29 -14 45 -14 52 -1 52 8 0 14 -10 14 -24z"></path>
            <path id="puYxHRS7g" d="M5700 15963 c-28 -10 -60 -46 -60 -67 0 -12 14 -50 31 -86 31 -64 32 -68 30 -194 -2 -103 -6 -132 -18 -141 -13 -10 -11 -18 16 -61 26 -42 28 -49 13 -52 -16 -2 -17 -19 -12 -190 l5 -187 58 -140 58 -140 -1 -194 c-1 -181 -3 -206 -40 -402 -49 -260 -60 -366 -53 -510 3 -73 -1 -169 -11 -266 -38 -361 -33 -501 26 -748 24 -99 31 -155 32 -232 1 -97 2 -103 22 -103 16 0 29 18 61 88 44 93 47 113 78 547 3 44 10 310 15 590 8 468 7 530 -11 759 -11 136 -19 256 -17 265 6 29 68 -310 77 -421 6 -69 5 -186 -2 -330 -15 -272 -13 -385 7 -688 40 -585 73 -746 184 -892 32 -43 40 -48 75 -48 52 0 83 34 97 108 21 110 20 106 33 88 14 -18 98 -46 140 -46 29 0 37 17 13 26 -11 4 -13 12 -6 29 20 54 40 241 40 381 0 205 -29 445 -94 782 -8 40 -12 82 -9 92 4 15 0 20 -15 20 -23 0 -20 -11 -58 210 -14 85 -46 232 -70 325 -103 398 -134 585 -134 811 l0 134 -50 0 -50 0 0 88 c0 48 -6 111 -14 140 -11 44 -11 52 0 52 8 0 14 -9 14 -20 0 -17 7 -20 40 -20 l40 0 0 80 c0 64 3 80 15 80 8 0 15 -9 15 -21 0 -17 5 -20 37 -17 36 3 40 7 85 88 26 47 61 119 79 160 17 41 37 78 43 83 8 5 6 11 -6 18 -13 7 -16 17 -12 39 16 75 -21 105 -87 71 -50 -26 -66 -26 -74 -1 -9 29 -42 43 -89 37 -27 -4 -47 -1 -60 9 -27 20 -59 18 -89 -6 -14 -11 -28 -20 -32 -20 -4 0 -18 9 -32 20 -14 11 -36 20 -48 20 -12 0 -34 -9 -48 -20 -31 -25 -29 -25 -73 5 -35 24 -71 30 -104 18z m424 -1525 c3 -29 5 -73 5 -98 l-1 -45 -14 55 c-25 102 -28 140 -12 140 11 0 17 -16 22 -52z"></path>
            <path id="pHylEI9XI" d="M4794 11851 c-66 -40 -113 -137 -114 -233 l0 -66 106 -7 c120 -8 163 0 181 35 14 28 18 237 5 258 -22 33 -131 42 -178 13z"></path>
            <path id="pbLMwG594" d="M6023 11863 c-42 -8 -45 -23 -38 -173 l8 -140 116 0 c159 0 165 4 169 100 1 48 -4 98 -15 140 -16 58 -21 65 -48 71 -34 7 -158 9 -192 2z"></path>
            <path id="pdqMHL5g8" d="M5624 11622 c3 -5 7 -118 10 -253 3 -134 10 -269 15 -299 7 -42 -2 -207 -37 -675 -44 -596 -46 -636 -45 -1030 0 -248 6 -481 14 -590 16 -207 15 -225 -12 -225 -28 0 -24 -35 6 -48 14 -7 41 -12 59 -12 l33 0 23 155 c13 85 25 154 27 152 1 -2 21 -88 43 -192 l40 -188 -50 -58 c-40 -46 -50 -65 -50 -93 0 -20 4 -36 8 -36 12 0 243 -152 332 -218 159 -119 349 -322 485 -517 64 -93 185 -289 180 -293 -2 -2 -12 1 -23 7 -29 16 -186 14 -225 -3 -75 -31 -129 -118 -171 -275 -24 -90 -24 -90 -19 -498 7 -518 -10 -754 -78 -1069 -96 -450 -226 -750 -479 -1104 l-68 -95 -6 -275 c-3 -151 -9 -374 -12 -494 -6 -196 -5 -223 11 -252 24 -45 117 -96 253 -140 65 -20 128 -41 142 -45 l25 -9 -25 5 c-14 2 -100 9 -190 16 -219 15 -587 3 -785 -27 -35 -5 -30 -1 42 35 135 66 204 151 240 298 12 51 16 113 16 248 0 180 -12 304 -55 572 l-20 132 -50 42 c-28 23 -71 70 -95 103 -149 202 -362 786 -445 1224 -19 99 -23 150 -22 332 0 202 2 224 32 370 28 138 32 173 32 322 0 267 -33 382 -139 489 -68 67 -136 102 -213 107 -82 6 -121 -4 -174 -44 l-47 -36 38 68 c195 351 497 658 923 939 158 104 160 108 86 219 l-47 69 39 190 39 190 30 -152 29 -152 46 3 c39 3 45 6 48 27 3 18 0 22 -11 18 -23 -9 -24 15 -8 218 8 109 14 342 14 590 1 394 -1 434 -45 1030 -33 453 -43 635 -37 675 5 30 11 143 14 250 3 107 7 214 9 238 3 37 1 42 -17 42 -11 0 -32 -14 -46 -31 -23 -27 -29 -29 -54 -20 -41 16 -133 13 -167 -4 -57 -30 -154 -175 -239 -360 -50 -107 -134 -245 -151 -245 -12 0 -36 37 -51 78 -9 28 -7 42 21 108 38 91 38 142 0 161 -16 8 -70 13 -153 13 l-129 0 7 -28 c4 -21 -16 -89 -75 -258 -99 -279 -131 -379 -164 -509 -71 -285 -147 -798 -176 -1190 -15 -190 -63 -676 -91 -910 -32 -276 -19 -426 77 -855 36 -160 37 -171 39 -385 2 -230 6 -262 54 -370 12 -27 25 -52 30 -55 4 -3 15 -120 25 -260 15 -232 36 -415 50 -438 3 -5 1 -47 -4 -93 -5 -46 -16 -160 -25 -254 -18 -196 -25 -238 -68 -395 -30 -110 -41 -133 -61 -127 -15 5 -34 97 -41 202 -10 141 -30 240 -63 310 -27 56 -30 73 -41 260 -23 409 -60 625 -150 885 -67 194 -145 371 -434 982 -43 91 -52 118 -41 122 8 3 14 10 14 16 0 11 -42 13 -77 4 -37 -10 -29 -64 23 -179 83 -182 113 -255 128 -312 8 -31 11 -52 7 -47 -4 5 -22 28 -40 51 -23 30 -40 43 -62 45 -30 3 -32 6 -94 178 -34 96 -68 188 -74 204 -11 28 -13 28 -72 24 -33 -2 -64 -9 -67 -15 -4 -6 -18 -13 -32 -14 -39 -6 -37 -48 7 -176 32 -96 41 -113 59 -113 18 0 27 -16 57 -102 20 -57 31 -104 26 -106 -18 -7 -9 -62 27 -161 l36 -101 -38 -90 c-21 -49 -44 -90 -51 -90 -7 0 -13 5 -13 10 0 6 -9 10 -20 10 -11 0 -20 -2 -20 -5 0 -19 64 -535 80 -640 43 -291 99 -495 204 -743 65 -150 83 -250 116 -637 21 -247 46 -391 92 -516 l25 -66 -58 -174 c-80 -241 -102 -351 -103 -519 0 -150 16 -248 66 -390 77 -219 198 -385 333 -453 45 -23 161 -55 240 -67 38 -6 77 -18 86 -26 17 -16 36 -18 41 -6 4 10 343 95 357 90 6 -1 -46 -19 -115 -38 -100 -27 -124 -38 -124 -52 0 -11 7 -18 20 -18 33 0 387 -129 499 -181 121 -57 172 -103 189 -172 16 -61 35 -365 29 -463 -7 -125 -80 -364 -112 -364 -11 0 -61 -62 -109 -135 -35 -55 -84 -193 -92 -258 -10 -87 42 -154 114 -145 l26 3 13 -116 c7 -64 24 -158 36 -208 13 -50 19 -91 14 -91 -4 0 -5 -5 -2 -10 11 -18 93 -12 104 8 9 16 11 16 27 0 26 -25 11 -62 -33 -83 -21 -10 -40 -19 -42 -21 -8 -7 115 -126 160 -155 26 -16 86 -43 134 -59 48 -16 93 -34 100 -40 22 -18 120 16 150 51 14 17 25 35 25 39 0 5 11 35 25 67 l26 58 36 -65 c43 -78 64 -102 122 -142 39 -26 46 -28 56 -15 6 9 40 23 76 32 102 26 176 71 258 155 l73 75 -35 6 c-53 8 -69 25 -54 56 10 22 15 24 46 19 20 -4 44 -7 54 -9 23 -3 55 71 99 228 17 61 37 114 44 118 8 4 14 14 14 22 0 8 13 21 29 30 68 34 90 100 71 206 -14 79 -64 202 -96 236 -13 14 -24 34 -24 44 0 10 -7 22 -16 27 -28 16 -93 323 -114 538 -18 179 10 326 80 423 40 55 118 114 205 156 87 42 291 110 380 127 84 16 87 36 10 63 -102 34 -47 27 69 -9 122 -38 156 -44 156 -23 0 7 42 23 104 39 314 80 464 243 556 603 49 195 70 454 50 630 -13 119 -55 295 -93 390 l-24 60 27 101 c30 110 42 189 66 427 13 136 20 167 46 223 23 48 33 90 40 157 7 71 23 131 68 258 139 392 182 582 239 1059 11 85 22 165 26 178 6 18 3 24 -11 28 -13 4 -36 44 -73 130 -51 119 -55 124 -83 124 -20 0 -28 4 -25 13 81 195 109 317 73 317 -13 0 5 42 74 179 91 182 107 233 73 246 -10 3 -45 9 -79 12 l-61 6 -12 -49 c-33 -137 -96 -347 -99 -331 -2 12 -13 17 -36 17 -33 0 -34 -2 -67 -87 l-34 -88 -3 50 c-2 44 8 73 88 253 49 112 90 216 90 232 0 30 -15 40 -61 40 -24 0 -28 -4 -27 -22 1 -13 -40 -115 -91 -226 -165 -363 -267 -613 -359 -884 -113 -330 -162 -574 -182 -908 -10 -169 -16 -196 -60 -315 -13 -36 -20 -90 -24 -183 -4 -90 -12 -151 -25 -190 -10 -31 -22 -81 -26 -109 -4 -29 -11 -55 -15 -58 -13 -8 -40 6 -40 22 0 8 -18 80 -40 161 -80 294 -86 381 -71 958 14 531 12 504 46 584 55 130 58 150 60 385 2 214 3 225 39 385 96 429 109 579 77 855 -28 234 -76 720 -91 910 -29 392 -105 905 -176 1190 -33 131 -65 232 -164 510 -69 193 -80 234 -72 257 8 21 7 28 -6 33 -27 10 -197 18 -235 11 l-37 -7 0 -57 c0 -31 9 -88 18 -127 17 -62 17 -74 4 -105 -8 -19 -18 -46 -23 -58 -9 -23 -12 -20 -64 46 -30 39 -59 72 -64 74 -5 1 -50 97 -100 211 -125 287 -155 327 -242 327 -36 0 -56 -7 -89 -31 l-42 -31 -30 36 c-19 24 -38 36 -54 36 -14 0 -23 -4 -20 -8z"></path>
            <path id="p6b5hq10N" d="M2408 9545 c-16 -35 0 -111 87 -424 35 -128 62 -237 59 -242 -10 -17 -30 -9 -47 19 -9 16 -52 76 -95 134 -44 57 -110 150 -148 207 -59 89 -71 102 -93 99 -55 -6 -40 -70 77 -328 172 -383 204 -480 173 -538 -23 -43 -54 -39 -184 28 -152 77 -204 87 -248 44 -16 -15 -29 -31 -29 -34 0 -4 19 -16 42 -26 84 -38 156 -93 299 -230 84 -80 177 -158 219 -184 97 -60 140 -98 133 -116 -14 -37 98 11 247 105 45 29 120 41 218 34 50 -3 92 -2 92 3 0 4 -12 18 -27 30 l-27 21 14 129 c19 176 16 269 -14 399 -37 160 -46 263 -46 512 0 227 -6 273 -37 273 -46 -1 -48 -8 -54 -232 -7 -239 -18 -293 -60 -293 -33 0 -59 44 -98 166 -73 232 -104 326 -123 366 -40 86 -99 120 -106 62 -2 -15 24 -110 58 -213 65 -201 87 -329 59 -347 -47 -30 -63 -4 -169 281 -81 216 -108 276 -139 304 -20 18 -20 18 -33 -9z m316 -691 c3 -26 6 -63 5 -83 0 -33 -3 -30 -30 39 -16 41 -29 78 -29 82 0 5 11 8 24 8 20 0 24 -6 30 -46z m342 38 c6 -4 14 -27 16 -52 5 -39 -2 -62 -50 -168 -30 -67 -57 -120 -59 -118 -2 2 12 79 32 172 19 93 35 170 35 171 0 5 15 3 26 -5z m-516 -154 l-1 -63 -41 44 -41 44 34 18 c19 10 37 18 42 19 4 0 7 -28 7 -62z m370 -308 c0 -5 -18 -10 -40 -10 -38 0 -40 -2 -40 -29 0 -16 4 -41 10 -55 8 -22 7 -26 -10 -26 -13 0 -20 -8 -22 -25 -3 -24 -8 -19 -65 49 -35 41 -63 78 -63 81 0 15 18 2 33 -25 15 -25 24 -30 58 -30 38 0 39 1 39 34 0 33 2 35 38 39 20 2 43 4 50 5 6 1 12 -2 12 -8z m-30 -222 l0 -31 -25 23 c-14 13 -25 27 -25 32 0 4 11 8 25 8 21 0 25 -5 25 -32z"></path>
            <path id="pU6hggh7" d="M8333 9548 c-35 -38 -63 -104 -135 -313 -107 -313 -94 -285 -137 -285 l-38 0 -11 58 c-6 31 -13 127 -15 213 -3 141 -6 159 -27 197 -17 30 -27 39 -34 31 -7 -6 -11 -97 -11 -257 0 -227 -1 -247 -17 -250 -10 -2 -18 -10 -18 -18 0 -10 13 -14 44 -14 l45 0 6 -57 c7 -59 42 -250 51 -281 3 -9 -20 36 -52 101 -49 101 -60 117 -81 117 -13 0 -22 -4 -18 -10 3 -5 -5 -40 -17 -77 -21 -63 -23 -85 -23 -291 0 -122 -3 -222 -7 -222 -19 0 -6 -30 15 -34 12 -3 66 -14 121 -26 54 -12 111 -20 127 -18 23 4 29 1 29 -13 0 -11 22 -33 58 -55 31 -20 76 -52 99 -70 49 -40 80 -44 85 -11 2 16 37 45 123 102 88 58 151 111 235 196 124 126 244 213 309 224 39 6 39 7 29 37 -14 40 -64 61 -115 49 -48 -11 -140 -50 -223 -95 -77 -42 -102 -44 -124 -11 -43 65 -2 206 144 500 115 232 128 272 110 345 l-12 50 -30 -18 c-41 -24 -65 -58 -143 -204 -37 -70 -93 -158 -123 -194 -50 -60 -56 -65 -70 -50 -14 14 -15 23 -3 78 6 35 37 135 67 223 30 88 57 187 61 220 6 70 -7 129 -29 133 -24 5 -56 -56 -138 -263 -128 -323 -167 -380 -163 -240 1 51 16 115 53 240 55 181 68 277 40 283 -9 1 -25 -8 -37 -20z m-153 -635 c-1 -5 -7 -19 -15 -33 -8 -14 -14 -36 -15 -50 0 -24 0 -24 -13 -5 -7 11 -24 37 -36 58 l-23 37 51 0 c28 0 51 -3 51 -7z m140 -28 c17 -9 30 -19 30 -24 0 -5 -15 -50 -34 -101 -27 -77 -34 -89 -38 -66 -6 29 2 206 9 206 2 0 17 -7 33 -15z m192 -95 c9 0 20 -6 26 -12 7 -10 -3 -25 -39 -58 l-49 -46 0 36 c0 19 3 52 6 73 6 35 8 36 24 22 9 -8 24 -15 32 -15z m-171 -382 c16 -2 7 -16 -51 -73 l-70 -69 0 42 c0 35 3 42 19 42 13 0 29 17 48 50 21 38 29 46 31 31 2 -11 12 -21 23 -23z m-221 17 c0 -8 14 -17 35 -21 39 -7 47 -24 12 -24 -15 0 -28 -9 -35 -22 -10 -22 -11 -22 -17 10 -4 17 -11 32 -16 32 -5 0 -9 9 -9 20 0 11 7 20 15 20 8 0 15 -7 15 -15z"></path>
            <path id="pwssJFZ5j" d="M5416 8328 c-239 -375 -379 -728 -460 -1160 -108 -567 -136 -1391 -65 -1880 51 -358 153 -577 330 -714 86 -66 225 -144 257 -144 37 0 200 100 272 166 172 160 268 418 315 844 50 460 44 1093 -15 1577 -47 387 -122 658 -254 921 -65 129 -100 186 -205 334 -70 99 -79 108 -109 108 -28 0 -36 -7 -66 -52z"></path>
            <path id="pO8fI5ROs" d="M2700 7850 c0 -5 6 -13 14 -17 19 -11 54 -170 61 -278 3 -49 13 -125 21 -168 16 -85 56 -187 73 -187 32 0 -25 400 -85 607 -15 51 -17 53 -50 53 -19 0 -34 -4 -34 -10z"></path>
            <path id="pMkS6H9RN" d="M8236 7828 c-2 -13 -14 -81 -25 -153 -12 -71 -27 -166 -35 -210 -8 -44 -17 -117 -21 -162 -6 -68 -5 -83 7 -83 29 0 62 128 83 328 22 206 34 264 56 269 36 10 21 33 -21 33 -33 0 -40 -4 -44 -22z"></path>
        </g>
    </g>
    <g id="l2HIM3l7Zgq5xhr0p3h37xx" fill="rgb(253,253,251)" style="transform: none;">
        <g>
            <path id="pQg86CX2" d="M4757 15823 c-17 -4 -18 -14 -12 -126 l6 -122 -31 61 c-17 34 -54 89 -82 123 -46 58 -51 61 -67 47 -10 -9 -22 -16 -27 -16 -39 -1 -35 -19 40 -190 54 -122 74 -179 70 -196 -4 -16 -2 -24 6 -24 10 0 11 -29 6 -130 -5 -90 -4 -130 3 -130 6 0 11 -7 11 -15 0 -8 19 -20 49 -29 79 -23 91 -34 91 -86 0 -25 3 -69 6 -97 6 -47 9 -53 30 -53 23 0 24 3 24 68 0 207 31 385 121 715 50 182 51 196 13 197 -6 0 -30 -69 -53 -152 -23 -84 -49 -173 -56 -198 l-15 -45 5 50 c2 28 7 114 11 193 l7 142 -25 0 -24 0 -13 -216 c-7 -119 -16 -226 -21 -238 -8 -21 -8 -20 -14 4 -4 21 -26 389 -26 450 0 20 -2 21 -33 13z m-88 -203 c16 -30 39 -88 51 -129 12 -40 24 -80 27 -87 3 -8 1 -14 -4 -14 -8 0 -77 149 -160 345 -14 31 61 -69 86 -115z"></path>
            <path id="pio475xvs" d="M6067 15823 c-17 -4 -18 -13 -13 -81 3 -43 8 -122 11 -177 3 -55 8 -118 11 -140 4 -35 0 -30 -26 35 -40 97 -66 197 -75 288 -7 71 -14 82 -43 63 -10 -6 -11 -25 -2 -97 14 -112 20 -134 82 -302 l50 -137 19 -340 c23 -429 23 -454 -7 -270 -13 83 -33 197 -45 254 -21 106 -94 375 -107 395 -3 6 -19 47 -34 91 -14 44 -42 117 -61 163 -20 48 -38 111 -42 148 -7 63 -15 73 -43 55 -19 -12 1 -136 35 -215 14 -34 42 -108 62 -166 20 -58 39 -109 43 -115 8 -14 63 -211 87 -315 20 -83 72 -389 70 -413 0 -7 -15 55 -34 136 -41 179 -81 310 -147 481 -97 253 -162 359 -185 300 -3 -8 -1 -26 5 -39 8 -17 8 -25 -1 -28 -7 -2 0 -21 20 -53 40 -62 134 -296 178 -439 37 -122 90 -353 83 -361 -3 -2 -13 34 -23 81 -10 47 -23 85 -29 85 -36 -1 -36 -8 -7 -381 28 -361 29 -368 20 -849 -8 -477 -17 -673 -43 -920 -14 -125 -14 -126 -85 -270 -110 -224 -153 -372 -166 -570 l-6 -95 46 -57 c25 -31 51 -55 59 -54 7 1 39 19 70 41 48 33 60 37 83 29 47 -16 98 -100 193 -320 52 -118 97 -214 101 -214 5 0 36 -36 70 -80 80 -103 92 -103 129 -10 12 30 26 58 31 61 6 4 0 45 -15 107 -35 138 -35 149 10 158 32 6 122 0 185 -13 41 -8 43 19 9 123 -55 171 -64 251 -62 532 1 200 5 262 17 299 9 25 14 52 11 58 -2 7 -32 20 -66 29 -48 14 -63 23 -73 44 -6 15 -12 28 -13 30 -1 2 -13 0 -27 -3 -23 -6 -27 -14 -37 -78 -14 -84 -35 -134 -63 -148 -16 -9 -24 -6 -43 17 -121 145 -160 321 -199 909 -21 314 -22 373 -7 655 8 170 9 278 2 354 -5 61 -8 111 -7 113 2 2 11 -43 21 -98 l18 -101 31 6 c17 3 32 8 34 10 3 2 -7 66 -22 141 -14 76 -24 139 -22 141 2 2 13 -42 25 -98 13 -56 24 -104 26 -106 3 -2 14 -1 26 3 17 5 20 12 16 30 -3 12 -15 202 -26 421 -11 219 -21 420 -23 447 -4 44 -2 47 19 47 l24 0 -1 -127 c-3 -211 33 -431 131 -801 36 -138 67 -291 100 -490 l12 -73 32 7 c17 3 32 8 34 9 2 2 -10 82 -27 178 -30 173 -57 292 -126 557 -47 179 -81 387 -86 515 -1 43 46 505 61 594 6 32 26 81 50 122 37 63 110 221 110 239 0 8 -89 45 -95 39 -1 -2 -39 -74 -84 -159 -91 -175 -97 -173 -56 25 24 120 23 134 -12 135 -11 0 -30 -69 -52 -194 -6 -33 -11 -108 -11 -168 0 -65 -4 -108 -10 -108 -5 0 -10 1 -10 3 0 1 -7 97 -15 212 -8 116 -15 222 -15 238 0 15 -3 26 -7 26 -5 -1 -16 -3 -26 -6z m267 -199 c-37 -74 -73 -139 -79 -144 -6 -5 23 58 65 140 41 82 77 147 79 144 2 -2 -27 -65 -65 -140z m-149 -3793 c27 -6 32 -13 48 -71 9 -36 16 -85 15 -110 -4 -59 -26 -70 -139 -70 l-86 0 -6 112 c-7 118 -3 133 36 141 33 6 98 5 132 -2z"></path>
            <path id="pPmyzgNbZ" d="M5161 15678 c-18 -62 -63 -192 -101 -288 -102 -263 -119 -325 -180 -665 l-19 -110 5 103 c4 65 2 102 -4 102 -6 0 -17 2 -25 6 -11 4 -15 -14 -21 -93 -4 -54 -15 -188 -26 -298 -35 -380 -34 -342 -6 -349 22 -5 24 -9 15 -38 -5 -18 -9 -36 -9 -39 0 -14 49 -19 95 -10 l47 9 -6 -49 c-4 -28 1 -190 10 -362 28 -546 15 -732 -81 -1111 -19 -77 -35 -147 -35 -157 0 -23 -66 -163 -84 -178 -17 -14 -58 46 -106 157 -18 39 -39 72 -46 72 -7 0 -27 -13 -44 -30 -16 -16 -53 -37 -80 -47 -44 -15 -50 -21 -44 -38 13 -38 25 -310 19 -424 -7 -141 -24 -239 -69 -402 -19 -70 -32 -136 -29 -147 5 -19 14 -21 129 -24 169 -4 169 -5 114 -133 -23 -54 -37 -101 -32 -104 5 -3 15 -23 21 -43 25 -75 64 -103 111 -78 26 14 97 129 150 245 86 185 183 330 240 360 39 20 69 19 131 -5 28 -12 53 -19 54 -18 1 2 21 27 44 57 33 43 41 61 37 80 -3 14 -8 62 -11 106 -8 101 -29 209 -62 305 -46 136 -153 375 -173 390 -18 13 -20 26 -20 110 0 52 -7 232 -15 400 -46 952 -40 1250 31 1638 14 76 13 86 -1 108 -8 13 -28 27 -43 31 l-29 8 38 101 c21 56 49 153 63 215 30 140 51 198 103 275 22 32 42 64 46 70 4 6 -2 19 -12 28 -18 17 -21 15 -59 -41 -74 -110 -90 -147 -123 -303 -24 -115 -52 -205 -89 -285 -15 -33 -37 -108 -50 -167 -13 -59 -25 -106 -27 -104 -7 7 68 439 93 535 14 51 60 186 103 300 100 262 148 421 129 432 -28 18 -36 6 -67 -103z m-337 -1522 c-3 -21 -8 -35 -11 -32 -2 2 -1 20 3 40 3 21 8 35 11 32 2 -2 1 -20 -3 -40z m83 -2326 c31 0 43 -32 43 -110 0 -138 -19 -155 -157 -144 l-83 7 0 36 c1 94 106 232 165 216 11 -2 25 -5 32 -5z"></path>
            <path id="p1FYgS8n3G" d="M4706 14868 c-3 -18 -10 -96 -16 -173 -15 -183 -39 -314 -105 -571 -77 -302 -129 -565 -113 -576 29 -18 47 -8 54 30 18 109 81 390 124 557 27 105 58 240 69 301 19 108 49 439 40 447 -2 3 -14 8 -26 11 -19 6 -23 3 -27 -26z"></path>
            <path id="pjCs8cMZ2" d="M8093 8953 c-47 -4 -53 -7 -53 -26 0 -20 63 -135 80 -147 8 -6 -11 -310 -19 -310 -9 0 -70 292 -83 394 l-11 88 -45 -6 c-25 -3 -50 -6 -57 -6 -8 0 -16 -26 -23 -69 l-10 -69 44 -84 c51 -98 144 -314 144 -333 0 -7 5 -15 12 -17 8 -3 12 -28 13 -69 0 -35 5 -67 10 -71 22 -17 34 -6 41 37 3 25 10 45 14 45 5 0 12 10 15 21 6 17 9 19 16 8 16 -26 9 -49 -33 -108 -24 -32 -47 -66 -53 -74 -9 -15 -17 -14 -86 2 -121 30 -179 36 -179 18 0 -7 -9 -22 -19 -31 -11 -10 -24 -30 -31 -46 -10 -24 -8 -35 14 -79 14 -27 26 -61 26 -74 0 -19 7 -26 30 -30 l29 -6 -60 -138 c-33 -76 -76 -170 -94 -209 -32 -66 -34 -75 -28 -142 6 -69 7 -71 35 -77 16 -4 31 -5 32 -3 2 1 18 42 36 91 18 48 35 86 37 83 6 -6 -70 -203 -107 -276 -18 -36 -57 -103 -87 -149 -30 -46 -52 -90 -49 -97 5 -13 53 -31 60 -23 22 24 117 182 147 245 46 95 133 356 179 537 l33 127 36 -6 c20 -4 41 -9 48 -13 8 -4 -19 -66 -82 -191 -52 -102 -94 -193 -95 -203 0 -11 9 -21 20 -24 11 -3 20 -10 20 -15 0 -28 -59 -180 -118 -302 -64 -133 -66 -139 -47 -152 35 -26 50 -17 85 57 19 39 38 72 41 75 3 2 30 -52 59 -119 29 -67 54 -123 55 -124 1 -2 15 -5 31 -9 l30 -6 27 96 c15 53 27 110 27 126 0 17 7 42 17 56 11 18 17 53 19 122 2 53 10 135 19 182 8 47 24 144 36 215 30 189 25 175 58 175 25 0 30 5 41 45 7 25 17 48 21 51 17 10 9 46 -13 65 -13 11 -60 44 -105 75 -46 31 -83 58 -83 61 0 15 54 80 142 169 79 80 99 106 96 125 -2 16 -11 25 -25 27 -21 3 -16 13 56 121 44 65 98 133 120 150 26 21 41 41 41 55 0 26 -28 56 -52 56 -9 0 -21 7 -28 15 -7 8 -27 15 -45 15 -30 0 -33 -3 -39 -37 -3 -21 -6 -60 -6 -86 0 -43 -8 -61 -87 -181 -49 -73 -93 -142 -100 -152 -15 -23 -9 -5 92 275 60 169 74 216 63 223 -42 29 -109 57 -122 52 -12 -5 -16 -22 -17 -68 -2 -76 -8 -194 -13 -266 -6 -78 -45 -177 -69 -172 -15 3 -17 11 -13 45 3 23 11 109 17 192 9 125 15 158 35 198 21 40 23 50 11 61 -17 17 -58 23 -124 19z"></path>
            <path id="p5fVm4xG6" d="M2857 8943 c-20 -5 -20 -17 -1 -375 3 -64 2 -108 -4 -108 -5 0 -28 51 -51 113 -35 95 -41 123 -41 188 0 103 -10 167 -26 173 -14 6 -101 -8 -110 -17 -3 -2 34 -107 81 -232 77 -208 100 -295 76 -295 -5 0 -52 64 -105 143 l-96 142 0 73 c0 103 -11 112 -87 73 -32 -16 -72 -44 -90 -63 l-32 -33 259 -310 c237 -282 259 -311 243 -323 -10 -7 -58 -36 -108 -64 -118 -66 -127 -74 -98 -96 12 -9 25 -34 29 -56 4 -25 13 -40 25 -43 31 -8 79 -201 109 -438 21 -165 51 -332 76 -421 14 -49 17 -52 52 -57 20 -2 40 -2 43 2 4 3 24 47 45 96 21 50 41 91 46 93 4 2 -6 40 -22 85 -16 45 -28 83 -26 84 2 2 29 -56 61 -128 32 -71 62 -132 66 -135 4 -2 14 -1 23 2 13 5 11 14 -11 62 -91 200 -176 406 -203 490 -36 111 -83 302 -76 309 2 3 19 6 36 6 31 2 33 -1 60 -71 16 -41 59 -160 95 -265 73 -209 148 -378 222 -493 47 -74 56 -81 82 -65 11 7 2 29 -46 108 -77 124 -95 160 -143 286 l-39 102 30 -35 c17 -19 47 -62 67 -96 60 -98 78 -61 46 93 -18 89 -29 119 -119 316 -37 82 -66 150 -64 151 2 2 18 8 34 13 30 9 30 11 35 94 3 46 3 87 0 91 -10 13 -193 21 -231 10 -32 -8 -37 -8 -34 7 1 9 -2 24 -7 35 -7 13 -6 21 2 26 9 6 3 32 -23 101 -19 52 -33 96 -30 99 2 3 9 -3 14 -13 25 -44 43 -19 136 186 l92 203 -2 76 -2 76 -36 11 c-71 21 -59 52 -146 -379 l-17 -85 -7 45 c-4 25 -8 83 -8 130 -1 126 -13 310 -20 309 -3 -1 -14 -3 -24 -6z m-326 -299 c2 2 30 -35 63 -83 68 -101 59 -93 -59 49 -48 58 -70 88 -48 67 21 -20 41 -36 44 -33z m343 -836 c4 -24 9 -54 12 -68 3 -14 -7 4 -21 39 -13 35 -22 67 -19 72 10 17 21 0 28 -43z"></path>
            <path id="pUZo4XjQB" d="M5210 8873 c0 -5 -21 -108 -46 -231 l-46 -223 34 -52 c19 -29 42 -64 52 -78 l17 -27 -133 -87 c-308 -203 -508 -380 -717 -634 -110 -134 -199 -279 -287 -471 -47 -102 -60 -139 -53 -152 5 -10 14 -18 19 -18 5 0 31 37 59 83 66 110 112 161 167 187 84 41 186 9 285 -89 102 -103 139 -224 139 -459 0 -113 -6 -164 -31 -292 -82 -409 -44 -771 135 -1311 141 -426 263 -668 394 -778 l50 -42 20 -132 c58 -363 71 -625 39 -760 -36 -147 -105 -233 -240 -298 -97 -46 -185 -70 -368 -99 -346 -55 -694 -134 -704 -159 -8 -21 3 -27 72 -40 59 -11 66 -10 220 34 406 118 710 172 1100 196 470 28 800 -21 1321 -198 138 -46 169 -54 205 -48 52 9 77 22 77 39 0 23 -217 84 -800 226 -333 81 -487 144 -526 215 -15 27 -16 54 -10 216 3 101 9 310 12 464 l6 280 68 95 c253 355 383 654 479 1104 68 312 85 549 79 1071 -5 405 -5 411 19 498 29 110 63 183 105 226 43 44 85 61 153 61 110 0 178 -58 270 -229 80 -148 78 -146 99 -134 16 9 13 19 -32 105 -63 121 -277 477 -350 582 -143 207 -330 406 -492 528 -79 58 -314 214 -333 221 -7 2 14 33 46 69 l57 66 -50 236 c-27 131 -50 239 -50 242 0 2 -11 4 -24 4 -23 0 -24 -5 -51 -177 -15 -98 -29 -179 -31 -181 -1 -2 -16 4 -33 12 -16 9 -34 16 -39 16 -5 0 -19 -33 -31 -72 -22 -71 -24 -73 -57 -74 l-33 0 -17 72 c-17 78 -29 90 -69 72 -14 -6 -27 -9 -28 -7 -2 2 -18 76 -35 163 -18 88 -38 163 -44 168 -16 10 -38 10 -38 1z m435 -754 c285 -435 400 -939 421 -1849 11 -470 -27 -919 -102 -1197 -72 -271 -187 -432 -395 -556 l-91 -55 -71 40 c-299 168 -423 375 -486 816 -82 567 -28 1501 119 2065 83 319 214 613 407 916 l34 54 51 -69 c28 -38 79 -112 113 -165z"></path>
            <path id="p10v1lWxbD" d="M4847 610 c-4 -17 -11 -21 -29 -18 -44 8 -48 -14 -14 -78 17 -32 39 -60 48 -62 29 -6 85 28 98 58 13 32 6 83 -15 100 -7 6 -29 13 -48 17 -29 4 -35 2 -40 -17z"></path>
            <path id="p14BFC4VPh" d="M5961 579 c-43 -70 -17 -129 56 -129 24 0 38 8 56 33 13 17 27 45 31 60 6 25 3 29 -27 42 -19 8 -44 11 -56 8 -14 -3 -26 -1 -31 7 -6 10 -14 4 -29 -21z"></path>
            <path id="pdFItSv51" d="M5404 423 c-61 -138 -80 -161 -137 -165 -32 -3 -55 -24 -41 -37 26 -24 286 -39 394 -23 60 9 64 33 12 66 -49 31 -76 64 -130 160 -23 42 -47 76 -53 76 -6 0 -26 -35 -45 -77z"></path>
        </g>
    </g>
</svg>